ply
format ascii 1.0
comment VCGLIB generated
element vertex 1000
property float x
property float y
property float z
property float nx
property float ny
property float nz
property uchar red
property uchar green
property uchar blue
property uchar alpha
element face 0
property list uchar int vertex_indices
end_header
0.637213 0.194735 0 0 0 0 255 255 255 255 
0.932114 0.824505 0 0 0 0 255 255 255 255 
0.092663 0.812163 0 0 0 0 255 255 255 255 
0.774092 0.0555474 0 0 0 0 255 255 255 255 
0.312009 0.713817 0 0 0 0 255 255 255 255 
0.346315 0.373795 0 0 0 0 255 255 255 255 
0.263629 0.393941 0 0 0 0 255 255 255 255 
0.0346164 0.450233 0 0 0 0 255 255 255 255 
0.645922 0.343928 0 0 0 0 255 255 255 255 
0.0730421 0.567777 0 0 0 0 255 255 255 255 
0.839332 0.919557 0 0 0 0 255 255 255 255 
0.936667 0.188985 0 0 0 0 255 255 255 255 
0.241386 0.725319 0 0 0 0 255 255 255 255 
0.221026 0.622991 0 0 0 0 255 255 255 255 
0.6822 0.415763 0 0 0 0 255 255 255 255 
0.40223 0.446587 0 0 0 0 255 255 255 255 
0.14564 0.0954949 0 0 0 0 255 255 255 255 
0.644122 0.246189 0 0 0 0 255 255 255 255 
0.975616 0.527429 0 0 0 0 255 255 255 255 
0.698849 0.914042 0 0 0 0 255 255 255 255 
0.905603 0.106481 0 0 0 0 255 255 255 255 
0.123984 0.844022 0 0 0 0 255 255 255 255 
0.0259332 0.805205 0 0 0 0 255 255 255 255 
0.334571 0.0628535 0 0 0 0 255 255 255 255 
-0.0051065 0.307724 0 0 0 0 255 255 255 255 
0.405475 0.428023 0 0 0 0 255 255 255 255 
0.163488 0.499562 0 0 0 0 255 255 255 255 
0.513758 0.855879 0 0 0 0 255 255 255 255 
0.207801 0.669223 0 0 0 0 255 255 255 255 
0.360252 0.676852 0 0 0 0 255 255 255 255 
0.396903 0.713461 0 0 0 0 255 255 255 255 
0.10324 0.187996 0 0 0 0 255 255 255 255 
0.610937 0.920951 0 0 0 0 255 255 255 255 
0.465924 0.151556 0 0 0 0 255 255 255 255 
0.97863 0.291582 0 0 0 0 255 255 255 255 
0.745632 0.300122 0 0 0 0 255 255 255 255 
0.379107 0.63298 0 0 0 0 255 255 255 255 
0.821583 0.415472 0 0 0 0 255 255 255 255 
0.22347 0.0750543 0 0 0 0 255 255 255 255 
0.284485 0.31785 0 0 0 0 255 255 255 255 
0.0410723 0.980975 0 0 0 0 255 255 255 255 
0.591506 0.592588 0 0 0 0 255 255 255 255 
0.015493 0.379626 0 0 0 0 255 255 255 255 
0.0163861 0.995473 0 0 0 0 255 255 255 255 
0.482461 0.886402 0 0 0 0 255 255 255 255 
0.0746405 0.0503396 0 0 0 0 255 255 255 255 
0.221904 0.399369 0 0 0 0 255 255 255 255 
0.568813 0.0159899 0 0 0 0 255 255 255 255 
0.611142 0.352768 0 0 0 0 255 255 255 255 
0.5054 0.754457 0 0 0 0 255 255 255 255 
0.47488 0.904471 0 0 0 0 255 255 255 255 
0.0810404 0.258665 0 0 0 0 255 255 255 255 
0.202921 0.816618 0 0 0 0 255 255 255 255 
0.127128 0.187059 0 0 0 0 255 255 255 255 
0.538896 0.274714 0 0 0 0 255 255 255 255 
0.107293 0.838124 0 0 0 0 255 255 255 255 
0.824542 -0.00233753 0 0 0 0 255 255 255 255 
0.134923 0.279065 0 0 0 0 255 255 255 255 
0.525164 0.449839 0 0 0 0 255 255 255 255 
0.409959 0.399136 0 0 0 0 255 255 255 255 
0.244362 0.491768 0 0 0 0 255 255 255 255 
0.170968 0.12374 0 0 0 0 255 255 255 255 
0.447299 0.820552 0 0 0 0 255 255 255 255 
0.48358 0.398295 0 0 0 0 255 255 255 255 
0.452805 0.172244 0 0 0 0 255 255 255 255 
0.437333 0.694941 0 0 0 0 255 255 255 255 
0.211637 0.871986 0 0 0 0 255 255 255 255 
0.491054 0.0267274 0 0 0 0 255 255 255 255 
0.1708 -0.000901208 0 0 0 0 255 255 255 255 
0.850942 0.779952 0 0 0 0 255 255 255 255 
0.292976 0.228568 0 0 0 0 255 255 255 255 
0.636547 0.707097 0 0 0 0 255 255 255 255 
0.212472 0.333784 0 0 0 0 255 255 255 255 
0.217188 0.528071 0 0 0 0 255 255 255 255 
0.125718 0.731117 0 0 0 0 255 255 255 255 
0.127371 0.785296 0 0 0 0 255 255 255 255 
0.551717 0.888627 0 0 0 0 255 255 255 255 
0.383008 0.808984 0 0 0 0 255 255 255 255 
0.271708 0.136015 0 0 0 0 255 255 255 255 
0.253546 0.75618 0 0 0 0 255 255 255 255 
0.761768 0.778844 0 0 0 0 255 255 255 255 
0.762847 0.820412 0 0 0 0 255 255 255 255 
0.917691 0.444195 0 0 0 0 255 255 255 255 
0.60607 0.00451427 0 0 0 0 255 255 255 255 
0.778105 0.354448 0 0 0 0 255 255 255 255 
0.459073 0.709736 0 0 0 0 255 255 255 255 
0.350556 0.910809 0 0 0 0 255 255 255 255 
0.391017 0.0181314 0 0 0 0 255 255 255 255 
0.323049 0.475073 0 0 0 0 255 255 255 255 
0.0821283 0.872781 0 0 0 0 255 255 255 255 
0.577421 0.64371 0 0 0 0 255 255 255 255 
-0.00179871 0.793042 0 0 0 0 255 255 255 255 
0.729576 0.0310002 0 0 0 0 255 255 255 255 
0.655989 0.0979249 0 0 0 0 255 255 255 255 
0.0514649 0.626124 0 0 0 0 255 255 255 255 
0.970651 0.39096 0 0 0 0 255 255 255 255 
0.243981 0.869726 0 0 0 0 255 255 255 255 
0.126786 0.10088 0 0 0 0 255 255 255 255 
0.503554 0.191975 0 0 0 0 255 255 255 255 
0.287067 0.864843 0 0 0 0 255 255 255 255 
0.120766 0.142297 0 0 0 0 255 255 255 255 
0.383916 0.402192 0 0 0 0 255 255 255 255 
0.250576 0.653686 0 0 0 0 255 255 255 255 
1.00802 0.086776 0 0 0 0 255 255 255 255 
0.13394 0.359681 0 0 0 0 255 255 255 255 
0.196693 0.162365 0 0 0 0 255 255 255 255 
0.223422 0.589347 0 0 0 0 255 255 255 255 
0.138721 0.890701 0 0 0 0 255 255 255 255 
0.280778 0.625584 0 0 0 0 255 255 255 255 
0.862412 0.896782 0 0 0 0 255 255 255 255 
0.422846 0.392256 0 0 0 0 255 255 255 255 
0.0432504 0.350498 0 0 0 0 255 255 255 255 
0.179355 0.813941 0 0 0 0 255 255 255 255 
0.237826 0.547512 0 0 0 0 255 255 255 255 
0.262366 0.942883 0 0 0 0 255 255 255 255 
0.391421 0.377394 0 0 0 0 255 255 255 255 
0.360832 0.749964 0 0 0 0 255 255 255 255 
0.504232 0.389688 0 0 0 0 255 255 255 255 
0.970802 0.845055 0 0 0 0 255 255 255 255 
0.491433 0.746082 0 0 0 0 255 255 255 255 
0.302387 0.772358 0 0 0 0 255 255 255 255 
0.466781 0.816567 0 0 0 0 255 255 255 255 
0.963327 0.503146 0 0 0 0 255 255 255 255 
0.993726 0.180294 0 0 0 0 255 255 255 255 
0.472315 0.922497 0 0 0 0 255 255 255 255 
0.754129 0.11378 0 0 0 0 255 255 255 255 
0.139796 0.467683 0 0 0 0 255 255 255 255 
0.368122 0.257398 0 0 0 0 255 255 255 255 
0.787218 0.810126 0 0 0 0 255 255 255 255 
0.486869 1.00483 0 0 0 0 255 255 255 255 
0.733772 0.206669 0 0 0 0 255 255 255 255 
0.408595 0.585134 0 0 0 0 255 255 255 255 
0.819321 0.238557 0 0 0 0 255 255 255 255 
0.116005 0.9519 0 0 0 0 255 255 255 255 
0.8332 0.0605032 0 0 0 0 255 255 255 255 
0.819772 0.288673 0 0 0 0 255 255 255 255 
0.340523 0.651187 0 0 0 0 255 255 255 255 
0.0330651 0.890754 0 0 0 0 255 255 255 255 
-0.00551173 0.131711 0 0 0 0 255 255 255 255 
0.474455 0.570585 0 0 0 0 255 255 255 255 
0.644803 0.850659 0 0 0 0 255 255 255 255 
0.717806 0.133394 0 0 0 0 255 255 255 255 
0.947578 0.0748112 0 0 0 0 255 255 255 255 
0.434239 0.587707 0 0 0 0 255 255 255 255 
0.465884 0.345803 0 0 0 0 255 255 255 255 
0.937099 0.775831 0 0 0 0 255 255 255 255 
0.256448 0.411584 0 0 0 0 255 255 255 255 
0.948966 0.324584 0 0 0 0 255 255 255 255 
0.308601 0.207216 0 0 0 0 255 255 255 255 
0.144545 0.0583073 0 0 0 0 255 255 255 255 
0.283077 0.694664 0 0 0 0 255 255 255 255 
0.429115 0.959934 0 0 0 0 255 255 255 255 
0.518278 0.941249 0 0 0 0 255 255 255 255 
0.340411 0.761965 0 0 0 0 255 255 255 255 
0.202399 0.00850642 0 0 0 0 255 255 255 255 
0.102364 0.431266 0 0 0 0 255 255 255 255 
0.121823 0.0448776 0 0 0 0 255 255 255 255 
0.298834 0.468188 0 0 0 0 255 255 255 255 
0.0604466 0.8638 0 0 0 0 255 255 255 255 
0.287325 0.724967 0 0 0 0 255 255 255 255 
0.189924 0.494823 0 0 0 0 255 255 255 255 
0.444869 0.991082 0 0 0 0 255 255 255 255 
0.399516 0.255052 0 0 0 0 255 255 255 255 
0.753478 0.578374 0 0 0 0 255 255 255 255 
0.55768 0.7377 0 0 0 0 255 255 255 255 
0.0827573 0.596736 0 0 0 0 255 255 255 255 
0.474547 0.758928 0 0 0 0 255 255 255 255 
0.444419 0.269455 0 0 0 0 255 255 255 255 
0.276644 0.105857 0 0 0 0 255 255 255 255 
0.843873 0.309363 0 0 0 0 255 255 255 255 
0.860291 0.559501 0 0 0 0 255 255 255 255 
0.872904 0.328075 0 0 0 0 255 255 255 255 
0.288426 0.487459 0 0 0 0 255 255 255 255 
0.772018 0.468637 0 0 0 0 255 255 255 255 
0.975005 0.446092 0 0 0 0 255 255 255 255 
0.453597 0.885629 0 0 0 0 255 255 255 255 
0.685051 0.816195 0 0 0 0 255 255 255 255 
0.0641898 0.411847 0 0 0 0 255 255 255 255 
0.495497 0.707768 0 0 0 0 255 255 255 255 
0.0615861 0.489529 0 0 0 0 255 255 255 255 
0.648005 0.594294 0 0 0 0 255 255 255 255 
0.3819 0.767294 0 0 0 0 255 255 255 255 
0.338323 0.691739 0 0 0 0 255 255 255 255 
0.191981 0.739223 0 0 0 0 255 255 255 255 
0.587212 0.45299 0 0 0 0 255 255 255 255 
0.280602 0.257752 0 0 0 0 255 255 255 255 
0.523473 0.0810862 0 0 0 0 255 255 255 255 
0.325408 0.312961 0 0 0 0 255 255 255 255 
0.0514864 0.691435 0 0 0 0 255 255 255 255 
0.410969 0.648664 0 0 0 0 255 255 255 255 
0.477197 0.729362 0 0 0 0 255 255 255 255 
0.678989 0.61431 0 0 0 0 255 255 255 255 
0.488172 0.804629 0 0 0 0 255 255 255 255 
0.47776 0.0762645 0 0 0 0 255 255 255 255 
0.336366 0.832532 0 0 0 0 255 255 255 255 
0.206743 0.241885 0 0 0 0 255 255 255 255 
0.126319 0.750587 0 0 0 0 255 255 255 255 
0.474375 0.6865 0 0 0 0 255 255 255 255 
0.219704 0.50819 0 0 0 0 255 255 255 255 
0.834052 0.874436 0 0 0 0 255 255 255 255 
0.324376 0.087187 0 0 0 0 255 255 255 255 
0.41451 0.740105 0 0 0 0 255 255 255 255 
0.902162 0.889822 0 0 0 0 255 255 255 255 
0.858902 0.379729 0 0 0 0 255 255 255 255 
0.331308 0.73307 0 0 0 0 255 255 255 255 
0.10172 0.880676 0 0 0 0 255 255 255 255 
0.0654232 0.973579 0 0 0 0 255 255 255 255 
0.556401 0.688003 0 0 0 0 255 255 255 255 
0.433728 0.0390422 0 0 0 0 255 255 255 255 
0.341512 0.20569 0 0 0 0 255 255 255 255 
0.035209 0.488425 0 0 0 0 255 255 255 255 
0.504064 0.588189 0 0 0 0 255 255 255 255 
0.0197282 0.946747 0 0 0 0 255 255 255 255 
0.552572 0.336249 0 0 0 0 255 255 255 255 
0.0552691 0.716276 0 0 0 0 255 255 255 255 
0.11037 0.307951 0 0 0 0 255 255 255 255 
0.811954 0.867442 0 0 0 0 255 255 255 255 
0.0907569 0.682653 0 0 0 0 255 255 255 255 
0.414269 0.350093 0 0 0 0 255 255 255 255 
0.380665 0.0383406 0 0 0 0 255 255 255 255 
0.16107 0.449891 0 0 0 0 255 255 255 255 
0.365946 0.0670384 0 0 0 0 255 255 255 255 
0.488419 0.204066 0 0 0 0 255 255 255 255 
0.133763 0.00263619 0 0 0 0 255 255 255 255 
0.30574 0.149075 0 0 0 0 255 255 255 255 
0.0587887 0.734584 0 0 0 0 255 255 255 255 
0.749088 0.791758 0 0 0 0 255 255 255 255 
0.386905 0.859975 0 0 0 0 255 255 255 255 
0.848848 0.264939 0 0 0 0 255 255 255 255 
0.869147 0.0548919 0 0 0 0 255 255 255 255 
0.889131 0.511202 0 0 0 0 255 255 255 255 
0.167766 0.420996 0 0 0 0 255 255 255 255 
0.159616 0.589044 0 0 0 0 255 255 255 255 
0.324552 0.995926 0 0 0 0 255 255 255 255 
0.222251 0.43665 0 0 0 0 255 255 255 255 
0.443712 0.903905 0 0 0 0 255 255 255 255 
0.171812 0.0327965 0 0 0 0 255 255 255 255 
0.327788 0.167488 0 0 0 0 255 255 255 255 
0.193791 0.31883 0 0 0 0 255 255 255 255 
0.11956 0.464168 0 0 0 0 255 255 255 255 
0.949395 0.558161 0 0 0 0 255 255 255 255 
0.247489 0.456198 0 0 0 0 255 255 255 255 
0.314697 0.835333 0 0 0 0 255 255 255 255 
0.3983 -0.00128166 0 0 0 0 255 255 255 255 
0.398748 0.283985 0 0 0 0 255 255 255 255 
0.128539 0.829415 0 0 0 0 255 255 255 255 
0.820174 0.72331 0 0 0 0 255 255 255 255 
0.096051 0.890342 0 0 0 0 255 255 255 255 
0.291292 0.747341 0 0 0 0 255 255 255 255 
0.634663 0.165444 0 0 0 0 255 255 255 255 
0.832961 0.449041 0 0 0 0 255 255 255 255 
0.44129 0.363852 0 0 0 0 255 255 255 255 
0.850468 0.445721 0 0 0 0 255 255 255 255 
0.523214 0.756125 0 0 0 0 255 255 255 255 
0.365088 0.991542 0 0 0 0 255 255 255 255 
0.887148 0.752772 0 0 0 0 255 255 255 255 
0.393286 0.908862 0 0 0 0 255 255 255 255 
1.00144 0.4095 0 0 0 0 255 255 255 255 
0.440683 0.448749 0 0 0 0 255 255 255 255 
0.669869 0.719422 0 0 0 0 255 255 255 255 
0.655346 0.218003 0 0 0 0 255 255 255 255 
0.00389374 0.754864 0 0 0 0 255 255 255 255 
0.0382237 0.565371 0 0 0 0 255 255 255 255 
0.225024 0.28968 0 0 0 0 255 255 255 255 
0.297539 0.123731 0 0 0 0 255 255 255 255 
0.0648777 0.943899 0 0 0 0 255 255 255 255 
0.227601 0.816567 0 0 0 0 255 255 255 255 
0.174466 0.161274 0 0 0 0 255 255 255 255 
0.0235713 0.701158 0 0 0 0 255 255 255 255 
0.473281 0.194228 0 0 0 0 255 255 255 255 
0.491284 0.467605 0 0 0 0 255 255 255 255 
0.393199 0.888377 0 0 0 0 255 255 255 255 
0.255134 0.893741 0 0 0 0 255 255 255 255 
0.711344 0.519213 0 0 0 0 255 255 255 255 
0.137183 0.430305 0 0 0 0 255 255 255 255 
0.31335 0.675937 0 0 0 0 255 255 255 255 
0.272038 0.448651 0 0 0 0 255 255 255 255 
0.0796121 0.430455 0 0 0 0 255 255 255 255 
0.944232 0.399133 0 0 0 0 255 255 255 255 
0.564028 0.518669 0 0 0 0 255 255 255 255 
0.144774 0.403997 0 0 0 0 255 255 255 255 
0.110462 0.752632 0 0 0 0 255 255 255 255 
0.981757 0.896549 0 0 0 0 255 255 255 255 
0.42089 0.873587 0 0 0 0 255 255 255 255 
0.499874 0.971864 0 0 0 0 255 255 255 255 
0.815797 0.768611 0 0 0 0 255 255 255 255 
0.852648 0.973789 0 0 0 0 255 255 255 255 
0.87474 0.411557 0 0 0 0 255 255 255 255 
0.0301977 0.423241 0 0 0 0 255 255 255 255 
0.304592 0.53998 0 0 0 0 255 255 255 255 
0.481514 0.363423 0 0 0 0 255 255 255 255 
0.426259 0.086214 0 0 0 0 255 255 255 255 
0.0503817 0.749945 0 0 0 0 255 255 255 255 
0.201245 0.475433 0 0 0 0 255 255 255 255 
0.958016 0.469946 0 0 0 0 255 255 255 255 
0.989016 0.229254 0 0 0 0 255 255 255 255 
0.958142 0.258211 0 0 0 0 255 255 255 255 
0.284968 0.652793 0 0 0 0 255 255 255 255 
0.0534779 0.447092 0 0 0 0 255 255 255 255 
0.434606 0.917776 0 0 0 0 255 255 255 255 
0.141559 0.71194 0 0 0 0 255 255 255 255 
0.365375 0.838669 0 0 0 0 255 255 255 255 
0.390496 0.838859 0 0 0 0 255 255 255 255 
0.347879 0.849434 0 0 0 0 255 255 255 255 
0.261215 0.991282 0 0 0 0 255 255 255 255 
0.545175 0.86252 0 0 0 0 255 255 255 255 
0.843147 0.153534 0 0 0 0 255 255 255 255 
0.47139 0.226726 0 0 0 0 255 255 255 255 
0.0524569 0.783007 0 0 0 0 255 255 255 255 
0.183744 1.00516 0 0 0 0 255 255 255 255 
0.946083 0.235824 0 0 0 0 255 255 255 255 
0.277882 -0.00565414 0 0 0 0 255 255 255 255 
0.0472233 0.59615 0 0 0 0 255 255 255 255 
0.275222 0.0442806 0 0 0 0 255 255 255 255 
0.414414 0.835532 0 0 0 0 255 255 255 255 
0.930762 0.274742 0 0 0 0 255 255 255 255 
0.361162 0.167262 0 0 0 0 255 255 255 255 
0.0291582 0.290914 0 0 0 0 255 255 255 255 
0.130022 0.574929 0 0 0 0 255 255 255 255 
0.586736 0.770188 0 0 0 0 255 255 255 255 
0.835727 0.131308 0 0 0 0 255 255 255 255 
0.114736 0.976184 0 0 0 0 255 255 255 255 
0.383866 0.30844 0 0 0 0 255 255 255 255 
0.0880948 0.98275 0 0 0 0 255 255 255 255 
0.545036 0.480754 0 0 0 0 255 255 255 255 
0.570146 0.27989 0 0 0 0 255 255 255 255 
0.7363 0.380691 0 0 0 0 255 255 255 255 
0.618219 0.656068 0 0 0 0 255 255 255 255 
0.0267555 0.735048 0 0 0 0 255 255 255 255 
0.575051 0.360369 0 0 0 0 255 255 255 255 
0.43235 0.301006 0 0 0 0 255 255 255 255 
0.31756 0.134348 0 0 0 0 255 255 255 255 
-0.0015992 0.211497 0 0 0 0 255 255 255 255 
0.530338 0.134552 0 0 0 0 255 255 255 255 
0.191078 0.972726 0 0 0 0 255 255 255 255 
0.222809 0.57059 0 0 0 0 255 255 255 255 
0.557174 0.946578 0 0 0 0 255 255 255 255 
0.837585 0.623268 0 0 0 0 255 255 255 255 
0.218656 0.190813 0 0 0 0 255 255 255 255 
0.372492 0.65258 0 0 0 0 255 255 255 255 
0.322985 0.789922 0 0 0 0 255 255 255 255 
0.0064827 0.168089 0 0 0 0 255 255 255 255 
0.291824 0.589794 0 0 0 0 255 255 255 255 
0.161028 0.629034 0 0 0 0 255 255 255 255 
0.779705 0.424268 0 0 0 0 255 255 255 255 
0.214546 0.689423 0 0 0 0 255 255 255 255 
0.277434 0.56093 0 0 0 0 255 255 255 255 
0.470592 0.0464892 0 0 0 0 255 255 255 255 
0.281549 0.839458 0 0 0 0 255 255 255 255 
0.12034 0.80759 0 0 0 0 255 255 255 255 
0.629805 0.0552371 0 0 0 0 255 255 255 255 
0.0891246 0.202369 0 0 0 0 255 255 255 255 
0.456795 0.0622327 0 0 0 0 255 255 255 255 
0.426123 0.523304 0 0 0 0 255 255 255 255 
0.666058 0.162539 0 0 0 0 255 255 255 255 
0.056916 0.119529 0 0 0 0 255 255 255 255 
0.0367748 0.831146 0 0 0 0 255 255 255 255 
0.35029 0.615641 0 0 0 0 255 255 255 255 
0.171989 0.722977 0 0 0 0 255 255 255 255 
0.857403 0.745731 0 0 0 0 255 255 255 255 
0.188631 0.613248 0 0 0 0 255 255 255 255 
0.149907 0.745921 0 0 0 0 255 255 255 255 
0.954221 0.805323 0 0 0 0 255 255 255 255 
0.1634 0.856909 0 0 0 0 255 255 255 255 
0.260899 0.689718 0 0 0 0 255 255 255 255 
0.181384 0.443682 0 0 0 0 255 255 255 255 
0.559209 0.452129 0 0 0 0 255 255 255 255 
0.347581 0.237338 0 0 0 0 255 255 255 255 
0.143052 0.613332 0 0 0 0 255 255 255 255 
0.889679 0.352543 0 0 0 0 255 255 255 255 
0.351848 0.298477 0 0 0 0 255 255 255 255 
0.296204 0.540365 0 0 0 0 255 255 255 255 
0.0297858 0.917744 0 0 0 0 255 255 255 255 
0.302166 0.891458 0 0 0 0 255 255 255 255 
0.239899 0.707202 0 0 0 0 255 255 255 255 
0.241767 0.220981 0 0 0 0 255 255 255 255 
0.709677 0.710544 0 0 0 0 255 255 255 255 
0.349801 0.956088 0 0 0 0 255 255 255 255 
0.16836 0.390454 0 0 0 0 255 255 255 255 
0.441083 0.205501 0 0 0 0 255 255 255 255 
0.608612 1.00317 0 0 0 0 255 255 255 255 
0.158424 0.109371 0 0 0 0 255 255 255 255 
0.124758 0.285778 0 0 0 0 255 255 255 255 
0.971102 0.141679 0 0 0 0 255 255 255 255 
0.264784 0.152816 0 0 0 0 255 255 255 255 
0.419748 0.185106 0 0 0 0 255 255 255 255 
0.459697 0.765652 0 0 0 0 255 255 255 255 
0.729614 0.353052 0 0 0 0 255 255 255 255 
0.222884 0.0858843 0 0 0 0 255 255 255 255 
0.443572 0.420748 0 0 0 0 255 255 255 255 
0.987666 0.323196 0 0 0 0 255 255 255 255 
0.0525913 0.881474 0 0 0 0 255 255 255 255 
0.100141 0.620026 0 0 0 0 255 255 255 255 
0.352686 0.923829 0 0 0 0 255 255 255 255 
0.646098 0.953131 0 0 0 0 255 255 255 255 
0.726341 0.335461 0 0 0 0 255 255 255 255 
0.878986 0.803538 0 0 0 0 255 255 255 255 
0.854499 0.839031 0 0 0 0 255 255 255 255 
0.0154574 0.769065 0 0 0 0 255 255 255 255 
0.0248431 0.951473 0 0 0 0 255 255 255 255 
0.418759 1.00113 0 0 0 0 255 255 255 255 
0.147431 0.222595 0 0 0 0 255 255 255 255 
0.0649879 0.531415 0 0 0 0 255 255 255 255 
0.201011 0.641557 0 0 0 0 255 255 255 255 
0.285555 0.218765 0 0 0 0 255 255 255 255 
0.4242 0.683951 0 0 0 0 255 255 255 255 
0.725012 0.133527 0 0 0 0 255 255 255 255 
0.240877 0.370426 0 0 0 0 255 255 255 255 
0.0959248 0.661331 0 0 0 0 255 255 255 255 
0.00183956 0.0273368 0 0 0 0 255 255 255 255 
0.825506 0.191952 0 0 0 0 255 255 255 255 
0.263013 0.233971 0 0 0 0 255 255 255 255 
0.783622 0.964513 0 0 0 0 255 255 255 255 
0.0113498 0.653584 0 0 0 0 255 255 255 255 
0.336002 0.143918 0 0 0 0 255 255 255 255 
0.981611 0.102676 0 0 0 0 255 255 255 255 
0.421555 0.712781 0 0 0 0 255 255 255 255 
0.91607 0.0341318 0 0 0 0 255 255 255 255 
0.826753 0.561073 0 0 0 0 255 255 255 255 
0.61431 0.384458 0 0 0 0 255 255 255 255 
0.376854 0.534137 0 0 0 0 255 255 255 255 
0.879213 0.929952 0 0 0 0 255 255 255 255 
0.593196 0.559042 0 0 0 0 255 255 255 255 
0.209685 0.442813 0 0 0 0 255 255 255 255 
0.149109 0.727858 0 0 0 0 255 255 255 255 
0.38375 0.18579 0 0 0 0 255 255 255 255 
0.228491 0.0566162 0 0 0 0 255 255 255 255 
0.164965 0.720673 0 0 0 0 255 255 255 255 
0.321692 0.946511 0 0 0 0 255 255 255 255 
0.317814 0.259173 0 0 0 0 255 255 255 255 
0.359889 0.546285 0 0 0 0 255 255 255 255 
0.563701 0.248074 0 0 0 0 255 255 255 255 
0.315296 0.750592 0 0 0 0 255 255 255 255 
0.597046 0.709506 0 0 0 0 255 255 255 255 
0.209684 0.951135 0 0 0 0 255 255 255 255 
0.365931 0.116669 0 0 0 0 255 255 255 255 
0.241925 0.594844 0 0 0 0 255 255 255 255 
0.748229 0.847368 0 0 0 0 255 255 255 255 
0.772965 0.189926 0 0 0 0 255 255 255 255 
0.237538 0.761079 0 0 0 0 255 255 255 255 
0.955096 0.635718 0 0 0 0 255 255 255 255 
0.374557 0.442893 0 0 0 0 255 255 255 255 
0.245269 0.0274144 0 0 0 0 255 255 255 255 
0.96898 0.00270098 0 0 0 0 255 255 255 255 
0.418136 0.889179 0 0 0 0 255 255 255 255 
0.736954 0.81474 0 0 0 0 255 255 255 255 
0.669246 0.0717552 0 0 0 0 255 255 255 255 
0.190474 0.389821 0 0 0 0 255 255 255 255 
0.21116 0.0970076 0 0 0 0 255 255 255 255 
0.0505228 0.512622 0 0 0 0 255 255 255 255 
0.366584 0.664631 0 0 0 0 255 255 255 255 
0.358607 0.563066 0 0 0 0 255 255 255 255 
0.281936 0.0652941 0 0 0 0 255 255 255 255 
0.831048 0.820584 0 0 0 0 255 255 255 255 
0.354552 0.630038 0 0 0 0 255 255 255 255 
0.120989 0.931069 0 0 0 0 255 255 255 255 
0.0377413 0.37429 0 0 0 0 255 255 255 255 
0.249983 0.609334 0 0 0 0 255 255 255 255 
0.325759 0.520573 0 0 0 0 255 255 255 255 
0.803472 0.46378 0 0 0 0 255 255 255 255 
0.778729 0.325096 0 0 0 0 255 255 255 255 
0.175132 0.272757 0 0 0 0 255 255 255 255 
0.430775 0.810053 0 0 0 0 255 255 255 255 
0.0972987 0.0182675 0 0 0 0 255 255 255 255 
0.358787 0.321862 0 0 0 0 255 255 255 255 
0.427029 0.93404 0 0 0 0 255 255 255 255 
0.184438 0.0580397 0 0 0 0 255 255 255 255 
0.831851 0.498199 0 0 0 0 255 255 255 255 
0.503317 0.829878 0 0 0 0 255 255 255 255 
0.556228 0.831323 0 0 0 0 255 255 255 255 
0.458416 0.593698 0 0 0 0 255 255 255 255 
0.186067 0.589509 0 0 0 0 255 255 255 255 
0.150368 0.927718 0 0 0 0 255 255 255 255 
0.350273 0.58962 0 0 0 0 255 255 255 255 
0.486656 0.949269 0 0 0 0 255 255 255 255 
0.386277 0.929303 0 0 0 0 255 255 255 255 
0.021105 0.320133 0 0 0 0 255 255 255 255 
0.781801 0.686545 0 0 0 0 255 255 255 255 
0.0925105 0.936951 0 0 0 0 255 255 255 255 
0.421983 0.333797 0 0 0 0 255 255 255 255 
0.0342172 0.852575 0 0 0 0 255 255 255 255 
0.55041 0.569548 0 0 0 0 255 255 255 255 
0.227201 0.0847039 0 0 0 0 255 255 255 255 
0.603908 0.111802 0 0 0 0 255 255 255 255 
0.756272 0.485932 0 0 0 0 255 255 255 255 
0.732145 0.442296 0 0 0 0 255 255 255 255 
0.716984 0.773568 0 0 0 0 255 255 255 255 
0.441141 0.838923 0 0 0 0 255 255 255 255 
-0.00074691 0.613408 0 0 0 0 255 255 255 255 
0.27777 0.360826 0 0 0 0 255 255 255 255 
0.20954 0.264312 0 0 0 0 255 255 255 255 
0.429362 0.641088 0 0 0 0 255 255 255 255 
0.31306 0.654559 0 0 0 0 255 255 255 255 
0.887112 0.984014 0 0 0 0 255 255 255 255 
0.167335 0.657189 0 0 0 0 255 255 255 255 
0.754207 0.159841 0 0 0 0 255 255 255 255 
0.502215 0.900093 0 0 0 0 255 255 255 255 
1.00914 0.805516 0 0 0 0 255 255 255 255 
0.784605 0.201976 0 0 0 0 255 255 255 255 
0.00377731 0.0018285 0 0 0 0 255 255 255 255 
0.755243 0.137938 0 0 0 0 255 255 255 255 
0.230108 0.898067 0 0 0 0 255 255 255 255 
0.695049 0.184558 0 0 0 0 255 255 255 255 
0.27948 0.791887 0 0 0 0 255 255 255 255 
0.13358 0.682892 0 0 0 0 255 255 255 255 
0.255307 0.308394 0 0 0 0 255 255 255 255 
0.865729 0.215876 0 0 0 0 255 255 255 255 
0.583613 0.327717 0 0 0 0 255 255 255 255 
0.0921101 0.911941 0 0 0 0 255 255 255 255 
0.652011 0.911976 0 0 0 0 255 255 255 255 
0.141688 0.857054 0 0 0 0 255 255 255 255 
0.0231892 0.232955 0 0 0 0 255 255 255 255 
0.285392 0.686049 0 0 0 0 255 255 255 255 
0.0406667 0.0072689 0 0 0 0 255 255 255 255 
0.220261 0.0229677 0 0 0 0 255 255 255 255 
0.159657 0.351637 0 0 0 0 255 255 255 255 
0.719211 0.844099 0 0 0 0 255 255 255 255 
0.912255 0.988656 0 0 0 0 255 255 255 255 
0.442184 0.714414 0 0 0 0 255 255 255 255 
0.170834 0.975964 0 0 0 0 255 255 255 255 
0.221286 0.767935 0 0 0 0 255 255 255 255 
0.00120431 0.275124 0 0 0 0 255 255 255 255 
0.2098 0.758552 0 0 0 0 255 255 255 255 
0.201768 0.848872 0 0 0 0 255 255 255 255 
0.058546 0.805118 0 0 0 0 255 255 255 255 
0.300686 0.108967 0 0 0 0 255 255 255 255 
0.07368 0.449607 0 0 0 0 255 255 255 255 
0.192074 0.69392 0 0 0 0 255 255 255 255 
0.479833 0.833625 0 0 0 0 255 255 255 255 
0.256719 0.737299 0 0 0 0 255 255 255 255 
0.814263 0.629317 0 0 0 0 255 255 255 255 
0.505633 0.492526 0 0 0 0 255 255 255 255 
0.728968 0.415814 0 0 0 0 255 255 255 255 
0.110827 0.35042 0 0 0 0 255 255 255 255 
0.474798 0.164738 0 0 0 0 255 255 255 255 
0.539163 0.71761 0 0 0 0 255 255 255 255 
0.699399 0.846808 0 0 0 0 255 255 255 255 
0.0643935 0.0916804 0 0 0 0 255 255 255 255 
0.461082 0.786772 0 0 0 0 255 255 255 255 
0.0361851 0.152919 0 0 0 0 255 255 255 255 
0.219029 0.512361 0 0 0 0 255 255 255 255 
0.21765 0.553976 0 0 0 0 255 255 255 255 
0.0238239 0.616754 0 0 0 0 255 255 255 255 
0.397377 0.333769 0 0 0 0 255 255 255 255 
0.966863 0.371477 0 0 0 0 255 255 255 255 
0.945206 0.414042 0 0 0 0 255 255 255 255 
0.17638 0.928618 0 0 0 0 255 255 255 255 
0.361996 0.377901 0 0 0 0 255 255 255 255 
0.962827 1.00252 0 0 0 0 255 255 255 255 
0.139175 0.759555 0 0 0 0 255 255 255 255 
0.836298 0.696773 0 0 0 0 255 255 255 255 
0.992057 0.539504 0 0 0 0 255 255 255 255 
0.672341 0.350238 0 0 0 0 255 255 255 255 
0.437263 0.0318329 0 0 0 0 255 255 255 255 
0.580122 0.979024 0 0 0 0 255 255 255 255 
0.289577 0.511533 0 0 0 0 255 255 255 255 
0.355417 -0.0049444 0 0 0 0 255 255 255 255 
0.204613 0.92304 0 0 0 0 255 255 255 255 
0.444097 0.104679 0 0 0 0 255 255 255 255 
0.636961 0.890117 0 0 0 0 255 255 255 255 
0.67252 0.458155 0 0 0 0 255 255 255 255 
0.166115 0.572642 0 0 0 0 255 255 255 255 
0.471275 0.661902 0 0 0 0 255 255 255 255 
0.395439 0.748918 0 0 0 0 255 255 255 255 
0.526402 0.628176 0 0 0 0 255 255 255 255 
0.262323 0.522854 0 0 0 0 255 255 255 255 
0.0423319 0.213179 0 0 0 0 255 255 255 255 
0.240328 0.686561 0 0 0 0 255 255 255 255 
0.76576 0.531298 0 0 0 0 255 255 255 255 
0.503499 0.0379908 0 0 0 0 255 255 255 255 
0.337787 0.874281 0 0 0 0 255 255 255 255 
0.930939 0.905068 0 0 0 0 255 255 255 255 
0.930814 0.146857 0 0 0 0 255 255 255 255 
0.153627 0.150586 0 0 0 0 255 255 255 255 
0.389674 0.509271 0 0 0 0 255 255 255 255 
0.955787 0.177906 0 0 0 0 255 255 255 255 
0.224144 0.840886 0 0 0 0 255 255 255 255 
0.348765 0.794944 0 0 0 0 255 255 255 255 
0.0681255 0.686338 0 0 0 0 255 255 255 255 
0.119762 0.658956 0 0 0 0 255 255 255 255 
0.385538 0.587532 0 0 0 0 255 255 255 255 
0.795723 0.788197 0 0 0 0 255 255 255 255 
0.428622 0.230595 0 0 0 0 255 255 255 255 
0.362112 0.420889 0 0 0 0 255 255 255 255 
0.375896 0.278616 0 0 0 0 255 255 255 255 
0.449481 0.380937 0 0 0 0 255 255 255 255 
0.674767 0.287147 0 0 0 0 255 255 255 255 
0.25404 0.156084 0 0 0 0 255 255 255 255 
0.155334 0.192477 0 0 0 0 255 255 255 255 
0.550232 0.600924 0 0 0 0 255 255 255 255 
0.00747053 0.877055 0 0 0 0 255 255 255 255 
0.028627 0.309453 0 0 0 0 255 255 255 255 
0.590758 0.831981 0 0 0 0 255 255 255 255 
0.0441619 0.183332 0 0 0 0 255 255 255 255 
0.25617 0.288842 0 0 0 0 255 255 255 255 
0.895678 0.676379 0 0 0 0 255 255 255 255 
0.511235 0.800111 0 0 0 0 255 255 255 255 
0.465716 0.0111383 0 0 0 0 255 255 255 255 
0.921389 0.36056 0 0 0 0 255 255 255 255 
0.354689 0.041431 0 0 0 0 255 255 255 255 
1.00059 0.369664 0 0 0 0 255 255 255 255 
0.0804826 0.487864 0 0 0 0 255 255 255 255 
0.212606 0.894219 0 0 0 0 255 255 255 255 
0.266028 0.0859765 0 0 0 0 255 255 255 255 
0.465028 0.619707 0 0 0 0 255 255 255 255 
0.929168 0.213842 0 0 0 0 255 255 255 255 
0.242572 0.518148 0 0 0 0 255 255 255 255 
0.606455 0.800959 0 0 0 0 255 255 255 255 
0.784616 0.385079 0 0 0 0 255 255 255 255 
0.0735705 0.762646 0 0 0 0 255 255 255 255 
0.218505 0.800424 0 0 0 0 255 255 255 255 
0.464404 0.85899 0 0 0 0 255 255 255 255 
0.732266 0.246118 0 0 0 0 255 255 255 255 
0.0519697 0.66276 0 0 0 0 255 255 255 255 
0.401739 0.137386 0 0 0 0 255 255 255 255 
0.587574 0.867228 0 0 0 0 255 255 255 255 
0.402727 0.66265 0 0 0 0 255 255 255 255 
0.472188 0.491597 0 0 0 0 255 255 255 255 
0.156447 0.316786 0 0 0 0 255 255 255 255 
0.404998 0.364247 0 0 0 0 255 255 255 255 
0.661822 0.263598 0 0 0 0 255 255 255 255 
0.733146 0.871573 0 0 0 0 255 255 255 255 
0.45536 0.559023 0 0 0 0 255 255 255 255 
0.307586 0.633598 0 0 0 0 255 255 255 255 
0.703067 0.290654 0 0 0 0 255 255 255 255 
0.481065 0.419824 0 0 0 0 255 255 255 255 
0.0145032 0.523291 0 0 0 0 255 255 255 255 
0.529048 0.212076 0 0 0 0 255 255 255 255 
0.434785 0.0128143 0 0 0 0 255 255 255 255 
0.156829 0.965497 0 0 0 0 255 255 255 255 
0.315925 0.664803 0 0 0 0 255 255 255 255 
0.088627 0.325494 0 0 0 0 255 255 255 255 
0.633342 0.521867 0 0 0 0 255 255 255 255 
0.158726 0.775061 0 0 0 0 255 255 255 255 
0.055766 0.169688 0 0 0 0 255 255 255 255 
0.248811 0.478448 0 0 0 0 255 255 255 255 
0.403258 0.812316 0 0 0 0 255 255 255 255 
0.460839 0.320561 0 0 0 0 255 255 255 255 
0.846939 0.341882 0 0 0 0 255 255 255 255 
0.944426 0.116047 0 0 0 0 255 255 255 255 
0.407338 0.201107 0 0 0 0 255 255 255 255 
0.0432329 0.427052 0 0 0 0 255 255 255 255 
0.693668 0.26134 0 0 0 0 255 255 255 255 
0.0939311 0.709906 0 0 0 0 255 255 255 255 
0.233404 0.0898836 0 0 0 0 255 255 255 255 
0.421636 0.558373 0 0 0 0 255 255 255 255 
0.340795 0.447845 0 0 0 0 255 255 255 255 
0.221809 0.474489 0 0 0 0 255 255 255 255 
0.441079 0.489063 0 0 0 0 255 255 255 255 
0.0319091 0.271086 0 0 0 0 255 255 255 255 
0.256551 0.844854 0 0 0 0 255 255 255 255 
0.925373 0.935505 0 0 0 0 255 255 255 255 
0.11361 0.694671 0 0 0 0 255 255 255 255 
0.552967 0.986928 0 0 0 0 255 255 255 255 
0.653968 0.181407 0 0 0 0 255 255 255 255 
0.242083 0.0519669 0 0 0 0 255 255 255 255 
0.0753263 0.50356 0 0 0 0 255 255 255 255 
0.0340465 0.643824 0 0 0 0 255 255 255 255 
0.3523 0.501175 0 0 0 0 255 255 255 255 
0.485755 0.938257 0 0 0 0 255 255 255 255 
0.0311619 0.322275 0 0 0 0 255 255 255 255 
0.546777 0.404443 0 0 0 0 255 255 255 255 
0.30194 0.49875 0 0 0 0 255 255 255 255 
0.274322 0.762136 0 0 0 0 255 255 255 255 
0.288353 0.936962 0 0 0 0 255 255 255 255 
0.171653 0.883756 0 0 0 0 255 255 255 255 
0.167775 0.206112 0 0 0 0 255 255 255 255 
0.112457 0.326256 0 0 0 0 255 255 255 255 
0.0968284 0.348652 0 0 0 0 255 255 255 255 
0.165599 0.688401 0 0 0 0 255 255 255 255 
0.00404164 0.544919 0 0 0 0 255 255 255 255 
0.130129 0.327062 0 0 0 0 255 255 255 255 
0.30435 0.0183633 0 0 0 0 255 255 255 255 
0.204072 0.133264 0 0 0 0 255 255 255 255 
0.580416 0.192901 0 0 0 0 255 255 255 255 
0.651908 0.562124 0 0 0 0 255 255 255 255 
0.528167 0.917689 0 0 0 0 255 255 255 255 
0.19186 0.757633 0 0 0 0 255 255 255 255 
0.768104 0.916632 0 0 0 0 255 255 255 255 
0.578093 0.139317 0 0 0 0 255 255 255 255 
0.182439 0.725406 0 0 0 0 255 255 255 255 
0.213758 0.366123 0 0 0 0 255 255 255 255 
0.116392 0.272392 0 0 0 0 255 255 255 255 
0.327009 0.1861 0 0 0 0 255 255 255 255 
0.908024 0.383069 0 0 0 0 255 255 255 255 
0.0875596 0.851001 0 0 0 0 255 255 255 255 
0.105473 0.402071 0 0 0 0 255 255 255 255 
0.257333 0.50422 0 0 0 0 255 255 255 255 
0.479882 0.668483 0 0 0 0 255 255 255 255 
0.125372 0.355833 0 0 0 0 255 255 255 255 
0.0721553 0.236462 0 0 0 0 255 255 255 255 
0.257202 0.568257 0 0 0 0 255 255 255 255 
0.63455 0.284215 0 0 0 0 255 255 255 255 
0.594104 0.490086 0 0 0 0 255 255 255 255 
0.093239 0.124853 0 0 0 0 255 255 255 255 
0.890857 0.173052 0 0 0 0 255 255 255 255 
0.0676168 0.342005 0 0 0 0 255 255 255 255 
0.42753 0.763462 0 0 0 0 255 255 255 255 
0.191623 0.959406 0 0 0 0 255 255 255 255 
0.343968 0.355705 0 0 0 0 255 255 255 255 
0.456907 0.955848 0 0 0 0 255 255 255 255 
0.436789 0.0694686 0 0 0 0 255 255 255 255 
0.0724424 0.921705 0 0 0 0 255 255 255 255 
0.78132 0.727913 0 0 0 0 255 255 255 255 
0.405043 0.969466 0 0 0 0 255 255 255 255 
0.517911 0.545824 0 0 0 0 255 255 255 255 
0.233601 0.0660158 0 0 0 0 255 255 255 255 
0.429921 0.33801 0 0 0 0 255 255 255 255 
0.325022 0.229799 0 0 0 0 255 255 255 255 
0.0262235 0.256874 0 0 0 0 255 255 255 255 
0.257009 0.533301 0 0 0 0 255 255 255 255 
0.478461 0.783462 0 0 0 0 255 255 255 255 
0.90073 0.285417 0 0 0 0 255 255 255 255 
0.201695 0.584438 0 0 0 0 255 255 255 255 
0.115765 0.513182 0 0 0 0 255 255 255 255 
0.893276 0.848865 0 0 0 0 255 255 255 255 
0.187478 0.250794 0 0 0 0 255 255 255 255 
0.385686 0.979406 0 0 0 0 255 255 255 255 
0.261716 0.820554 0 0 0 0 255 255 255 255 
0.967036 0.205844 0 0 0 0 255 255 255 255 
0.0874628 0.567154 0 0 0 0 255 255 255 255 
0.385724 0.217206 0 0 0 0 255 255 255 255 
0.377057 0.495617 0 0 0 0 255 255 255 255 
0.116575 0.831267 0 0 0 0 255 255 255 255 
0.699921 0.325691 0 0 0 0 255 255 255 255 
0.289203 0.102663 0 0 0 0 255 255 255 255 
0.307673 0.423358 0 0 0 0 255 255 255 255 
0.251234 0.152799 0 0 0 0 255 255 255 255 
0.461944 0.289555 0 0 0 0 255 255 255 255 
0.235508 0.981548 0 0 0 0 255 255 255 255 
0.0989737 0.736717 0 0 0 0 255 255 255 255 
0.0862645 0.175816 0 0 0 0 255 255 255 255 
0.323284 0.391451 0 0 0 0 255 255 255 255 
0.340707 0.970282 0 0 0 0 255 255 255 255 
0.697798 0.379179 0 0 0 0 255 255 255 255 
0.46629 0.305715 0 0 0 0 255 255 255 255 
0.410347 0.495884 0 0 0 0 255 255 255 255 
0.606414 0.409494 0 0 0 0 255 255 255 255 
0.435476 0.626587 0 0 0 0 255 255 255 255 
0.0983911 0.537733 0 0 0 0 255 255 255 255 
0.877451 0.586462 0 0 0 0 255 255 255 255 
0.479417 0.0884487 0 0 0 0 255 255 255 255 
0.421584 0.283951 0 0 0 0 255 255 255 255 
0.474822 0.103889 0 0 0 0 255 255 255 255 
0.311481 0.85912 0 0 0 0 255 255 255 255 
0.994247 0.583361 0 0 0 0 255 255 255 255 
0.0475648 0.0587682 0 0 0 0 255 255 255 255 
0.497977 0.129016 0 0 0 0 255 255 255 255 
0.343278 0.101844 0 0 0 0 255 255 255 255 
0.819486 0.384349 0 0 0 0 255 255 255 255 
0.46851 0.71078 0 0 0 0 255 255 255 255 
1.00477 0.869716 0 0 0 0 255 255 255 255 
0.817517 0.893036 0 0 0 0 255 255 255 255 
0.231297 0.654733 0 0 0 0 255 255 255 255 
0.44333 0.854478 0 0 0 0 255 255 255 255 
0.375203 0.14613 0 0 0 0 255 255 255 255 
0.482101 0.0605269 0 0 0 0 255 255 255 255 
0.731931 0.15047 0 0 0 0 255 255 255 255 
0.412349 0.785465 0 0 0 0 255 255 255 255 
0.305175 0.731169 0 0 0 0 255 255 255 255 
0.456387 0.669086 0 0 0 0 255 255 255 255 
0.101755 0.260334 0 0 0 0 255 255 255 255 
0.380817 0.885601 0 0 0 0 255 255 255 255 
0.0249487 0.121291 0 0 0 0 255 255 255 255 
0.347141 0.275771 0 0 0 0 255 255 255 255 
0.343578 0.932279 0 0 0 0 255 255 255 255 
0.0145324 0.795233 0 0 0 0 255 255 255 255 
0.104328 0.763148 0 0 0 0 255 255 255 255 
0.179547 0.83685 0 0 0 0 255 255 255 255 
0.0594747 0.926487 0 0 0 0 255 255 255 255 
0.233329 0.0837573 0 0 0 0 255 255 255 255 
0.512269 0.0572025 0 0 0 0 255 255 255 255 
0.531633 0.673103 0 0 0 0 255 255 255 255 
0.462398 0.03646 0 0 0 0 255 255 255 255 
0.682691 1.0128 0 0 0 0 255 255 255 255 
0.102372 1.00736 0 0 0 0 255 255 255 255 
0.745831 0.950708 0 0 0 0 255 255 255 255 
0.0906192 0.162132 0 0 0 0 255 255 255 255 
0.197357 0.903621 0 0 0 0 255 255 255 255 
0.97714 0.348555 0 0 0 0 255 255 255 255 
0.682467 0.02096 0 0 0 0 255 255 255 255 
0.312683 0.357032 0 0 0 0 255 255 255 255 
0.102311 0.282269 0 0 0 0 255 255 255 255 
0.349708 0.33729 0 0 0 0 255 255 255 255 
0.497965 0.280211 0 0 0 0 255 255 255 255 
0.804173 0.972011 0 0 0 0 255 255 255 255 
0.742481 0.0723752 0 0 0 0 255 255 255 255 
0.569105 0.604142 0 0 0 0 255 255 255 255 
0.645526 0.773803 0 0 0 0 255 255 255 255 
0.284881 0.973678 0 0 0 0 255 255 255 255 
0.967076 0.956783 0 0 0 0 255 255 255 255 
0.241744 0.34802 0 0 0 0 255 255 255 255 
0.00647312 0.909184 0 0 0 0 255 255 255 255 
0.00401869 0.830596 0 0 0 0 255 255 255 255 
0.698776 0.944022 0 0 0 0 255 255 255 255 
0.805158 0.100131 0 0 0 0 255 255 255 255 
0.161043 0.527973 0 0 0 0 255 255 255 255 
0.302049 0.514118 0 0 0 0 255 255 255 255 
0.691066 0.477123 0 0 0 0 255 255 255 255 
0.244344 0.29232 0 0 0 0 255 255 255 255 
0.317604 0.547635 0 0 0 0 255 255 255 255 
0.295053 0.181688 0 0 0 0 255 255 255 255 
0.458071 0.527303 0 0 0 0 255 255 255 255 
0.262161 0.365341 0 0 0 0 255 255 255 255 
0.361283 0.397364 0 0 0 0 255 255 255 255 
0.596452 0.253626 0 0 0 0 255 255 255 255 
0.0136091 0.410508 0 0 0 0 255 255 255 255 
0.17328 0.753293 0 0 0 0 255 255 255 255 
0.289675 0.900082 0 0 0 0 255 255 255 255 
0.36804 0.459029 0 0 0 0 255 255 255 255 
0.402737 0.0553777 0 0 0 0 255 255 255 255 
0.19849 0.420434 0 0 0 0 255 255 255 255 
0.254517 0.264929 0 0 0 0 255 255 255 255 
1.00238 0.140698 0 0 0 0 255 255 255 255 
0.276849 0.161175 0 0 0 0 255 255 255 255 
0.586712 0.0813731 0 0 0 0 255 255 255 255 
0.445074 0.737966 0 0 0 0 255 255 255 255 
0.0955573 0.793713 0 0 0 0 255 255 255 255 
0.172394 0.333679 0 0 0 0 255 255 255 255 
0.376163 0.36691 0 0 0 0 255 255 255 255 
0.399589 0.950281 0 0 0 0 255 255 255 255 
0.0139076 0.474412 0 0 0 0 255 255 255 255 
0.765258 0.170819 0 0 0 0 255 255 255 255 
0.908795 0.0236062 0 0 0 0 255 255 255 255 
0.368682 0.816154 0 0 0 0 255 255 255 255 
0.204365 0.29274 0 0 0 0 255 255 255 255 
0.318467 0.815968 0 0 0 0 255 255 255 255 
0.193784 0.187399 0 0 0 0 255 255 255 255 
0.00926538 0.258873 0 0 0 0 255 255 255 255 
0.339476 0.568999 0 0 0 0 255 255 255 255 
0.0875554 0.393934 0 0 0 0 255 255 255 255 
0.11717 0.599032 0 0 0 0 255 255 255 255 
0.422968 0.630608 0 0 0 0 255 255 255 255 
-0.0101346 0.965199 0 0 0 0 255 255 255 255 
0.541775 0.17525 0 0 0 0 255 255 255 255 
0.390158 0.422699 0 0 0 0 255 255 255 255 
0.39559 0.541967 0 0 0 0 255 255 255 255 
0.0578639 0.89734 0 0 0 0 255 255 255 255 
0.0259181 0.171433 0 0 0 0 255 255 255 255 
0.0347766 0.530734 0 0 0 0 255 255 255 255 
0.276997 0.183754 0 0 0 0 255 255 255 255 
0.629954 0.420335 0 0 0 0 255 255 255 255 
0.257815 0.722806 0 0 0 0 255 255 255 255 
0.334616 0.299834 0 0 0 0 255 255 255 255 
0.413177 0.604651 0 0 0 0 255 255 255 255 
0.233662 0.331955 0 0 0 0 255 255 255 255 
0.188582 0.780879 0 0 0 0 255 255 255 255 
0.370235 0.908639 0 0 0 0 255 255 255 255 
0.132203 0.634384 0 0 0 0 255 255 255 255 
0.220192 0.72874 0 0 0 0 255 255 255 255 
0.257051 0.799152 0 0 0 0 255 255 255 255 
0.0162358 0.92136 0 0 0 0 255 255 255 255 
0.768012 -0.00825514 0 0 0 0 255 255 255 255 
0.946427 0.857739 0 0 0 0 255 255 255 255 
0.502099 0.244433 0 0 0 0 255 255 255 255 
0.709152 0.556458 0 0 0 0 255 255 255 255 
0.315725 0.615438 0 0 0 0 255 255 255 255 
0.704261 0.598584 0 0 0 0 255 255 255 255 
0.404715 0.630279 0 0 0 0 255 255 255 255 
0.17624 0.0965201 0 0 0 0 255 255 255 255 
0.327447 0.0429251 0 0 0 0 255 255 255 255 
0.153954 0.46564 0 0 0 0 255 255 255 255 
0.381023 0.353574 0 0 0 0 255 255 255 255 
0.916764 0.321859 0 0 0 0 255 255 255 255 
0.160099 0.553749 0 0 0 0 255 255 255 255 
0.424353 0.41531 0 0 0 0 255 255 255 255 
0.239025 0.305738 0 0 0 0 255 255 255 255 
0.366537 0.884272 0 0 0 0 255 255 255 255 
0.176519 0.77413 0 0 0 0 255 255 255 255 
0.442055 0.795011 0 0 0 0 255 255 255 255 
0.323114 0.910091 0 0 0 0 255 255 255 255 
0.694257 0.226735 0 0 0 0 255 255 255 255 
0.403638 0.671179 0 0 0 0 255 255 255 255 
0.253745 0.623364 0 0 0 0 255 255 255 255 
0.878835 0.503628 0 0 0 0 255 255 255 255 
0.419208 0.904757 0 0 0 0 255 255 255 255 
0.109851 0.375294 0 0 0 0 255 255 255 255 
0.375119 0.61192 0 0 0 0 255 255 255 255 
0.48299 0.119222 0 0 0 0 255 255 255 255 
0.299534 0.28691 0 0 0 0 255 255 255 255 
0.414975 0.0421997 0 0 0 0 255 255 255 255 
0.679452 0.67904 0 0 0 0 255 255 255 255 
0.187752 0.54453 0 0 0 0 255 255 255 255 
0.237778 0.72044 0 0 0 0 255 255 255 255 
0.298276 1.00043 0 0 0 0 255 255 255 255 
0.0567479 0.252279 0 0 0 0 255 255 255 255 
0.67227 0.843776 0 0 0 0 255 255 255 255 
0.166259 0.906935 0 0 0 0 255 255 255 255 
0.103573 0.849786 0 0 0 0 255 255 255 255 
0.152908 0.291081 0 0 0 0 255 255 255 255 
0.133623 0.548173 0 0 0 0 255 255 255 255 
0.243338 0.69476 0 0 0 0 255 255 255 255 
0.0856632 0.45607 0 0 0 0 255 255 255 255 
0.137584 0.99117 0 0 0 0 255 255 255 255 
0.393914 0.106287 0 0 0 0 255 255 255 255 
0.300007 0.966621 0 0 0 0 255 255 255 255 
0.00709367 0.096157 0 0 0 0 255 255 255 255 
0.267128 0.706501 0 0 0 0 255 255 255 255 
0.664399 0.248457 0 0 0 0 255 255 255 255 
0.190037 0.222568 0 0 0 0 255 255 255 255 
0.322172 0.601782 0 0 0 0 255 255 255 255 
0.103507 0.573229 0 0 0 0 255 255 255 255 
0.30873 0.580778 0 0 0 0 255 255 255 255 
0.464805 0.26374 0 0 0 0 255 255 255 255 
0.771517 0.843941 0 0 0 0 255 255 255 255 
0.245369 0.119852 0 0 0 0 255 255 255 255 
0.544522 0.79276 0 0 0 0 255 255 255 255 
0.234135 0.934021 0 0 0 0 255 255 255 255 
0.449086 0.940836 0 0 0 0 255 255 255 255 
0.220462 0.417226 0 0 0 0 255 255 255 255 
0.261247 0.342842 0 0 0 0 255 255 255 255 
0.51449 0.305668 0 0 0 0 255 255 255 255 
0.438247 0.664127 0 0 0 0 255 255 255 255 
0.290717 0.415132 0 0 0 0 255 255 255 255 
0.0534394 0.560456 0 0 0 0 255 255 255 255 
0.302803 0.837998 0 0 0 0 255 255 255 255 
0.0128454 0.503809 0 0 0 0 255 255 255 255 
0.39614 0.0870005 0 0 0 0 255 255 255 255 
0.621515 0.744512 0 0 0 0 255 255 255 255 
0.254102 0.78123 0 0 0 0 255 255 255 255 
0.755048 0.601742 0 0 0 0 255 255 255 255 
0.227523 0.270947 0 0 0 0 255 255 255 255 
0.473438 0.674675 0 0 0 0 255 255 255 255 
0.383537 0.166031 0 0 0 0 255 255 255 255 
0.823188 0.352445 0 0 0 0 255 255 255 255 
0.434575 0.644337 0 0 0 0 255 255 255 255 
0.52936 0.32423 0 0 0 0 255 255 255 255 
0.0637735 0.286562 0 0 0 0 255 255 255 255 
0.139081 0.502316 0 0 0 0 255 255 255 255 
0.338844 0.775565 0 0 0 0 255 255 255 255 
0.115472 0.231759 0 0 0 0 255 255 255 255 
0.922602 0.580625 0 0 0 0 255 255 255 255 
0.92739 0.673496 0 0 0 0 255 255 255 255 
0.370333 0.928721 0 0 0 0 255 255 255 255 
0.421219 0.467489 0 0 0 0 255 255 255 255 
0.140295 0.384753 0 0 0 0 255 255 255 255 
0.276643 0.506103 0 0 0 0 255 255 255 255 
0.542149 0.101018 0 0 0 0 255 255 255 255 
0.220749 0.167676 0 0 0 0 255 255 255 255 
0.390748 0.47328 0 0 0 0 255 255 255 255 
0.996604 0.468713 0 0 0 0 255 255 255 255 
0.547272 0.763435 0 0 0 0 255 255 255 255 
0.377881 0.724521 0 0 0 0 255 255 255 255 
0.647236 0.827188 0 0 0 0 255 255 255 255 
0.00694204 0.358679 0 0 0 0 255 255 255 255 
0.0870418 0.736437 0 0 0 0 255 255 255 255 
0.0407464 0.225485 0 0 0 0 255 255 255 255 
0.257864 0.913087 0 0 0 0 255 255 255 255 
0.366477 0.511021 0 0 0 0 255 255 255 255 
0.773683 0.254818 0 0 0 0 255 255 255 255 
0.524099 0.358982 0 0 0 0 255 255 255 255 
0.71625 0.64612 0 0 0 0 255 255 255 255 
0.99005 0.508589 0 0 0 0 255 255 255 255 
0.49486 0.626759 0 0 0 0 255 255 255 255 
0.267039 0.594699 0 0 0 0 255 255 255 255 
0.3344 0.422247 0 0 0 0 255 255 255 255 
0.594702 0.36694 0 0 0 0 255 255 255 255 
0.894712 0.247654 0 0 0 0 255 255 255 255 
0.456478 0.403622 0 0 0 0 255 255 255 255 
0.00183349 0.718317 0 0 0 0 255 255 255 255 
0.0633457 0.381383 0 0 0 0 255 255 255 255 
0.0343652 0.0821816 0 0 0 0 255 255 255 255 
0.475733 0.274398 0 0 0 0 255 255 255 255 
0.67633 0.507441 0 0 0 0 255 255 255 255 
0.266975 0.102839 0 0 0 0 255 255 255 255 
0.883841 0.454141 0 0 0 0 255 255 255 255 
0.239758 0.232859 0 0 0 0 255 255 255 255 
0.258607 0.0212885 0 0 0 0 255 255 255 255 
0.939222 0.735773 0 0 0 0 255 255 255 255 
0.895255 0.713548 0 0 0 0 255 255 255 255 
0.360866 0.700986 0 0 0 0 255 255 255 255 
0.267632 0.489701 0 0 0 0 255 255 255 255 
0.812216 0.136538 0 0 0 0 255 255 255 255 
0.300908 0.798523 0 0 0 0 255 255 255 255 
0.366726 0.951748 0 0 0 0 255 255 255 255 
0.268335 0.872676 0 0 0 0 255 255 255 255 
0.0676052 0.818485 0 0 0 0 255 255 255 255 
0.478453 0.972755 0 0 0 0 255 255 255 255 
0.226871 0.362327 0 0 0 0 255 255 255 255 
0.0869645 0.517306 0 0 0 0 255 255 255 255 
0.682471 0.320613 0 0 0 0 255 255 255 255 
0.489116 0.866201 0 0 0 0 255 255 255 255 
0.287486 0.398808 0 0 0 0 255 255 255 255 
0.827783 1.01399 0 0 0 0 255 255 255 255 
0.422158 0.158907 0 0 0 0 255 255 255 255 
0.490093 0.528028 0 0 0 0 255 255 255 255 
0.993805 0.273118 0 0 0 0 255 255 255 255 
0.0147556 0.337857 0 0 0 0 255 255 255 255 
0.0921862 0.0754276 0 0 0 0 255 255 255 255 
0.15592 0.794221 0 0 0 0 255 255 255 255 
0.41372 0.114353 0 0 0 0 255 255 255 255 
0.411813 0.00772566 0 0 0 0 255 255 255 255 
0.38456 0.33935 0 0 0 0 255 255 255 255 
0.40717 0.317415 0 0 0 0 255 255 255 255 
0.794846 0.300158 0 0 0 0 255 255 255 255 
0.031381 0.760894 0 0 0 0 255 255 255 255 
0.885171 0.629575 0 0 0 0 255 255 255 255 
0.243358 0.188766 0 0 0 0 255 255 255 255 
0.0794993 0.639621 0 0 0 0 255 255 255 255 
0.000390186 0.489042 0 0 0 0 255 255 255 255 
