ply
format ascii 1.0
comment Created by Blender 2.80 (sub 75) - www.blender.org, source file: ''
element vertex 120
property float x
property float y
property float z
property float nx
property float ny
property float nz
property float s
property float t
element face 76
property list uchar uint vertex_indices
end_header
0.000000 0.720000 -1.000000 0.156434 0.987688 0.000000 1.000000 0.500000
0.000000 0.720000 1.000000 0.156434 0.987688 0.000000 1.000000 1.000000
0.222492 0.684761 1.000000 0.156434 0.987688 0.000000 0.950000 1.000000
0.222492 0.684761 -1.000000 0.156434 0.987688 -0.000000 0.950000 0.500000
0.222492 0.684761 -1.000000 0.453991 0.891006 0.000000 0.950000 0.500000
0.222492 0.684761 1.000000 0.453991 0.891006 0.000000 0.950000 1.000000
0.423205 0.582492 1.000000 0.453991 0.891006 0.000000 0.900000 1.000000
0.423205 0.582492 -1.000000 0.453991 0.891006 -0.000000 0.900000 0.500000
0.423205 0.582492 -1.000000 0.707107 0.707107 0.000000 0.900000 0.500000
0.423205 0.582492 1.000000 0.707107 0.707107 0.000000 0.900000 1.000000
0.582492 0.423205 1.000000 0.707107 0.707107 0.000000 0.850000 1.000000
0.582492 0.423205 -1.000000 0.707107 0.707107 -0.000000 0.850000 0.500000
0.582492 0.423205 -1.000000 0.891006 0.453991 0.000000 0.850000 0.500000
0.582492 0.423205 1.000000 0.891006 0.453991 0.000000 0.850000 1.000000
0.684761 0.222492 1.000000 0.891006 0.453991 0.000000 0.800000 1.000000
0.684761 0.222492 -1.000000 0.891006 0.453991 -0.000000 0.800000 0.500000
0.684761 0.222492 -1.000000 0.987688 0.156434 0.000000 0.800000 0.500000
0.684761 0.222492 1.000000 0.987688 0.156434 0.000000 0.800000 1.000000
0.720000 -0.000000 1.000000 0.987688 0.156434 0.000000 0.750000 1.000000
0.720000 -0.000000 -1.000000 0.987688 0.156434 -0.000000 0.750000 0.500000
0.720000 -0.000000 -1.000000 0.987688 -0.156435 0.000000 0.750000 0.500000
0.720000 -0.000000 1.000000 0.987688 -0.156435 0.000000 0.750000 1.000000
0.684761 -0.222492 1.000000 0.987688 -0.156435 0.000000 0.700000 1.000000
0.684761 -0.222492 -1.000000 0.987688 -0.156435 0.000000 0.700000 0.500000
0.684761 -0.222492 -1.000000 0.891006 -0.453991 0.000000 0.700000 0.500000
0.684761 -0.222492 1.000000 0.891006 -0.453991 0.000000 0.700000 1.000000
0.582492 -0.423205 1.000000 0.891006 -0.453991 0.000000 0.650000 1.000000
0.582492 -0.423205 -1.000000 0.891006 -0.453991 0.000000 0.650000 0.500000
0.582492 -0.423205 -1.000000 0.707107 -0.707107 0.000000 0.650000 0.500000
0.582492 -0.423205 1.000000 0.707107 -0.707107 0.000000 0.650000 1.000000
0.423205 -0.582492 1.000000 0.707107 -0.707107 0.000000 0.600000 1.000000
0.423205 -0.582492 -1.000000 0.707107 -0.707107 0.000000 0.600000 0.500000
0.423205 -0.582492 -1.000000 0.453990 -0.891007 0.000000 0.600000 0.500000
0.423205 -0.582492 1.000000 0.453990 -0.891007 0.000000 0.600000 1.000000
0.222492 -0.684761 1.000000 0.453990 -0.891007 0.000000 0.550000 1.000000
0.222492 -0.684761 -1.000000 0.453990 -0.891007 0.000000 0.550000 0.500000
0.222492 -0.684761 -1.000000 0.156434 -0.987688 0.000000 0.550000 0.500000
0.222492 -0.684761 1.000000 0.156434 -0.987688 0.000000 0.550000 1.000000
-0.000000 -0.720000 1.000000 0.156434 -0.987688 0.000000 0.500000 1.000000
-0.000000 -0.720000 -1.000000 0.156434 -0.987688 0.000000 0.500000 0.500000
-0.000000 -0.720000 -1.000000 -0.156435 -0.987688 -0.000000 0.500000 0.500000
-0.000000 -0.720000 1.000000 -0.156435 -0.987688 -0.000000 0.500000 1.000000
-0.222493 -0.684761 1.000000 -0.156435 -0.987688 -0.000000 0.450000 1.000000
-0.222493 -0.684761 -1.000000 -0.156435 -0.987688 0.000000 0.450000 0.500000
-0.222493 -0.684761 -1.000000 -0.453991 -0.891006 -0.000000 0.450000 0.500000
-0.222493 -0.684761 1.000000 -0.453991 -0.891006 -0.000000 0.450000 1.000000
-0.423206 -0.582492 1.000000 -0.453991 -0.891006 -0.000000 0.400000 1.000000
-0.423206 -0.582492 -1.000000 -0.453991 -0.891006 0.000000 0.400000 0.500000
-0.423206 -0.582492 -1.000000 -0.707107 -0.707106 -0.000000 0.400000 0.500000
-0.423206 -0.582492 1.000000 -0.707107 -0.707106 -0.000000 0.400000 1.000000
-0.582493 -0.423205 1.000000 -0.707107 -0.707106 -0.000000 0.350000 1.000000
-0.582493 -0.423205 -1.000000 -0.707107 -0.707106 0.000000 0.350000 0.500000
-0.582493 -0.423205 -1.000000 -0.891007 -0.453990 -0.000000 0.350000 0.500000
-0.582493 -0.423205 1.000000 -0.891007 -0.453990 -0.000000 0.350000 1.000000
-0.684761 -0.222492 1.000000 -0.891007 -0.453990 -0.000000 0.300000 1.000000
-0.684761 -0.222492 -1.000000 -0.891007 -0.453990 0.000000 0.300000 0.500000
-0.684761 -0.222492 -1.000000 -0.987689 -0.156433 -0.000000 0.300000 0.500000
-0.684761 -0.222492 1.000000 -0.987689 -0.156433 -0.000000 0.300000 1.000000
-0.720000 0.000001 1.000000 -0.987689 -0.156433 -0.000000 0.250000 1.000000
-0.720000 0.000001 -1.000000 -0.987689 -0.156433 0.000000 0.250000 0.500000
-0.720000 0.000001 -1.000000 -0.987688 0.156436 0.000000 0.250000 0.500000
-0.720000 0.000001 1.000000 -0.987688 0.156436 0.000000 0.250000 1.000000
-0.684761 0.222493 1.000000 -0.987688 0.156436 0.000000 0.200000 1.000000
-0.684761 0.222493 -1.000000 -0.987688 0.156436 0.000000 0.200000 0.500000
-0.684761 0.222493 -1.000000 -0.891006 0.453991 0.000000 0.200000 0.500000
-0.684761 0.222493 1.000000 -0.891006 0.453991 0.000000 0.200000 1.000000
-0.582492 0.423206 1.000000 -0.891006 0.453991 0.000000 0.150000 1.000000
-0.582492 0.423206 -1.000000 -0.891006 0.453991 0.000000 0.150000 0.500000
-0.582492 0.423206 -1.000000 -0.707106 0.707108 0.000000 0.150000 0.500000
-0.582492 0.423206 1.000000 -0.707106 0.707108 0.000000 0.150000 1.000000
-0.423205 0.582493 1.000000 -0.707106 0.707108 0.000000 0.100000 1.000000
-0.423205 0.582493 -1.000000 -0.707106 0.707108 0.000000 0.100000 0.500000
0.423205 0.582492 1.000000 0.000000 0.000000 1.000000 0.391068 0.444164
0.222492 0.684761 1.000000 0.000000 0.000000 1.000000 0.324164 0.478254
0.000000 0.720000 1.000000 0.000000 0.000000 1.000000 0.250000 0.490000
-0.222491 0.684761 1.000000 0.000000 0.000000 1.000000 0.175836 0.478254
-0.423205 0.582493 1.000000 0.000000 0.000000 1.000000 0.108932 0.444164
-0.582492 0.423206 1.000000 0.000000 0.000000 1.000000 0.055836 0.391069
-0.684761 0.222493 1.000000 0.000000 0.000000 1.000000 0.021747 0.324164
-0.720000 0.000001 1.000000 0.000000 -0.000000 1.000000 0.010000 0.250000
-0.684761 -0.222492 1.000000 0.000000 -0.000000 1.000000 0.021746 0.175836
-0.582493 -0.423205 1.000000 0.000000 0.000000 1.000000 0.055836 0.108932
-0.423206 -0.582492 1.000000 0.000000 0.000000 1.000000 0.108931 0.055836
-0.222493 -0.684761 1.000000 0.000000 0.000000 1.000000 0.175836 0.021746
-0.000000 -0.720000 1.000000 0.000000 0.000000 1.000000 0.250000 0.010000
0.222492 -0.684761 1.000000 0.000000 0.000000 1.000000 0.324164 0.021746
0.423205 -0.582492 1.000000 0.000000 0.000000 1.000000 0.391068 0.055836
0.582492 -0.423205 1.000000 0.000000 0.000000 1.000000 0.444164 0.108932
0.684761 -0.222492 1.000000 0.000000 0.000000 1.000000 0.478254 0.175836
0.720000 -0.000000 1.000000 0.000000 0.000000 1.000000 0.490000 0.250000
0.684761 0.222492 1.000000 0.000000 0.000000 1.000000 0.478254 0.324164
0.582492 0.423205 1.000000 0.000000 0.000000 1.000000 0.444164 0.391068
-0.423205 0.582493 -1.000000 -0.453989 0.891007 0.000000 0.100000 0.500000
-0.423205 0.582493 1.000000 -0.453989 0.891007 0.000000 0.100000 1.000000
-0.222491 0.684761 1.000000 -0.453989 0.891007 0.000000 0.050000 1.000000
-0.222491 0.684761 -1.000000 -0.453989 0.891007 0.000000 0.050000 0.500000
-0.222491 0.684761 -1.000000 -0.156434 0.987688 0.000000 0.050000 0.500000
-0.222491 0.684761 1.000000 -0.156434 0.987688 0.000000 0.050000 1.000000
0.000000 0.720000 1.000000 -0.156434 0.987688 0.000000 -0.000000 1.000000
0.000000 0.720000 -1.000000 -0.156434 0.987688 0.000000 -0.000000 0.500000
-0.222491 0.684761 -1.000000 -0.000000 0.000000 -1.000000 0.675836 0.478254
0.000000 0.720000 -1.000000 -0.000000 0.000000 -1.000000 0.750000 0.490000
0.222492 0.684761 -1.000000 -0.000000 0.000000 -1.000000 0.824164 0.478254
0.423205 0.582492 -1.000000 0.000000 0.000000 -1.000000 0.891068 0.444164
0.582492 0.423205 -1.000000 0.000000 0.000000 -1.000000 0.944164 0.391068
0.684761 0.222492 -1.000000 0.000000 0.000000 -1.000000 0.978254 0.324164
0.720000 -0.000000 -1.000000 0.000000 0.000000 -1.000000 0.990000 0.250000
0.684761 -0.222492 -1.000000 0.000000 0.000000 -1.000000 0.978254 0.175836
0.582492 -0.423205 -1.000000 0.000000 0.000000 -1.000000 0.944164 0.108932
0.423205 -0.582492 -1.000000 0.000000 0.000000 -1.000000 0.891068 0.055836
0.222492 -0.684761 -1.000000 0.000000 0.000000 -1.000000 0.824164 0.021746
-0.000000 -0.720000 -1.000000 0.000000 0.000000 -1.000000 0.750000 0.010000
-0.222493 -0.684761 -1.000000 0.000000 0.000000 -1.000000 0.675836 0.021746
-0.423206 -0.582492 -1.000000 0.000000 0.000000 -1.000000 0.608931 0.055836
-0.582493 -0.423205 -1.000000 0.000000 0.000000 -1.000000 0.555836 0.108932
-0.684761 -0.222492 -1.000000 0.000000 0.000000 -1.000000 0.521746 0.175836
-0.720000 0.000001 -1.000000 0.000000 0.000000 -1.000000 0.510000 0.250000
-0.684761 0.222493 -1.000000 0.000000 0.000000 -1.000000 0.521747 0.324164
-0.582492 0.423206 -1.000000 0.000000 0.000000 -1.000000 0.555836 0.391069
-0.423205 0.582493 -1.000000 0.000000 0.000000 -1.000000 0.608932 0.444164
3 0 1 2
3 0 2 3
3 4 5 6
3 4 6 7
3 8 9 10
3 8 10 11
3 12 13 14
3 12 14 15
3 16 17 18
3 16 18 19
3 20 21 22
3 20 22 23
3 24 25 26
3 24 26 27
3 28 29 30
3 28 30 31
3 32 33 34
3 32 34 35
3 36 37 38
3 36 38 39
3 40 41 42
3 40 42 43
3 44 45 46
3 44 46 47
3 48 49 50
3 48 50 51
3 52 53 54
3 52 54 55
3 56 57 58
3 56 58 59
3 60 61 62
3 60 62 63
3 64 65 66
3 64 66 67
3 68 69 70
3 68 70 71
3 72 73 74
3 74 75 76
3 76 77 78
3 78 79 80
3 80 81 82
3 82 83 84
3 84 85 86
3 86 87 88
3 88 89 90
3 90 91 72
3 72 74 76
3 76 78 80
3 80 82 84
3 84 86 88
3 88 90 72
3 72 76 80
3 80 84 88
3 80 88 72
3 92 93 94
3 92 94 95
3 96 97 98
3 96 98 99
3 100 101 102
3 102 103 104
3 104 105 106
3 106 107 108
3 108 109 110
3 110 111 112
3 112 113 114
3 114 115 116
3 116 117 118
3 118 119 100
3 100 102 104
3 104 106 108
3 108 110 112
3 112 114 116
3 116 118 100
3 100 104 108
3 108 112 116
3 108 116 100
