ply
format ascii 1.0
comment Created by Blender 2.80 (sub 75) - www.blender.org, source file: ''
element vertex 276
property float x
property float y
property float z
property float nx
property float ny
property float nz
property float s
property float t
element face 180
property list uchar uint vertex_indices
end_header
0.000000 0.810000 -1.000000 0.068243 0.997669 0.000000 1.000000 0.500000
0.000000 0.810000 1.000000 0.068243 0.997669 0.000000 1.000000 1.000000
0.110295 0.802456 1.000000 0.068243 0.997669 0.000000 0.978261 1.000000
0.110295 0.802456 -1.000000 0.068243 0.997669 -0.000000 0.978261 0.500000
0.110295 0.802456 -1.000000 0.203456 0.979084 0.000000 0.978261 0.500000
0.110295 0.802456 1.000000 0.203456 0.979084 0.000000 0.978261 1.000000
0.218535 0.779963 1.000000 0.203456 0.979084 0.000000 0.956522 1.000000
0.218535 0.779963 -1.000000 0.203456 0.979084 -0.000000 0.956522 0.500000
0.218535 0.779963 -1.000000 0.334880 0.942261 0.000000 0.956522 0.500000
0.218535 0.779963 1.000000 0.334880 0.942261 0.000000 0.956522 1.000000
0.322705 0.742941 1.000000 0.334880 0.942261 0.000000 0.934783 1.000000
0.322705 0.742941 -1.000000 0.334880 0.942261 -0.000000 0.934783 0.500000
0.322705 0.742941 -1.000000 0.460065 0.887885 0.000000 0.934783 0.500000
0.322705 0.742941 1.000000 0.460065 0.887885 0.000000 0.934783 1.000000
0.420863 0.692080 1.000000 0.460065 0.887885 0.000000 0.913043 1.000000
0.420863 0.692080 -1.000000 0.460065 0.887885 -0.000000 0.913043 0.500000
0.420863 0.692080 -1.000000 0.576680 0.816970 0.000000 0.913043 0.500000
0.420863 0.692080 1.000000 0.576680 0.816970 0.000000 0.913043 1.000000
0.511181 0.628326 1.000000 0.576680 0.816970 0.000000 0.891304 1.000000
0.511181 0.628326 -1.000000 0.576680 0.816970 -0.000000 0.891304 0.500000
0.511181 0.628326 -1.000000 0.682553 0.730836 0.000000 0.891304 0.500000
0.511181 0.628326 1.000000 0.682553 0.730836 0.000000 0.891304 1.000000
0.591977 0.552868 1.000000 0.682553 0.730836 0.000000 0.869565 1.000000
0.591977 0.552868 -1.000000 0.682553 0.730836 -0.000000 0.869565 0.500000
0.591977 0.552868 -1.000000 0.775711 0.631088 0.000000 0.869565 0.500000
0.591977 0.552868 1.000000 0.775711 0.631088 0.000000 0.869565 1.000000
0.661746 0.467111 1.000000 0.775711 0.631088 0.000000 0.847826 1.000000
0.661746 0.467111 -1.000000 0.775711 0.631088 -0.000000 0.847826 0.500000
0.661746 0.467111 -1.000000 0.854420 0.519584 0.000000 0.847826 0.500000
0.661746 0.467111 1.000000 0.854420 0.519584 0.000000 0.847826 1.000000
0.719187 0.372653 1.000000 0.854420 0.519584 0.000000 0.826087 1.000000
0.719187 0.372653 -1.000000 0.854420 0.519584 -0.000000 0.826087 0.500000
0.719187 0.372653 -1.000000 0.917211 0.398401 0.000000 0.826087 0.500000
0.719187 0.372653 1.000000 0.917211 0.398401 0.000000 0.826087 1.000000
0.763231 0.271253 1.000000 0.917211 0.398401 0.000000 0.804348 1.000000
0.763231 0.271253 -1.000000 0.917211 0.398401 -0.000000 0.804348 0.500000
0.763231 0.271253 -1.000000 0.962917 0.269797 0.000000 0.804348 0.500000
0.763231 0.271253 1.000000 0.962917 0.269797 0.000000 0.804348 1.000000
0.793058 0.164800 1.000000 0.962917 0.269797 0.000000 0.782609 1.000000
0.793058 0.164800 -1.000000 0.962917 0.269797 -0.000000 0.782609 0.500000
0.793058 0.164800 -1.000000 0.990686 0.136166 0.000000 0.782609 0.500000
0.793058 0.164800 1.000000 0.990686 0.136166 0.000000 0.782609 1.000000
0.808112 0.055277 1.000000 0.990686 0.136166 0.000000 0.760870 1.000000
0.808112 0.055277 -1.000000 0.990686 0.136166 -0.000000 0.760870 0.500000
0.808112 0.055277 -1.000000 1.000000 0.000001 0.000000 0.760870 0.500000
0.808112 0.055277 1.000000 1.000000 0.000001 0.000000 0.760870 1.000000
0.808112 -0.055276 1.000000 1.000000 0.000001 0.000000 0.739130 1.000000
0.808112 -0.055276 -1.000000 1.000000 0.000001 -0.000000 0.739130 0.500000
0.808112 -0.055276 -1.000000 0.990686 -0.136166 0.000000 0.739130 0.500000
0.808112 -0.055276 1.000000 0.990686 -0.136166 0.000000 0.739130 1.000000
0.793058 -0.164799 1.000000 0.990686 -0.136166 0.000000 0.717391 1.000000
0.793058 -0.164799 -1.000000 0.990686 -0.136166 0.000000 0.717391 0.500000
0.793058 -0.164799 -1.000000 0.962917 -0.269797 0.000000 0.717391 0.500000
0.793058 -0.164799 1.000000 0.962917 -0.269797 0.000000 0.717391 1.000000
0.763231 -0.271252 1.000000 0.962917 -0.269797 0.000000 0.695652 1.000000
0.763231 -0.271252 -1.000000 0.962917 -0.269797 0.000000 0.695652 0.500000
0.763231 -0.271252 -1.000000 0.917211 -0.398401 0.000000 0.695652 0.500000
0.763231 -0.271252 1.000000 0.917211 -0.398401 0.000000 0.695652 1.000000
0.719187 -0.372653 1.000000 0.917211 -0.398401 0.000000 0.673913 1.000000
0.719187 -0.372653 -1.000000 0.917211 -0.398401 0.000000 0.673913 0.500000
0.719187 -0.372653 -1.000000 0.854419 -0.519584 0.000000 0.673913 0.500000
0.719187 -0.372653 1.000000 0.854419 -0.519584 0.000000 0.673913 1.000000
0.661746 -0.467111 1.000000 0.854419 -0.519584 0.000000 0.652174 1.000000
0.661746 -0.467111 -1.000000 0.854419 -0.519584 0.000000 0.652174 0.500000
0.661746 -0.467111 -1.000000 0.775711 -0.631088 0.000000 0.652174 0.500000
0.661746 -0.467111 1.000000 0.775711 -0.631088 0.000000 0.652174 1.000000
0.591977 -0.552868 1.000000 0.775711 -0.631088 0.000000 0.630435 1.000000
0.591977 -0.552868 -1.000000 0.775711 -0.631088 0.000000 0.630435 0.500000
0.591977 -0.552868 -1.000000 0.682553 -0.730836 0.000000 0.630435 0.500000
0.591977 -0.552868 1.000000 0.682553 -0.730836 0.000000 0.630435 1.000000
0.511181 -0.628326 1.000000 0.682553 -0.730836 0.000000 0.608696 1.000000
0.511181 -0.628326 -1.000000 0.682553 -0.730836 0.000000 0.608696 0.500000
0.511181 -0.628326 -1.000000 0.576680 -0.816970 0.000000 0.608696 0.500000
0.511181 -0.628326 1.000000 0.576680 -0.816970 0.000000 0.608696 1.000000
0.420863 -0.692080 1.000000 0.576680 -0.816970 0.000000 0.586957 1.000000
0.420863 -0.692080 -1.000000 0.576680 -0.816970 0.000000 0.586957 0.500000
0.420863 -0.692080 -1.000000 0.460066 -0.887885 0.000000 0.586957 0.500000
0.420863 -0.692080 1.000000 0.460066 -0.887885 0.000000 0.586957 1.000000
0.322705 -0.742941 1.000000 0.460066 -0.887885 0.000000 0.565217 1.000000
0.322705 -0.742941 -1.000000 0.460066 -0.887885 0.000000 0.565217 0.500000
0.322705 -0.742941 -1.000000 0.334880 -0.942261 0.000000 0.565217 0.500000
0.322705 -0.742941 1.000000 0.334880 -0.942261 0.000000 0.565217 1.000000
0.218536 -0.779963 1.000000 0.334880 -0.942261 0.000000 0.543478 1.000000
0.218536 -0.779963 -1.000000 0.334880 -0.942261 0.000000 0.543478 0.500000
0.218536 -0.779963 -1.000000 0.203456 -0.979084 0.000000 0.543478 0.500000
0.218536 -0.779963 1.000000 0.203456 -0.979084 0.000000 0.543478 1.000000
0.110295 -0.802456 1.000000 0.203456 -0.979084 0.000000 0.521739 1.000000
0.110295 -0.802456 -1.000000 0.203456 -0.979084 0.000000 0.521739 0.500000
0.110295 -0.802456 -1.000000 0.068243 -0.997669 0.000000 0.521739 0.500000
0.110295 -0.802456 1.000000 0.068243 -0.997669 0.000000 0.521739 1.000000
0.000000 -0.810000 1.000000 0.068243 -0.997669 0.000000 0.500000 1.000000
0.000000 -0.810000 -1.000000 0.068243 -0.997669 0.000000 0.500000 0.500000
0.000000 -0.810000 -1.000000 -0.068242 -0.997669 -0.000000 0.500000 0.500000
0.000000 -0.810000 1.000000 -0.068242 -0.997669 -0.000000 0.500000 1.000000
-0.110295 -0.802456 1.000000 -0.068242 -0.997669 -0.000000 0.478261 1.000000
-0.110295 -0.802456 -1.000000 -0.068242 -0.997669 0.000000 0.478261 0.500000
-0.110295 -0.802456 -1.000000 -0.203456 -0.979084 -0.000000 0.478261 0.500000
-0.110295 -0.802456 1.000000 -0.203456 -0.979084 -0.000000 0.478261 1.000000
-0.218535 -0.779963 1.000000 -0.203456 -0.979084 -0.000000 0.456522 1.000000
-0.218535 -0.779963 -1.000000 -0.203456 -0.979084 0.000000 0.456522 0.500000
-0.218535 -0.779963 -1.000000 -0.334879 -0.942261 -0.000000 0.456522 0.500000
-0.218535 -0.779963 1.000000 -0.334879 -0.942261 -0.000000 0.456522 1.000000
-0.322705 -0.742941 1.000000 -0.334879 -0.942261 -0.000000 0.434783 1.000000
-0.322705 -0.742941 -1.000000 -0.334879 -0.942261 0.000000 0.434783 0.500000
-0.322705 -0.742941 -1.000000 -0.460065 -0.887885 -0.000000 0.434783 0.500000
-0.322705 -0.742941 1.000000 -0.460065 -0.887885 -0.000000 0.434783 1.000000
-0.420863 -0.692080 1.000000 -0.460065 -0.887885 -0.000000 0.413044 1.000000
-0.420863 -0.692080 -1.000000 -0.460065 -0.887885 0.000000 0.413044 0.500000
-0.420863 -0.692080 -1.000000 -0.576680 -0.816970 -0.000000 0.413044 0.500000
-0.420863 -0.692080 1.000000 -0.576680 -0.816970 -0.000000 0.413044 1.000000
-0.511181 -0.628326 1.000000 -0.576680 -0.816970 -0.000000 0.391304 1.000000
-0.511181 -0.628326 -1.000000 -0.576680 -0.816970 0.000000 0.391304 0.500000
-0.511181 -0.628326 -1.000000 -0.682553 -0.730836 -0.000000 0.391304 0.500000
-0.511181 -0.628326 1.000000 -0.682553 -0.730836 -0.000000 0.391304 1.000000
-0.591977 -0.552868 1.000000 -0.682553 -0.730836 -0.000000 0.369565 1.000000
-0.591977 -0.552868 -1.000000 -0.682553 -0.730836 0.000000 0.369565 0.500000
-0.591977 -0.552868 -1.000000 -0.775711 -0.631088 -0.000000 0.369565 0.500000
-0.591977 -0.552868 1.000000 -0.775711 -0.631088 -0.000000 0.369565 1.000000
-0.661745 -0.467111 1.000000 -0.775711 -0.631088 -0.000000 0.347826 1.000000
-0.661745 -0.467111 -1.000000 -0.775711 -0.631088 0.000000 0.347826 0.500000
-0.661745 -0.467111 -1.000000 -0.854419 -0.519584 -0.000000 0.347826 0.500000
-0.661745 -0.467111 1.000000 -0.854419 -0.519584 -0.000000 0.347826 1.000000
-0.719187 -0.372653 1.000000 -0.854419 -0.519584 -0.000000 0.326087 1.000000
-0.719187 -0.372653 -1.000000 -0.854419 -0.519584 0.000000 0.326087 0.500000
-0.719187 -0.372653 -1.000000 -0.917211 -0.398402 -0.000000 0.326087 0.500000
-0.719187 -0.372653 1.000000 -0.917211 -0.398402 -0.000000 0.326087 1.000000
-0.763231 -0.271253 1.000000 -0.917211 -0.398402 -0.000000 0.304348 1.000000
-0.763231 -0.271253 -1.000000 -0.917211 -0.398402 0.000000 0.304348 0.500000
-0.763231 -0.271253 -1.000000 -0.962917 -0.269797 -0.000000 0.304348 0.500000
-0.763231 -0.271253 1.000000 -0.962917 -0.269797 -0.000000 0.304348 1.000000
-0.793058 -0.164800 1.000000 -0.962917 -0.269797 -0.000000 0.282609 1.000000
-0.793058 -0.164800 -1.000000 -0.962917 -0.269797 0.000000 0.282609 0.500000
-0.793058 -0.164800 -1.000000 -0.990686 -0.136167 -0.000000 0.282609 0.500000
-0.793058 -0.164800 1.000000 -0.990686 -0.136167 -0.000000 0.282609 1.000000
-0.808112 -0.055277 1.000000 -0.990686 -0.136167 -0.000000 0.260870 1.000000
-0.808112 -0.055277 -1.000000 -0.990686 -0.136167 0.000000 0.260870 0.500000
-0.808112 -0.055277 -1.000000 -1.000000 -0.000001 -0.000000 0.260870 0.500000
-0.808112 -0.055277 1.000000 -1.000000 -0.000001 -0.000000 0.260870 1.000000
-0.808112 0.055276 1.000000 -1.000000 -0.000001 -0.000000 0.239131 1.000000
-0.808112 0.055276 -1.000000 -1.000000 -0.000001 0.000000 0.239131 0.500000
-0.808112 0.055276 -1.000000 -0.990686 0.136166 0.000000 0.239131 0.500000
-0.808112 0.055276 1.000000 -0.990686 0.136166 0.000000 0.239131 1.000000
-0.793058 0.164799 1.000000 -0.990686 0.136166 0.000000 0.217391 1.000000
-0.793058 0.164799 -1.000000 -0.990686 0.136166 0.000000 0.217391 0.500000
-0.793058 0.164799 -1.000000 -0.962917 0.269796 0.000000 0.217391 0.500000
-0.793058 0.164799 1.000000 -0.962917 0.269796 0.000000 0.217391 1.000000
-0.763232 0.271252 1.000000 -0.962917 0.269796 0.000000 0.195652 1.000000
-0.763232 0.271252 -1.000000 -0.962917 0.269796 0.000000 0.195652 0.500000
-0.763232 0.271252 -1.000000 -0.917211 0.398401 0.000000 0.195652 0.500000
-0.763232 0.271252 1.000000 -0.917211 0.398401 0.000000 0.195652 1.000000
-0.719187 0.372652 1.000000 -0.917211 0.398401 0.000000 0.173913 1.000000
-0.719187 0.372652 -1.000000 -0.917211 0.398401 0.000000 0.173913 0.500000
-0.719187 0.372652 -1.000000 -0.854420 0.519583 0.000000 0.173913 0.500000
-0.719187 0.372652 1.000000 -0.854420 0.519583 0.000000 0.173913 1.000000
-0.661746 0.467111 1.000000 -0.854420 0.519583 0.000000 0.152174 1.000000
-0.661746 0.467111 -1.000000 -0.854420 0.519583 0.000000 0.152174 0.500000
-0.661746 0.467111 -1.000000 -0.775712 0.631088 0.000000 0.152174 0.500000
-0.661746 0.467111 1.000000 -0.775712 0.631088 0.000000 0.152174 1.000000
-0.591978 0.552868 1.000000 -0.775712 0.631088 0.000000 0.130435 1.000000
-0.591978 0.552868 -1.000000 -0.775712 0.631088 0.000000 0.130435 0.500000
-0.591978 0.552868 -1.000000 -0.682554 0.730836 0.000000 0.130435 0.500000
-0.591978 0.552868 1.000000 -0.682554 0.730836 0.000000 0.130435 1.000000
-0.511182 0.628326 1.000000 -0.682554 0.730836 0.000000 0.108696 1.000000
-0.511182 0.628326 -1.000000 -0.682554 0.730836 0.000000 0.108696 0.500000
-0.511182 0.628326 -1.000000 -0.576681 0.816969 0.000000 0.108696 0.500000
-0.511182 0.628326 1.000000 -0.576681 0.816969 0.000000 0.108696 1.000000
-0.420864 0.692079 1.000000 -0.576681 0.816969 0.000000 0.086957 1.000000
-0.420864 0.692079 -1.000000 -0.576681 0.816969 0.000000 0.086957 0.500000
-0.420864 0.692079 -1.000000 -0.460065 0.887885 0.000000 0.086957 0.500000
-0.420864 0.692079 1.000000 -0.460065 0.887885 0.000000 0.086957 1.000000
-0.322705 0.742941 1.000000 -0.460065 0.887885 0.000000 0.065218 1.000000
-0.322705 0.742941 -1.000000 -0.460065 0.887885 0.000000 0.065218 0.500000
-0.322705 0.742941 -1.000000 -0.334880 0.942261 0.000000 0.065218 0.500000
-0.322705 0.742941 1.000000 -0.334880 0.942261 0.000000 0.065218 1.000000
-0.218536 0.779963 1.000000 -0.334880 0.942261 0.000000 0.043478 1.000000
-0.218536 0.779963 -1.000000 -0.334880 0.942261 0.000000 0.043478 0.500000
0.218535 0.779963 1.000000 0.000000 0.000000 1.000000 0.314751 0.481100
0.110295 0.802456 1.000000 0.000000 0.000000 1.000000 0.282680 0.487765
0.000000 0.810000 1.000000 0.000000 0.000000 1.000000 0.250000 0.490000
-0.110296 0.802456 1.000000 0.000000 0.000000 1.000000 0.217320 0.487765
-0.218536 0.779963 1.000000 0.000000 0.000000 1.000000 0.185249 0.481100
-0.322705 0.742941 1.000000 0.000000 0.000000 1.000000 0.154384 0.470131
-0.420864 0.692079 1.000000 0.000000 0.000000 1.000000 0.125300 0.455061
-0.511182 0.628326 1.000000 0.000000 0.000000 1.000000 0.098539 0.436171
-0.591978 0.552868 1.000000 0.000000 0.000000 1.000000 0.074599 0.413813
-0.661746 0.467111 1.000000 0.000000 0.000000 1.000000 0.053927 0.388403
-0.719187 0.372652 1.000000 0.000000 0.000000 1.000000 0.036907 0.360415
-0.763232 0.271252 1.000000 0.000000 0.000000 1.000000 0.023857 0.330371
-0.793058 0.164799 1.000000 0.000000 0.000000 1.000000 0.015020 0.298829
-0.808112 0.055276 1.000000 0.000000 -0.000000 1.000000 0.010559 0.266378
-0.808112 -0.055277 1.000000 0.000000 -0.000000 1.000000 0.010560 0.233622
-0.793058 -0.164800 1.000000 0.000000 0.000000 1.000000 0.015020 0.201170
-0.763231 -0.271253 1.000000 0.000000 0.000000 1.000000 0.023857 0.169629
-0.719187 -0.372653 1.000000 0.000000 0.000000 1.000000 0.036908 0.139584
-0.661745 -0.467111 1.000000 0.000000 0.000000 1.000000 0.053927 0.111597
-0.591977 -0.552868 1.000000 0.000000 0.000000 1.000000 0.074599 0.086187
-0.511181 -0.628326 1.000000 0.000000 0.000000 1.000000 0.098539 0.063829
-0.420863 -0.692080 1.000000 0.000000 0.000000 1.000000 0.125300 0.044939
-0.322705 -0.742941 1.000000 0.000000 0.000000 1.000000 0.154384 0.029869
-0.218535 -0.779963 1.000000 0.000000 0.000000 1.000000 0.185249 0.018900
-0.110295 -0.802456 1.000000 0.000000 0.000000 1.000000 0.217320 0.012235
0.000000 -0.810000 1.000000 0.000000 0.000000 1.000000 0.250000 0.010000
0.110295 -0.802456 1.000000 0.000000 0.000000 1.000000 0.282680 0.012235
0.218536 -0.779963 1.000000 0.000000 0.000000 1.000000 0.314751 0.018900
0.322705 -0.742941 1.000000 0.000000 0.000000 1.000000 0.345616 0.029869
0.420863 -0.692080 1.000000 0.000000 0.000000 1.000000 0.374700 0.044939
0.511181 -0.628326 1.000000 0.000000 0.000000 1.000000 0.401461 0.063829
0.591977 -0.552868 1.000000 0.000000 0.000000 1.000000 0.425401 0.086187
0.661746 -0.467111 1.000000 0.000000 0.000000 1.000000 0.446073 0.111597
0.719187 -0.372653 1.000000 0.000000 0.000000 1.000000 0.463092 0.139584
0.763231 -0.271252 1.000000 0.000000 0.000000 1.000000 0.476143 0.169629
0.793058 -0.164799 1.000000 0.000000 0.000000 1.000000 0.484980 0.201171
0.808112 -0.055276 1.000000 0.000000 0.000000 1.000000 0.489441 0.233622
0.808112 0.055277 1.000000 0.000000 0.000000 1.000000 0.489441 0.266378
0.793058 0.164800 1.000000 0.000000 0.000000 1.000000 0.484980 0.298829
0.763231 0.271253 1.000000 0.000000 0.000000 1.000000 0.476143 0.330371
0.719187 0.372653 1.000000 0.000000 0.000000 1.000000 0.463092 0.360416
0.661746 0.467111 1.000000 0.000000 0.000000 1.000000 0.446073 0.388403
0.591977 0.552868 1.000000 0.000000 0.000000 1.000000 0.425401 0.413813
0.511181 0.628326 1.000000 0.000000 0.000000 1.000000 0.401461 0.436171
0.420863 0.692080 1.000000 0.000000 0.000000 1.000000 0.374700 0.455061
0.322705 0.742941 1.000000 0.000000 0.000000 1.000000 0.345616 0.470131
-0.218536 0.779963 -1.000000 -0.203457 0.979084 0.000000 0.043478 0.500000
-0.218536 0.779963 1.000000 -0.203457 0.979084 0.000000 0.043478 1.000000
-0.110296 0.802456 1.000000 -0.203457 0.979084 0.000000 0.021739 1.000000
-0.110296 0.802456 -1.000000 -0.203457 0.979084 0.000000 0.021739 0.500000
-0.110296 0.802456 -1.000000 -0.068243 0.997669 0.000000 0.021739 0.500000
-0.110296 0.802456 1.000000 -0.068243 0.997669 0.000000 0.021739 1.000000
0.000000 0.810000 1.000000 -0.068243 0.997669 0.000000 0.000000 1.000000
0.000000 0.810000 -1.000000 -0.068243 0.997669 0.000000 0.000000 0.500000
-0.110296 0.802456 -1.000000 -0.000000 0.000000 -1.000000 0.717320 0.487765
0.000000 0.810000 -1.000000 -0.000000 0.000000 -1.000000 0.750000 0.490000
0.110295 0.802456 -1.000000 -0.000000 0.000000 -1.000000 0.782680 0.487765
0.218535 0.779963 -1.000000 0.000000 0.000000 -1.000000 0.814751 0.481100
0.322705 0.742941 -1.000000 0.000000 0.000000 -1.000000 0.845616 0.470131
0.420863 0.692080 -1.000000 0.000000 0.000000 -1.000000 0.874700 0.455061
0.511181 0.628326 -1.000000 0.000000 0.000000 -1.000000 0.901461 0.436171
0.591977 0.552868 -1.000000 0.000000 0.000000 -1.000000 0.925401 0.413813
0.661746 0.467111 -1.000000 0.000000 0.000000 -1.000000 0.946073 0.388403
0.719187 0.372653 -1.000000 0.000000 0.000000 -1.000000 0.963092 0.360416
0.763231 0.271253 -1.000000 0.000000 0.000000 -1.000000 0.976143 0.330371
0.793058 0.164800 -1.000000 0.000000 0.000000 -1.000000 0.984980 0.298829
0.808112 0.055277 -1.000000 0.000000 0.000000 -1.000000 0.989441 0.266378
0.808112 -0.055276 -1.000000 0.000000 0.000000 -1.000000 0.989441 0.233622
0.793058 -0.164799 -1.000000 0.000000 0.000000 -1.000000 0.984980 0.201171
0.763231 -0.271252 -1.000000 0.000000 0.000000 -1.000000 0.976143 0.169629
0.719187 -0.372653 -1.000000 0.000000 0.000000 -1.000000 0.963092 0.139584
0.661746 -0.467111 -1.000000 0.000000 0.000000 -1.000000 0.946073 0.111597
0.591977 -0.552868 -1.000000 0.000000 0.000000 -1.000000 0.925401 0.086187
0.511181 -0.628326 -1.000000 0.000000 0.000000 -1.000000 0.901461 0.063829
0.420863 -0.692080 -1.000000 0.000000 0.000000 -1.000000 0.874700 0.044939
0.322705 -0.742941 -1.000000 0.000000 0.000000 -1.000000 0.845616 0.029869
0.218536 -0.779963 -1.000000 0.000000 0.000000 -1.000000 0.814751 0.018900
0.110295 -0.802456 -1.000000 0.000000 0.000000 -1.000000 0.782680 0.012235
0.000000 -0.810000 -1.000000 0.000000 0.000000 -1.000000 0.750000 0.010000
-0.110295 -0.802456 -1.000000 0.000000 0.000000 -1.000000 0.717320 0.012235
-0.218535 -0.779963 -1.000000 0.000000 0.000000 -1.000000 0.685249 0.018900
-0.322705 -0.742941 -1.000000 0.000000 0.000000 -1.000000 0.654384 0.029869
-0.420863 -0.692080 -1.000000 0.000000 0.000000 -1.000000 0.625300 0.044939
-0.511181 -0.628326 -1.000000 0.000000 0.000000 -1.000000 0.598539 0.063829
-0.591977 -0.552868 -1.000000 0.000000 0.000000 -1.000000 0.574600 0.086187
-0.661745 -0.467111 -1.000000 0.000000 0.000000 -1.000000 0.553927 0.111597
-0.719187 -0.372653 -1.000000 0.000000 0.000000 -1.000000 0.536908 0.139584
-0.763231 -0.271253 -1.000000 0.000000 0.000000 -1.000000 0.523857 0.169629
-0.793058 -0.164800 -1.000000 0.000000 0.000000 -1.000000 0.515020 0.201170
-0.808112 -0.055277 -1.000000 0.000000 0.000000 -1.000000 0.510559 0.233622
-0.808112 0.055276 -1.000000 0.000000 0.000000 -1.000000 0.510559 0.266378
-0.793058 0.164799 -1.000000 0.000000 0.000000 -1.000000 0.515020 0.298829
-0.763232 0.271252 -1.000000 0.000000 0.000000 -1.000000 0.523857 0.330371
-0.719187 0.372652 -1.000000 0.000000 0.000000 -1.000000 0.536907 0.360415
-0.661746 0.467111 -1.000000 0.000000 0.000000 -1.000000 0.553927 0.388403
-0.591978 0.552868 -1.000000 0.000000 0.000000 -1.000000 0.574599 0.413813
-0.511182 0.628326 -1.000000 0.000000 0.000000 -1.000000 0.598539 0.436171
-0.420864 0.692079 -1.000000 0.000000 0.000000 -1.000000 0.625300 0.455061
-0.322705 0.742941 -1.000000 0.000000 0.000000 -1.000000 0.654384 0.470131
-0.218536 0.779963 -1.000000 0.000000 0.000000 -1.000000 0.685249 0.481100
3 0 1 2
3 0 2 3
3 4 5 6
3 4 6 7
3 8 9 10
3 8 10 11
3 12 13 14
3 12 14 15
3 16 17 18
3 16 18 19
3 20 21 22
3 20 22 23
3 24 25 26
3 24 26 27
3 28 29 30
3 28 30 31
3 32 33 34
3 32 34 35
3 36 37 38
3 36 38 39
3 40 41 42
3 40 42 43
3 44 45 46
3 44 46 47
3 48 49 50
3 48 50 51
3 52 53 54
3 52 54 55
3 56 57 58
3 56 58 59
3 60 61 62
3 60 62 63
3 64 65 66
3 64 66 67
3 68 69 70
3 68 70 71
3 72 73 74
3 72 74 75
3 76 77 78
3 76 78 79
3 80 81 82
3 80 82 83
3 84 85 86
3 84 86 87
3 88 89 90
3 88 90 91
3 92 93 94
3 92 94 95
3 96 97 98
3 96 98 99
3 100 101 102
3 100 102 103
3 104 105 106
3 104 106 107
3 108 109 110
3 108 110 111
3 112 113 114
3 112 114 115
3 116 117 118
3 116 118 119
3 120 121 122
3 120 122 123
3 124 125 126
3 124 126 127
3 128 129 130
3 128 130 131
3 132 133 134
3 132 134 135
3 136 137 138
3 136 138 139
3 140 141 142
3 140 142 143
3 144 145 146
3 144 146 147
3 148 149 150
3 148 150 151
3 152 153 154
3 152 154 155
3 156 157 158
3 156 158 159
3 160 161 162
3 160 162 163
3 164 165 166
3 164 166 167
3 168 169 170
3 168 170 171
3 172 173 174
3 172 174 175
3 176 177 178
3 178 179 180
3 180 181 182
3 182 183 184
3 184 185 186
3 186 187 188
3 188 189 190
3 190 191 192
3 192 193 194
3 194 195 196
3 196 197 198
3 198 199 200
3 200 201 202
3 202 203 204
3 204 205 206
3 206 207 208
3 208 209 210
3 210 211 212
3 212 213 214
3 214 215 216
3 216 217 218
3 218 219 220
3 220 221 176
3 176 178 180
3 180 182 184
3 184 186 188
3 188 190 192
3 192 194 196
3 196 198 200
3 200 202 204
3 204 206 208
3 208 210 212
3 212 214 216
3 216 218 220
3 220 176 180
3 180 184 188
3 188 192 196
3 196 200 204
3 204 208 212
3 212 216 220
3 220 180 188
3 188 196 204
3 204 212 220
3 188 204 220
3 222 223 224
3 222 224 225
3 226 227 228
3 226 228 229
3 230 231 232
3 232 233 234
3 234 235 236
3 236 237 238
3 238 239 240
3 240 241 242
3 242 243 244
3 244 245 246
3 246 247 248
3 248 249 250
3 250 251 252
3 252 253 254
3 254 255 256
3 256 257 258
3 258 259 260
3 260 261 262
3 262 263 264
3 264 265 266
3 266 267 268
3 268 269 270
3 270 271 272
3 272 273 274
3 274 275 230
3 230 232 234
3 234 236 238
3 238 240 242
3 242 244 246
3 246 248 250
3 250 252 254
3 254 256 258
3 258 260 262
3 262 264 266
3 266 268 270
3 270 272 274
3 274 230 234
3 234 238 242
3 242 246 250
3 250 254 258
3 258 262 266
3 266 270 274
3 274 234 242
3 242 250 258
3 258 266 274
3 242 258 274
