ply
format ascii 1.0
comment written by export_pc_in_blender.py
element vertex 491
property float x
property float y
property float z
end_header
0.1820 0.1131 0.0149
0.1817 0.1112 0.0086
0.1800 0.1418 -0.0104
0.1830 0.1328 -0.0053
0.1796 0.1102 -0.0028
0.1773 0.1229 -0.0072
0.1875 0.1291 0.0000
0.2033 0.1408 0.0250
0.1972 0.1416 0.0068
0.2014 0.1441 0.0286
0.1785 0.1390 -0.0106
0.1792 0.1377 -0.0101
0.1804 0.1118 0.0130
0.1885 0.1290 0.0206
0.2010 0.1395 0.0230
0.1804 0.1182 -0.0054
0.1788 0.1227 -0.0063
0.1800 0.1323 -0.0070
0.1787 0.1070 -0.0048
0.1924 0.1260 0.0241
0.1786 0.1007 0.0004
0.1795 0.1370 -0.0096
0.1787 0.1309 -0.0084
0.1884 0.1312 0.0189
0.1804 0.1057 0.0074
0.1857 0.1269 -0.0011
0.1858 0.1313 -0.0024
0.1853 0.1283 -0.0026
0.1813 0.1033 0.0095
0.1811 0.1209 -0.0053
0.1853 0.1255 0.0000
0.1849 0.1329 -0.0046
0.1786 0.1417 -0.0117
0.1791 0.1125 -0.0049
0.1917 0.1327 0.0053
0.1796 0.1419 -0.0112
0.1873 0.1193 0.0201
0.1950 0.1386 0.0044
0.1790 0.1370 -0.0094
0.1930 0.1340 0.0246
0.1807 0.1197 -0.0051
0.1809 0.1424 -0.0101
0.1785 0.1206 -0.0055
0.1797 0.1328 -0.0075
0.1957 0.1394 0.0093
0.1895 0.1269 0.0246
0.2041 0.1454 0.0052
0.1881 0.1195 0.0214
0.1788 0.1417 -0.0115
0.1949 0.1395 0.0030
0.1870 0.1262 0.0006
0.1824 0.1396 -0.0082
0.1793 0.1071 -0.0016
0.1783 0.1244 -0.0067
0.1858 0.1280 -0.0002
0.1814 0.1354 -0.0067
0.1831 0.1049 0.0019
0.1790 0.1341 -0.0083
0.1799 0.1100 0.0062
0.2024 0.1439 0.0185
0.1798 0.1050 0.0070
0.1872 0.1192 0.0198
0.1781 0.1088 0.0135
0.1872 0.1279 0.0002
0.1841 0.1192 0.0152
0.1806 0.1129 -0.0042
0.1785 0.1010 0.0022
0.1809 0.1039 -0.0004
0.1855 0.1202 0.0178
0.1797 0.1049 -0.0014
0.1785 0.1069 -0.0027
0.1790 0.1421 -0.0118
0.1945 0.1363 0.0048
0.1791 0.1121 0.0097
0.1840 0.1067 0.0026
0.1789 0.1424 -0.0117
0.1814 0.1202 -0.0030
0.1957 0.1357 -0.0018
0.1915 0.1212 0.0083
0.1811 0.1404 -0.0099
0.1806 0.1379 -0.0094
0.1886 0.1167 0.0054
0.2047 0.1432 0.0110
0.1856 0.1302 -0.0028
0.1803 0.1167 -0.0052
0.1811 0.1226 -0.0039
0.1775 0.1079 -0.0054
0.1838 0.1158 0.0008
0.1797 0.1089 -0.0020
0.1789 0.1419 -0.0119
0.1810 0.1407 -0.0101
0.1805 0.1354 -0.0087
0.1959 0.1301 0.0123
0.1832 0.1216 0.0134
0.1800 0.1289 -0.0061
0.1769 0.1073 -0.0044
0.1808 0.1035 -0.0005
0.1808 0.1371 -0.0085
0.1799 0.1403 -0.0087
0.1786 0.1047 -0.0027
0.1978 0.1398 0.0090
0.1810 0.1151 0.0120
0.1831 0.1146 0.0182
0.1900 0.1341 0.0016
0.1796 0.1099 -0.0029
0.1969 0.1368 0.0080
0.1803 0.1342 -0.0080
0.1778 0.1023 -0.0036
0.1899 0.1326 0.0266
0.1813 0.1341 -0.0065
0.1781 0.1218 -0.0066
0.1816 0.1186 -0.0039
0.1797 0.1098 -0.0028
0.1800 0.1082 -0.0038
0.1807 0.1349 -0.0071
0.1831 0.1233 -0.0019
0.1802 0.1366 -0.0091
0.1807 0.1056 -0.0010
0.1838 0.1081 0.0021
0.1812 0.1111 -0.0014
0.1922 0.1321 -0.0046
-0.1133 -0.4165 -0.0692
-0.1154 -0.3902 -0.0863
-0.1303 -0.4141 -0.0783
-0.1110 -0.4172 -0.0670
-0.1112 -0.4168 -0.0676
-0.1187 -0.4142 -0.0761
-0.1380 -0.4186 -0.0797
-0.1174 -0.4119 -0.0740
-0.1096 -0.4181 -0.0657
-0.1070 -0.4180 -0.0645
-0.1281 -0.4109 -0.0788
-0.1089 -0.4172 -0.0660
-0.1340 -0.4171 -0.0781
-0.1417 -0.4208 -0.0799
-0.1090 -0.3802 -0.0884
-0.1384 -0.4170 -0.0802
-0.1428 -0.4209 -0.0802
-0.1145 -0.4119 -0.0723
-0.1115 -0.3832 -0.0867
-0.1042 -0.4188 -0.0621
-0.1189 -0.4052 -0.0832
-0.1179 -0.4133 -0.0755
-0.1106 -0.4175 -0.0665
-0.1307 -0.4130 -0.0789
-0.1311 -0.4184 -0.0784
-0.1176 -0.4128 -0.0769
-0.1143 -0.4138 -0.0715
-0.1358 -0.4158 -0.0797
-0.1382 -0.4169 -0.0802
-0.1102 -0.3811 -0.0876
-0.1321 -0.4174 -0.0787
-0.1417 -0.4207 -0.0807
-0.1276 -0.4106 -0.0788
-0.1071 -0.4178 -0.0643
-0.1432 -0.4217 -0.0808
-0.1277 -0.4189 -0.0780
-0.1187 -0.3955 -0.0840
-0.1099 -0.4167 -0.0654
-0.1228 -0.4160 -0.0797
-0.1090 -0.4178 -0.0653
-0.1166 -0.3930 -0.0856
-0.1242 -0.4173 -0.0790
-0.1297 -0.4155 -0.0778
-0.1212 -0.4139 -0.0800
-0.1145 -0.4087 -0.0740
-0.1266 -0.4107 -0.0783
-0.1265 -0.4099 -0.0784
-0.1078 -0.4180 -0.0647
-0.1106 -0.3817 -0.0876
-0.1355 -0.4150 -0.0797
-0.1192 -0.3995 -0.0846
-0.1429 -0.4213 -0.0806
-0.1434 -0.4210 -0.0805
-0.1197 -0.4111 -0.0755
-0.1419 -0.4209 -0.0809
-0.1186 -0.3985 -0.0836
-0.1069 -0.4176 -0.0635
-0.1387 -0.4191 -0.0801
-0.1126 -0.4163 -0.0687
-0.1102 -0.3817 -0.0877
-0.1137 -0.4155 -0.0700
-0.1447 -0.4218 -0.0807
-0.1177 -0.3937 -0.0850
-0.1097 -0.3804 -0.0881
-0.1159 -0.3895 -0.0808
-0.1297 -0.4169 -0.0782
-0.1439 -0.4212 -0.0806
-0.1322 -0.4131 -0.0793
-0.1109 -0.3828 -0.0861
-0.1230 -0.4159 -0.0799
-0.1184 -0.4116 -0.0748
-0.1234 -0.4087 -0.0778
-0.1431 -0.4212 -0.0812
-0.1151 -0.4083 -0.0749
-0.1147 -0.3909 -0.0826
-0.1047 -0.4186 -0.0622
-0.1259 -0.4097 -0.0783
-0.1365 -0.4181 -0.0798
-0.1123 -0.3854 -0.0856
-0.1147 -0.3988 -0.0800
-0.1216 -0.4110 -0.0764
-0.1039 -0.4184 -0.0625
-0.1107 -0.3835 -0.0859
-0.1188 -0.4096 -0.0756
-0.1173 -0.4121 -0.0740
-0.1199 -0.4118 -0.0811
-0.1146 -0.4138 -0.0717
-0.1130 -0.4144 -0.0694
-0.1134 -0.4152 -0.0700
-0.1132 -0.3870 -0.0855
-0.1121 -0.4103 -0.0714
-0.1058 -0.4179 -0.0634
-0.1195 -0.4026 -0.0842
-0.1096 -0.4170 -0.0664
-0.1075 -0.4177 -0.0646
-0.1382 -0.4189 -0.0801
-0.1108 -0.4180 -0.0667
-0.1148 -0.4098 -0.0734
-0.1328 -0.4167 -0.0792
-0.1254 -0.4179 -0.0779
-0.1198 -0.4116 -0.0808
-0.1153 -0.3898 -0.0866
-0.1271 -0.4189 -0.0783
-0.1179 -0.3965 -0.0848
-0.1102 -0.3812 -0.0879
-0.1033 -0.4185 -0.0621
-0.1316 -0.4125 -0.0794
-0.1094 -0.3796 -0.0883
-0.1442 -0.4223 -0.0812
-0.1238 -0.4101 -0.0775
-0.1177 -0.4119 -0.0742
-0.1192 -0.3990 -0.0848
-0.1393 -0.4179 -0.0802
-0.1221 -0.4108 -0.0768
-0.1062 -0.4172 -0.0631
-0.1051 -0.4186 -0.0629
-0.1307 -0.4119 -0.0794
-0.1046 -0.4188 -0.0624
-0.1193 -0.4113 -0.0753
-0.1410 -0.4204 -0.0802
-0.1101 -0.4169 -0.0669
-0.1239 -0.4170 -0.0791
-0.1035 -0.4184 -0.0622
-0.1143 -0.3882 -0.0872
-0.1210 -0.4122 -0.0816
-0.1170 -0.3927 -0.0854
-0.1050 -0.4181 -0.0631
-0.1201 -0.4000 -0.0855
-0.1395 -0.4192 -0.0801
-0.1175 -0.4128 -0.0758
-0.1447 -0.4222 -0.0815
-0.1190 -0.3988 -0.0848
-0.1340 -0.4172 -0.0794
-0.1190 -0.3988 -0.0848
-0.1297 -0.4115 -0.0791
-0.1182 -0.3942 -0.0844
-0.1115 -0.4165 -0.0678
-0.1315 -0.4182 -0.0784
-0.1151 -0.4029 -0.0799
-0.1227 -0.4145 -0.0811
-0.1117 -0.4169 -0.0678
-0.1443 -0.4219 -0.0814
-0.1148 -0.3891 -0.0869
-0.1390 -0.4204 -0.0801
-0.1143 -0.3900 -0.0838
-0.1143 -0.4149 -0.0709
-0.1144 -0.4120 -0.0722
-0.1142 -0.3880 -0.0871
-0.1436 -0.4216 -0.0813
-0.1066 -0.4183 -0.0638
-0.1206 -0.4018 -0.0846
-0.4073 -0.5837 -0.1299
-0.4207 -0.6051 -0.1346
-0.4204 -0.6080 -0.1353
-0.4028 -0.5809 -0.1269
-0.4282 -0.5987 -0.1461
-0.4228 -0.6167 -0.1369
-0.4217 -0.6070 -0.1354
-0.4256 -0.6049 -0.1430
-0.4248 -0.6122 -0.1411
-0.4211 -0.6037 -0.1383
-0.4210 -0.5994 -0.1362
-0.4351 -0.5955 -0.1497
-0.4189 -0.6019 -0.1371
-0.4212 -0.6064 -0.1346
-0.4113 -0.5893 -0.1337
-0.4179 -0.5963 -0.1370
-0.4295 -0.5847 -0.1522
-0.4208 -0.6015 -0.1375
-0.4061 -0.5846 -0.1307
-0.4236 -0.5666 -0.1332
-0.4270 -0.5943 -0.1412
-0.4213 -0.5980 -0.1386
-0.4338 -0.5983 -0.1463
-0.4285 -0.5628 -0.1368
-0.4269 -0.5588 -0.1362
-0.4170 -0.5730 -0.1330
-0.4134 -0.5939 -0.1330
-0.4296 -0.6020 -0.1420
-0.4054 -0.5845 -0.1304
-0.4227 -0.6082 -0.1392
-0.4471 -0.5922 -0.1549
-0.4478 -0.5887 -0.1530
-0.4098 -0.5864 -0.1332
-0.4209 -0.6083 -0.1352
-0.4055 -0.5813 -0.1298
-0.4111 -0.5810 -0.1357
-0.4266 -0.6114 -0.1418
-0.4264 -0.5770 -0.1374
-0.4201 -0.6078 -0.1328
-0.4327 -0.5956 -0.1437
-0.4197 -0.6064 -0.1329
-0.4276 -0.5888 -0.1393
-0.4160 -0.5861 -0.1370
-0.4069 -0.5834 -0.1294
-0.4262 -0.6145 -0.1401
-0.4157 -0.6009 -0.1328
-0.4210 -0.6071 -0.1343
-0.4535 -0.5863 -0.1561
-0.4253 -0.5807 -0.1477
-0.4119 -0.5874 -0.1345
-0.4415 -0.5873 -0.1490
-0.3983 -0.5740 -0.1287
-0.4126 -0.5925 -0.1314
-0.4243 -0.6101 -0.1410
-0.4287 -0.5843 -0.1392
-0.4313 -0.5598 -0.1376
-0.4284 -0.6074 -0.1411
-0.4260 -0.6132 -0.1408
-0.4081 -0.5849 -0.1334
-0.4044 -0.5814 -0.1292
-0.4275 -0.5991 -0.1447
-0.4211 -0.6043 -0.1346
-0.4348 -0.5952 -0.1483
-0.4215 -0.6013 -0.1366
-0.4188 -0.6018 -0.1325
-0.4405 -0.5922 -0.1517
-0.4231 -0.5827 -0.1358
-0.4216 -0.6071 -0.1348
-0.4192 -0.5698 -0.1341
-0.4338 -0.5572 -0.1383
-0.4138 -0.5850 -0.1346
-0.4021 -0.5796 -0.1284
-0.4266 -0.5625 -0.1339
-0.4358 -0.5923 -0.1437
-0.4290 -0.5868 -0.1396
-0.4318 -0.5920 -0.1419
-0.4072 -0.5836 -0.1295
-0.4024 -0.5784 -0.1305
-0.4164 -0.5900 -0.1358
-0.4429 -0.5880 -0.1496
-0.4281 -0.6004 -0.1460
-0.4242 -0.6148 -0.1394
-0.4510 -0.5874 -0.1539
-0.4141 -0.5934 -0.1314
-0.4358 -0.5885 -0.1431
-0.4268 -0.5719 -0.1391
-0.4208 -0.6052 -0.1338
-0.4265 -0.5680 -0.1350
-0.4386 -0.5938 -0.1509
-0.4189 -0.5986 -0.1332
-0.4111 -0.5764 -0.1321
-0.4032 -0.5720 -0.1308
-0.4448 -0.5870 -0.1491
-0.4196 -0.6007 -0.1333
-0.4299 -0.6063 -0.1411
-0.4255 -0.6043 -0.1421
-0.4260 -0.5652 -0.1359
-0.4036 -0.5778 -0.1313
-0.4043 -0.5788 -0.1316
-0.4015 -0.5765 -0.1302
-0.4186 -0.5963 -0.1333
-0.4291 -0.5703 -0.1378
-0.4031 -0.5815 -0.1264
-0.4165 -0.5940 -0.1327
-0.4211 -0.5710 -0.1324
-0.4189 -0.5995 -0.1330
-0.4223 -0.5651 -0.1340
-0.4099 -0.5831 -0.1335
-0.4314 -0.5992 -0.1436
-0.4282 -0.6080 -0.1423
-0.4005 -0.5799 -0.1278
-0.4040 -0.5806 -0.1294
-0.4354 -0.5922 -0.1458
-0.4177 -0.5982 -0.1329
-0.4316 -0.5948 -0.1411
-0.4089 -0.5873 -0.1325
-0.4175 -0.6009 -0.1316
-0.4110 -0.5886 -0.1313
-0.4173 -0.5970 -0.1324
-0.4303 -0.5642 -0.1393
-0.4159 -0.5960 -0.1319
-0.4130 -0.5904 -0.1348
-0.4208 -0.5997 -0.1349
-0.4309 -0.5855 -0.1403
-0.4064 -0.5831 -0.1262
-0.4306 -0.5571 -0.1355
-0.4220 -0.5695 -0.1323
-0.4263 -0.6038 -0.1419
-0.4174 -0.5910 -0.1367
-0.4354 -0.5852 -0.1428
-0.4238 -0.6110 -0.1404
-0.4041 -0.5823 -0.1298
-0.4004 -0.5725 -0.1297
-0.4059 -0.5743 -0.1327
-0.4357 -0.5953 -0.1494
-0.4496 -0.5874 -0.1553
-0.4103 -0.5880 -0.1333
-0.4226 -0.6022 -0.1395
-0.4250 -0.6140 -0.1401
-0.4488 -0.5893 -0.1539
-0.2944 -0.4725 -0.0995
-0.2932 -0.4558 -0.0960
-0.2941 -0.4600 -0.0968
-0.2955 -0.4795 -0.1009
-0.2938 -0.4624 -0.0972
-0.2923 -0.4761 -0.1001
-0.2912 -0.4764 -0.1002
-0.2989 -0.4826 -0.1017
-0.2880 -0.4745 -0.0997
-0.2798 -0.4722 -0.0992
-0.2962 -0.4817 -0.1015
-0.2828 -0.4720 -0.0990
-0.2964 -0.4802 -0.1011
-0.2944 -0.4582 -0.0965
-0.2945 -0.4578 -0.0965
-0.2592 -0.4690 -0.0980
-0.2822 -0.4730 -0.0993
-0.2943 -0.4556 -0.0960
-0.2839 -0.4735 -0.0994
-0.2963 -0.4801 -0.1011
-0.2940 -0.4692 -0.0988
-0.2899 -0.4547 -0.0957
-0.2952 -0.4786 -0.1008
-0.2803 -0.4723 -0.0992
-0.2928 -0.4550 -0.0959
-0.2951 -0.4759 -0.1003
-0.2810 -0.4730 -0.0988
-0.2849 -0.4724 -0.0993
-0.2753 -0.4716 -0.0989
-0.2761 -0.4703 -0.0987
-0.2938 -0.4782 -0.1006
-0.2930 -0.4554 -0.0960
-0.2963 -0.4674 -0.0984
-0.2956 -0.4792 -0.1009
-0.2950 -0.4794 -0.1009
-0.2919 -0.4708 -0.0990
-0.2922 -0.4541 -0.0957
-0.2944 -0.4781 -0.1006
-0.2960 -0.4808 -0.1015
-0.2906 -0.4643 -0.0971
-0.2932 -0.4611 -0.0973
-0.2777 -0.4738 -0.0990
-0.2956 -0.4793 -0.1009
-0.2799 -0.4722 -0.0991
-0.2939 -0.4770 -0.1004
-0.2821 -0.4729 -0.0994
-0.2852 -0.4728 -0.0989
-0.2949 -0.4751 -0.1000
-0.2932 -0.4569 -0.0963
-0.2915 -0.4748 -0.0998
-0.2871 -0.4664 -0.0981
-0.2893 -0.4659 -0.0980
-0.2877 -0.4744 -0.0998
-0.2952 -0.4744 -0.1000
-0.2962 -0.4778 -0.1007
-0.2907 -0.4550 -0.0958
-0.2976 -0.4785 -0.1010
-0.2922 -0.4769 -0.1004
-0.2876 -0.4694 -0.0987
-0.2958 -0.4764 -0.1005
-0.2842 -0.4723 -0.0992
-0.2937 -0.4687 -0.0987
-0.2960 -0.4799 -0.1010
-0.2869 -0.4732 -0.0992
-0.2756 -0.4720 -0.0990
-0.2939 -0.4744 -0.0999
-0.2773 -0.4708 -0.0988
-0.2748 -0.4718 -0.0990
-0.2869 -0.4746 -0.0998
-0.2927 -0.4541 -0.0957
-0.2949 -0.4706 -0.0988
-0.2836 -0.4716 -0.0990
-0.2965 -0.4669 -0.0983
-0.2875 -0.4729 -0.0994
-0.2791 -0.4727 -0.0991
-0.2990 -0.4821 -0.1017
-0.2976 -0.4825 -0.1017
-0.2926 -0.4762 -0.1002
-0.2931 -0.4764 -0.1003
