ply
format ascii 1.0
comment Created by Blender 2.80 (sub 75) - www.blender.org, source file: ''
element vertex 228
property float x
property float y
property float z
property float nx
property float ny
property float nz
property float s
property float t
element face 124
property list uchar uint vertex_indices
end_header
0.265564 0.016233 -0.098239 0.995159 -0.097969 0.007833 1.000000 0.500000
0.263934 0.015781 0.103171 0.995159 -0.097969 0.007833 1.000000 1.000000
0.258083 -0.043671 0.102990 0.995159 -0.097969 0.007833 0.968750 1.000000
0.259712 -0.043219 -0.098420 0.995159 -0.097969 0.007833 0.968750 0.500000
0.259712 -0.043219 -0.098420 0.956928 -0.290238 0.007091 0.968750 0.500000
0.258083 -0.043671 0.102990 0.956928 -0.290238 0.007091 0.968750 1.000000
0.240746 -0.100839 0.102721 0.956928 -0.290238 0.007091 0.937500 1.000000
0.242375 -0.100386 -0.098689 0.956928 -0.290238 0.007091 0.937500 0.500000
0.242375 -0.100386 -0.098689 0.881924 -0.471353 0.006078 0.937500 0.500000
0.240746 -0.100839 0.102721 0.881924 -0.471353 0.006078 0.937500 1.000000
0.212589 -0.153525 0.102375 0.881924 -0.471353 0.006078 0.906250 1.000000
0.214219 -0.153073 -0.099035 0.881924 -0.471353 0.006078 0.906250 0.500000
0.214219 -0.153073 -0.099035 0.773027 -0.634355 0.004831 0.906250 0.500000
0.212589 -0.153525 0.102375 0.773027 -0.634355 0.004831 0.906250 1.000000
0.174695 -0.199706 0.101965 0.773027 -0.634355 0.004831 0.875000 1.000000
0.214219 -0.153073 -0.099035 0.773027 -0.634355 0.004830 0.906250 0.500000
0.174695 -0.199706 0.101965 0.773027 -0.634355 0.004830 0.875000 1.000000
0.176325 -0.199254 -0.099445 0.773027 -0.634355 0.004830 0.875000 0.500000
0.176325 -0.199254 -0.099445 0.634424 -0.772978 0.003398 0.875000 0.500000
0.174695 -0.199706 0.101965 0.634424 -0.772978 0.003398 0.875000 1.000000
0.128520 -0.237606 0.101506 0.634424 -0.772978 0.003398 0.843750 1.000000
0.130150 -0.237154 -0.099904 0.634424 -0.772978 0.003398 0.843750 0.500000
0.130150 -0.237154 -0.099904 0.471439 -0.881897 0.001834 0.843750 0.500000
0.128520 -0.237606 0.101506 0.471439 -0.881897 0.001834 0.843750 1.000000
0.075838 -0.265770 0.101017 0.471439 -0.881897 0.001834 0.812500 1.000000
0.077468 -0.265317 -0.100394 0.471439 -0.881897 0.001834 0.812500 0.500000
0.077468 -0.265317 -0.100394 0.290339 -0.956924 0.000200 0.812500 0.500000
0.075838 -0.265770 0.101017 0.290339 -0.956924 0.000200 0.812500 1.000000
0.018675 -0.283114 0.100515 0.290339 -0.956924 0.000200 0.781250 1.000000
0.020304 -0.282661 -0.100895 0.290339 -0.956924 0.000200 0.781250 0.500000
0.020304 -0.282661 -0.100895 0.098080 -0.995177 -0.001441 0.781250 0.500000
0.018675 -0.283114 0.100515 0.098080 -0.995177 -0.001441 0.781250 1.000000
-0.040775 -0.288972 0.100021 0.098080 -0.995177 -0.001441 0.750000 1.000000
-0.039145 -0.288520 -0.101389 0.098080 -0.995177 -0.001441 0.750000 0.500000
-0.039145 -0.288520 -0.101389 -0.097948 -0.995187 -0.003028 0.750000 0.500000
-0.040775 -0.288972 0.100021 -0.097948 -0.995187 -0.003028 0.750000 1.000000
-0.100225 -0.283119 0.099553 -0.097948 -0.995187 -0.003028 0.718750 1.000000
-0.098595 -0.282667 -0.101857 -0.097948 -0.995187 -0.003028 0.718750 0.500000
-0.098595 -0.282667 -0.101857 -0.290211 -0.956952 -0.004497 0.718750 0.500000
-0.100225 -0.283119 0.099553 -0.290211 -0.956952 -0.004497 0.718750 1.000000
-0.157391 -0.265781 0.099129 -0.290211 -0.956952 -0.004497 0.687500 1.000000
-0.155761 -0.265329 -0.102281 -0.290211 -0.956952 -0.004497 0.687500 0.500000
-0.155761 -0.265329 -0.102281 -0.471322 -0.881942 -0.005794 0.687500 0.500000
-0.157391 -0.265781 0.099129 -0.471322 -0.881942 -0.005794 0.687500 1.000000
-0.210076 -0.237623 0.098766 -0.471322 -0.881942 -0.005794 0.656250 1.000000
-0.208447 -0.237170 -0.102644 -0.471322 -0.881942 -0.005794 0.656250 0.500000
-0.208447 -0.237170 -0.102644 -0.634320 -0.773040 -0.006869 0.656250 0.500000
-0.210076 -0.237623 0.098766 -0.634320 -0.773040 -0.006869 0.656250 1.000000
-0.256257 -0.199727 0.098478 -0.634320 -0.773040 -0.006869 0.625000 1.000000
-0.208447 -0.237170 -0.102644 -0.634321 -0.773040 -0.006869 0.656250 0.500000
-0.256257 -0.199727 0.098478 -0.634321 -0.773040 -0.006869 0.625000 1.000000
-0.254627 -0.199274 -0.102933 -0.634321 -0.773040 -0.006869 0.625000 0.500000
-0.254627 -0.199274 -0.102933 -0.772943 -0.634429 -0.007679 0.625000 0.500000
-0.256257 -0.199727 0.098478 -0.772943 -0.634429 -0.007679 0.625000 1.000000
-0.294157 -0.153550 0.098275 -0.772943 -0.634429 -0.007679 0.593750 1.000000
-0.292527 -0.153097 -0.103136 -0.772943 -0.634429 -0.007679 0.593750 0.500000
-0.292527 -0.153097 -0.103136 -0.881861 -0.471439 -0.008195 0.593750 0.500000
-0.294157 -0.153550 0.098275 -0.881861 -0.471439 -0.008195 0.593750 1.000000
-0.322320 -0.100866 0.098165 -0.881861 -0.471439 -0.008195 0.562500 1.000000
-0.320690 -0.100414 -0.103245 -0.881861 -0.471439 -0.008195 0.562500 0.500000
-0.320690 -0.100414 -0.103245 -0.956890 -0.290330 -0.008395 0.562500 0.500000
-0.322320 -0.100866 0.098165 -0.956890 -0.290330 -0.008395 0.562500 1.000000
-0.339665 -0.043700 0.098153 -0.956890 -0.290330 -0.008395 0.531250 1.000000
-0.338035 -0.043248 -0.103257 -0.956890 -0.290330 -0.008395 0.531250 0.500000
-0.338035 -0.043248 -0.103257 -0.995146 -0.098065 -0.008273 0.531250 0.500000
-0.339665 -0.043700 0.098153 -0.995146 -0.098065 -0.008273 0.531250 1.000000
-0.345524 0.015751 0.098239 -0.995146 -0.098065 -0.008273 0.500000 1.000000
-0.343894 0.016204 -0.103171 -0.995146 -0.098065 -0.008273 0.500000 0.500000
-0.343894 0.016204 -0.103171 -0.995159 0.097969 -0.007833 0.500000 0.500000
-0.345524 0.015751 0.098239 -0.995159 0.097969 -0.007833 0.500000 1.000000
-0.339673 0.075203 0.098420 -0.995159 0.097969 -0.007833 0.468750 1.000000
-0.338043 0.075655 -0.102990 -0.995159 0.097969 -0.007833 0.468750 0.500000
-0.338043 0.075655 -0.102990 -0.956928 0.290239 -0.007091 0.468750 0.500000
-0.339673 0.075203 0.098420 -0.956928 0.290239 -0.007091 0.468750 1.000000
-0.322336 0.132371 0.098689 -0.956928 0.290239 -0.007091 0.437500 1.000000
-0.320706 0.132823 -0.102721 -0.956928 0.290239 -0.007091 0.437500 0.500000
-0.320706 0.132823 -0.102721 -0.881923 0.471353 -0.006078 0.437500 0.500000
-0.322336 0.132371 0.098689 -0.881923 0.471353 -0.006078 0.437500 1.000000
-0.294179 0.185057 0.099035 -0.881923 0.471353 -0.006078 0.406250 1.000000
-0.292549 0.185509 -0.102375 -0.881923 0.471353 -0.006078 0.406250 0.500000
-0.292549 0.185509 -0.102375 -0.773026 0.634355 -0.004830 0.406250 0.500000
-0.294179 0.185057 0.099035 -0.773026 0.634355 -0.004830 0.406250 1.000000
-0.256285 0.231238 0.099445 -0.773026 0.634355 -0.004830 0.375000 1.000000
-0.292549 0.185509 -0.102375 -0.773027 0.634355 -0.004830 0.406250 0.500000
-0.256285 0.231238 0.099445 -0.773027 0.634355 -0.004830 0.375000 1.000000
-0.254655 0.231690 -0.101965 -0.773027 0.634355 -0.004830 0.375000 0.500000
-0.254655 0.231690 -0.101965 -0.634423 0.772978 -0.003398 0.375000 0.500000
-0.256285 0.231238 0.099445 -0.634423 0.772978 -0.003398 0.375000 1.000000
-0.210110 0.269138 0.099904 -0.634423 0.772978 -0.003398 0.343750 1.000000
-0.208480 0.269590 -0.101506 -0.634423 0.772978 -0.003398 0.343750 0.500000
-0.208480 0.269590 -0.101506 -0.471439 0.881897 -0.001834 0.343750 0.500000
-0.210110 0.269138 0.099904 -0.471439 0.881897 -0.001834 0.343750 1.000000
-0.157428 0.297301 0.100394 -0.471439 0.881897 -0.001834 0.312500 1.000000
-0.155798 0.297754 -0.101017 -0.471439 0.881897 -0.001834 0.312500 0.500000
-0.155798 0.297754 -0.101017 -0.290338 0.956924 -0.000200 0.312500 0.500000
-0.157428 0.297301 0.100394 -0.290338 0.956924 -0.000200 0.312500 1.000000
-0.100264 0.314646 0.100895 -0.290338 0.956924 -0.000200 0.281250 1.000000
-0.098634 0.315098 -0.100515 -0.290338 0.956924 -0.000200 0.281250 0.500000
-0.098634 0.315098 -0.100515 -0.098079 0.995178 0.001441 0.281250 0.500000
-0.100264 0.314646 0.100895 -0.098079 0.995178 0.001441 0.281250 1.000000
-0.040815 0.320504 0.101389 -0.098079 0.995178 0.001441 0.250000 1.000000
-0.039185 0.320956 -0.100021 -0.098079 0.995178 0.001441 0.250000 0.500000
-0.039185 0.320956 -0.100021 0.097949 0.995187 0.003028 0.250000 0.500000
-0.040815 0.320504 0.101389 0.097949 0.995187 0.003028 0.250000 1.000000
0.018635 0.314651 0.101857 0.097949 0.995187 0.003028 0.218750 1.000000
0.020265 0.315103 -0.099553 0.097949 0.995187 0.003028 0.218750 0.500000
0.020265 0.315103 -0.099553 0.290212 0.956952 0.004497 0.218750 0.500000
0.018635 0.314651 0.101857 0.290212 0.956952 0.004497 0.218750 1.000000
0.075801 0.297312 0.102281 0.290212 0.956952 0.004497 0.187500 1.000000
0.077431 0.297765 -0.099129 0.290212 0.956952 0.004497 0.187500 0.500000
0.077431 0.297765 -0.099129 0.471323 0.881941 0.005795 0.187500 0.500000
0.075801 0.297312 0.102281 0.471323 0.881941 0.005795 0.187500 1.000000
0.128487 0.269154 0.102644 0.471323 0.881941 0.005795 0.156250 1.000000
0.130117 0.269607 -0.098766 0.471323 0.881941 0.005795 0.156250 0.500000
0.130117 0.269607 -0.098766 0.634322 0.773039 0.006869 0.156250 0.500000
0.128487 0.269154 0.102644 0.634322 0.773039 0.006869 0.156250 1.000000
0.174667 0.231258 0.102933 0.634322 0.773039 0.006869 0.125000 1.000000
0.176297 0.231711 -0.098478 0.634322 0.773039 0.006869 0.125000 0.500000
0.176297 0.231711 -0.098478 0.772944 0.634428 0.007679 0.125000 0.500000
0.174667 0.231258 0.102933 0.772944 0.634428 0.007679 0.125000 1.000000
0.212567 0.185081 0.103136 0.772944 0.634428 0.007679 0.093750 1.000000
0.214197 0.185533 -0.098275 0.772944 0.634428 0.007679 0.093750 0.500000
0.214197 0.185533 -0.098275 0.881861 0.471437 0.008195 0.093750 0.500000
0.212567 0.185081 0.103136 0.881861 0.471437 0.008195 0.093750 1.000000
0.240730 0.132397 0.103245 0.881861 0.471437 0.008195 0.062500 1.000000
0.242360 0.132850 -0.098165 0.881861 0.471437 0.008195 0.062500 0.500000
0.240746 -0.100839 0.102721 -0.008091 -0.002246 0.999965 0.341844 0.471731
0.258083 -0.043671 0.102990 -0.008091 -0.002246 0.999965 0.296822 0.485388
0.263934 0.015781 0.103171 -0.008091 -0.002246 0.999965 0.250000 0.490000
0.263934 0.015781 0.103171 -0.008092 -0.002246 0.999965 0.250000 0.490000
0.258075 0.075231 0.103257 -0.008092 -0.002246 0.999965 0.203179 0.485389
0.240730 0.132397 0.103245 -0.008092 -0.002246 0.999965 0.158156 0.471731
0.212567 0.185081 0.103136 -0.008092 -0.002246 0.999965 0.116663 0.449553
0.174667 0.231258 0.102933 -0.008092 -0.002246 0.999965 0.080295 0.419706
0.174667 0.231258 0.102933 -0.008091 -0.002246 0.999965 0.080295 0.419706
0.128487 0.269154 0.102644 -0.008091 -0.002246 0.999965 0.050447 0.383337
0.075801 0.297312 0.102281 -0.008091 -0.002246 0.999965 0.028269 0.341844
0.075801 0.297312 0.102281 -0.008092 -0.002247 0.999965 0.028269 0.341844
0.018635 0.314651 0.101857 -0.008092 -0.002247 0.999965 0.014612 0.296822
-0.040815 0.320504 0.101389 -0.008092 -0.002247 0.999965 0.010000 0.250000
-0.040815 0.320504 0.101389 -0.008091 -0.002246 0.999965 0.010000 0.250000
-0.100264 0.314646 0.100895 -0.008091 -0.002246 0.999965 0.014611 0.203179
-0.157428 0.297301 0.100394 -0.008091 -0.002246 0.999965 0.028269 0.158156
-0.210110 0.269138 0.099904 -0.008091 -0.002246 0.999965 0.050447 0.116663
-0.256285 0.231238 0.099445 -0.008091 -0.002246 0.999965 0.080294 0.080294
-0.256285 0.231238 0.099445 -0.008092 -0.002246 0.999965 0.080294 0.080294
-0.294179 0.185057 0.099035 -0.008092 -0.002246 0.999965 0.116663 0.050447
-0.322336 0.132371 0.098689 -0.008092 -0.002246 0.999965 0.158156 0.028269
-0.322336 0.132371 0.098689 -0.008091 -0.002246 0.999965 0.158156 0.028269
-0.339673 0.075203 0.098420 -0.008091 -0.002246 0.999965 0.203178 0.014612
-0.345524 0.015751 0.098239 -0.008091 -0.002246 0.999965 0.250000 0.010000
-0.345524 0.015751 0.098239 -0.008092 -0.002246 0.999965 0.250000 0.010000
-0.339665 -0.043700 0.098153 -0.008092 -0.002246 0.999965 0.296822 0.014612
-0.322320 -0.100866 0.098165 -0.008092 -0.002246 0.999965 0.341844 0.028269
-0.294157 -0.153550 0.098275 -0.008092 -0.002246 0.999965 0.383337 0.050447
-0.256257 -0.199727 0.098478 -0.008092 -0.002246 0.999965 0.419706 0.080294
-0.256257 -0.199727 0.098478 -0.008091 -0.002246 0.999965 0.419706 0.080294
-0.210076 -0.237623 0.098766 -0.008091 -0.002246 0.999965 0.449553 0.116663
-0.157391 -0.265781 0.099129 -0.008091 -0.002246 0.999965 0.471731 0.158156
-0.157391 -0.265781 0.099129 -0.008091 -0.002245 0.999965 0.471731 0.158156
-0.100225 -0.283119 0.099553 -0.008091 -0.002245 0.999965 0.485388 0.203178
-0.040775 -0.288972 0.100021 -0.008091 -0.002245 0.999965 0.490000 0.250000
-0.040775 -0.288972 0.100021 -0.008091 -0.002246 0.999965 0.490000 0.250000
0.018675 -0.283114 0.100515 -0.008091 -0.002246 0.999965 0.485388 0.296822
0.075838 -0.265770 0.101017 -0.008091 -0.002246 0.999965 0.471731 0.341844
0.128520 -0.237606 0.101506 -0.008091 -0.002246 0.999965 0.449553 0.383337
0.174695 -0.199706 0.101965 -0.008091 -0.002246 0.999965 0.419706 0.419706
0.174695 -0.199706 0.101965 -0.008092 -0.002246 0.999965 0.419706 0.419706
0.212589 -0.153525 0.102375 -0.008092 -0.002246 0.999965 0.383337 0.449553
0.240746 -0.100839 0.102721 -0.008092 -0.002246 0.999965 0.341844 0.471731
0.240730 0.132397 0.103245 -0.008091 -0.002246 0.999965 0.158156 0.471731
-0.322320 -0.100866 0.098165 -0.008091 -0.002246 0.999965 0.341844 0.028269
-0.157391 -0.265781 0.099129 -0.008092 -0.002246 0.999965 0.471731 0.158156
0.242360 0.132850 -0.098165 0.956890 0.290329 0.008395 0.062500 0.500000
0.240730 0.132397 0.103245 0.956890 0.290329 0.008395 0.062500 1.000000
0.258075 0.075231 0.103257 0.956890 0.290329 0.008395 0.031250 1.000000
0.259705 0.075684 -0.098153 0.956890 0.290329 0.008395 0.031250 0.500000
0.259705 0.075684 -0.098153 0.995146 0.098065 0.008273 0.031250 0.500000
0.258075 0.075231 0.103257 0.995146 0.098065 0.008273 0.031250 1.000000
0.263934 0.015781 0.103171 0.995146 0.098065 0.008273 0.000000 1.000000
0.265564 0.016233 -0.098239 0.995146 0.098065 0.008273 0.000000 0.500000
0.259705 0.075684 -0.098153 0.008091 0.002246 -0.999965 0.703179 0.485389
0.265564 0.016233 -0.098239 0.008091 0.002246 -0.999965 0.750000 0.490000
0.259712 -0.043219 -0.098420 0.008091 0.002246 -0.999965 0.796822 0.485388
0.259712 -0.043219 -0.098420 0.008092 0.002246 -0.999965 0.796822 0.485388
0.242375 -0.100386 -0.098689 0.008092 0.002246 -0.999965 0.841844 0.471731
0.214219 -0.153073 -0.099035 0.008092 0.002246 -0.999965 0.883337 0.449553
0.214219 -0.153073 -0.099035 0.008091 0.002246 -0.999965 0.883337 0.449553
0.176325 -0.199254 -0.099445 0.008091 0.002246 -0.999965 0.919706 0.419706
0.130150 -0.237154 -0.099904 0.008091 0.002246 -0.999965 0.949553 0.383337
0.077468 -0.265317 -0.100394 0.008091 0.002246 -0.999965 0.971731 0.341844
0.020304 -0.282661 -0.100895 0.008091 0.002246 -0.999965 0.985388 0.296822
-0.039145 -0.288520 -0.101389 0.008091 0.002246 -0.999965 0.990000 0.250000
-0.098595 -0.282667 -0.101857 0.008091 0.002246 -0.999965 0.985388 0.203178
-0.155761 -0.265329 -0.102281 0.008091 0.002246 -0.999965 0.971731 0.158156
-0.208447 -0.237170 -0.102644 0.008091 0.002246 -0.999965 0.949553 0.116663
-0.208447 -0.237170 -0.102644 0.008092 0.002246 -0.999965 0.949553 0.116663
-0.254627 -0.199274 -0.102933 0.008092 0.002246 -0.999965 0.919706 0.080294
-0.292527 -0.153097 -0.103136 0.008092 0.002246 -0.999965 0.883337 0.050447
-0.292527 -0.153097 -0.103136 0.008090 0.002245 -0.999965 0.883337 0.050447
-0.320690 -0.100414 -0.103245 0.008090 0.002245 -0.999965 0.841844 0.028269
-0.338035 -0.043248 -0.103257 0.008090 0.002245 -0.999965 0.796822 0.014612
-0.338035 -0.043248 -0.103257 0.008091 0.002246 -0.999965 0.796822 0.014612
-0.343894 0.016204 -0.103171 0.008091 0.002246 -0.999965 0.750000 0.010000
-0.338043 0.075655 -0.102990 0.008091 0.002246 -0.999965 0.703178 0.014612
-0.338043 0.075655 -0.102990 0.008092 0.002246 -0.999965 0.703178 0.014612
-0.320706 0.132823 -0.102721 0.008092 0.002246 -0.999965 0.658156 0.028269
-0.292549 0.185509 -0.102375 0.008092 0.002246 -0.999965 0.616663 0.050447
-0.292549 0.185509 -0.102375 0.008091 0.002246 -0.999965 0.616663 0.050447
-0.254655 0.231690 -0.101965 0.008091 0.002246 -0.999965 0.580294 0.080294
-0.208480 0.269590 -0.101506 0.008091 0.002246 -0.999965 0.550447 0.116663
-0.208480 0.269590 -0.101506 0.008092 0.002246 -0.999965 0.550447 0.116663
-0.155798 0.297754 -0.101017 0.008092 0.002246 -0.999965 0.528269 0.158156
-0.098634 0.315098 -0.100515 0.008092 0.002246 -0.999965 0.514611 0.203179
-0.098634 0.315098 -0.100515 0.008091 0.002246 -0.999965 0.514611 0.203179
-0.039185 0.320956 -0.100021 0.008091 0.002246 -0.999965 0.510000 0.250000
0.020265 0.315103 -0.099553 0.008091 0.002246 -0.999965 0.514612 0.296822
0.020265 0.315103 -0.099553 0.008091 0.002245 -0.999965 0.514612 0.296822
0.077431 0.297765 -0.099129 0.008091 0.002245 -0.999965 0.528269 0.341844
0.130117 0.269607 -0.098766 0.008091 0.002245 -0.999965 0.550447 0.383337
0.130117 0.269607 -0.098766 0.008092 0.002246 -0.999965 0.550447 0.383337
0.176297 0.231711 -0.098478 0.008092 0.002246 -0.999965 0.580295 0.419706
0.214197 0.185533 -0.098275 0.008092 0.002246 -0.999965 0.616663 0.449553
0.214197 0.185533 -0.098275 0.008091 0.002246 -0.999965 0.616663 0.449553
0.242360 0.132850 -0.098165 0.008091 0.002246 -0.999965 0.658156 0.471731
-0.338035 -0.043248 -0.103257 0.008092 0.002246 -0.999965 0.796822 0.014612
0.130117 0.269607 -0.098766 0.008091 0.002246 -0.999965 0.550447 0.383337
0.259705 0.075684 -0.098153 0.008092 0.002246 -0.999965 0.703179 0.485389
3 0 1 2
3 0 2 3
3 4 5 6
3 4 6 7
3 8 9 10
3 8 10 11
3 12 13 14
3 15 16 17
3 18 19 20
3 18 20 21
3 22 23 24
3 22 24 25
3 26 27 28
3 26 28 29
3 30 31 32
3 30 32 33
3 34 35 36
3 34 36 37
3 38 39 40
3 38 40 41
3 42 43 44
3 42 44 45
3 46 47 48
3 49 50 51
3 52 53 54
3 52 54 55
3 56 57 58
3 56 58 59
3 60 61 62
3 60 62 63
3 64 65 66
3 64 66 67
3 68 69 70
3 68 70 71
3 72 73 74
3 72 74 75
3 76 77 78
3 76 78 79
3 80 81 82
3 83 84 85
3 86 87 88
3 86 88 89
3 90 91 92
3 90 92 93
3 94 95 96
3 94 96 97
3 98 99 100
3 98 100 101
3 102 103 104
3 102 104 105
3 106 107 108
3 106 108 109
3 110 111 112
3 110 112 113
3 114 115 116
3 114 116 117
3 118 119 120
3 118 120 121
3 122 123 124
3 122 124 125
3 126 127 128
3 129 130 131
3 131 132 133
3 134 135 136
3 137 138 139
3 140 141 142
3 142 143 144
3 145 146 147
3 148 149 150
3 151 152 153
3 153 154 155
3 156 157 158
3 159 160 161
3 162 163 164
3 164 165 166
3 167 168 169
3 126 128 170
3 170 134 136
3 136 140 142
3 142 144 148
3 148 150 171
3 153 155 172
3 158 162 164
3 164 166 126
3 126 170 136
3 136 142 148
3 148 171 158
3 158 164 126
3 126 136 148
3 148 158 126
3 173 174 175
3 173 175 176
3 177 178 179
3 177 179 180
3 181 182 183
3 184 185 186
3 187 188 189
3 189 190 191
3 191 192 193
3 193 194 195
3 196 197 198
3 199 200 201
3 202 203 204
3 205 206 207
3 208 209 210
3 211 212 213
3 214 215 216
3 217 218 219
3 220 221 222
3 223 224 181
3 181 183 187
3 187 189 191
3 191 193 195
3 196 198 225
3 202 204 208
3 208 210 214
3 214 216 226
3 220 222 227
3 181 187 191
3 191 195 202
3 202 208 214
3 214 226 181
3 181 191 202
3 202 214 181
