ply
format ascii 1.0
comment VCGLIB generated
element vertex 1000
property float x
property float y
property float z
property float nx
property float ny
property float nz
property uchar red
property uchar green
property uchar blue
property uchar alpha
element face 0
property list uchar int vertex_indices
end_header
0.261759 0.184737 0 0 0 0 255 255 255 255 
0.296772 0.204438 0 0 0 0 255 255 255 255 
0.765001 0.97262 0 0 0 0 255 255 255 255 
0.17353 0.156176 0 0 0 0 255 255 255 255 
0.499289 0.901023 0 0 0 0 255 255 255 255 
0.134304 0.302152 0 0 0 0 255 255 255 255 
0.710315 0.422526 0 0 0 0 255 255 255 255 
0.18368 0.605182 0 0 0 0 255 255 255 255 
0.24796 0.282111 0 0 0 0 255 255 255 255 
0.378087 0.120468 0 0 0 0 255 255 255 255 
0.104111 0.200857 0 0 0 0 255 255 255 255 
0.803692 0.424396 0 0 0 0 255 255 255 255 
0.103533 0.447856 0 0 0 0 255 255 255 255 
0.0553579 0.00486374 0 0 0 0 255 255 255 255 
0.200037 0.426563 0 0 0 0 255 255 255 255 
0.341088 0.741827 0 0 0 0 255 255 255 255 
0.456248 0.244148 0 0 0 0 255 255 255 255 
0.767868 0.740368 0 0 0 0 255 255 255 255 
0.00407697 1.0005 0 0 0 0 255 255 255 255 
0.0193097 0.45771 0 0 0 0 255 255 255 255 
0.10117 0.399171 0 0 0 0 255 255 255 255 
0.106739 0.311762 0 0 0 0 255 255 255 255 
0.934385 0.983702 0 0 0 0 255 255 255 255 
0.110198 0.290157 0 0 0 0 255 255 255 255 
0.898883 0.0238762 0 0 0 0 255 255 255 255 
0.173784 0.587213 0 0 0 0 255 255 255 255 
0.737748 0.72632 0 0 0 0 255 255 255 255 
0.955769 0.900258 0 0 0 0 255 255 255 255 
0.290059 0.629028 0 0 0 0 255 255 255 255 
0.186384 0.38718 0 0 0 0 255 255 255 255 
0.445626 0.466306 0 0 0 0 255 255 255 255 
0.9802 0.938787 0 0 0 0 255 255 255 255 
0.884683 0.542436 0 0 0 0 255 255 255 255 
0.914268 0.918997 0 0 0 0 255 255 255 255 
0.115887 0.080976 0 0 0 0 255 255 255 255 
0.442634 0.498818 0 0 0 0 255 255 255 255 
0.466019 0.631051 0 0 0 0 255 255 255 255 
0.274349 0.530004 0 0 0 0 255 255 255 255 
0.141645 0.466595 0 0 0 0 255 255 255 255 
-0.00763662 0.183338 0 0 0 0 255 255 255 255 
0.0766465 0.279362 0 0 0 0 255 255 255 255 
0.926264 0.50739 0 0 0 0 255 255 255 255 
0.276474 0.125665 0 0 0 0 255 255 255 255 
0.823927 0.921067 0 0 0 0 255 255 255 255 
0.843691 0.628761 0 0 0 0 255 255 255 255 
0.598691 0.828105 0 0 0 0 255 255 255 255 
0.688864 0.879322 0 0 0 0 255 255 255 255 
0.843464 0.437146 0 0 0 0 255 255 255 255 
0.875693 0.956116 0 0 0 0 255 255 255 255 
0.674106 0.970766 0 0 0 0 255 255 255 255 
0.401813 0.679869 0 0 0 0 255 255 255 255 
0.787896 0.547191 0 0 0 0 255 255 255 255 
0.510776 0.173768 0 0 0 0 255 255 255 255 
0.717053 0.71871 0 0 0 0 255 255 255 255 
0.494604 0.0154476 0 0 0 0 255 255 255 255 
0.161137 0.729376 0 0 0 0 255 255 255 255 
0.194409 0.230642 0 0 0 0 255 255 255 255 
0.484475 0.829169 0 0 0 0 255 255 255 255 
0.732403 0.489642 0 0 0 0 255 255 255 255 
0.182815 0.657482 0 0 0 0 255 255 255 255 
0.547844 0.459321 0 0 0 0 255 255 255 255 
0.600822 0.726437 0 0 0 0 255 255 255 255 
0.253981 0.749612 0 0 0 0 255 255 255 255 
0.599798 0.433646 0 0 0 0 255 255 255 255 
-0.0059728 0.330884 0 0 0 0 255 255 255 255 
0.0751941 0.359449 0 0 0 0 255 255 255 255 
0.152913 0.627639 0 0 0 0 255 255 255 255 
0.913149 0.836436 0 0 0 0 255 255 255 255 
0.412243 0.445854 0 0 0 0 255 255 255 255 
0.136125 0.832198 0 0 0 0 255 255 255 255 
0.921804 0.528135 0 0 0 0 255 255 255 255 
0.367837 0.609975 0 0 0 0 255 255 255 255 
0.524881 0.898519 0 0 0 0 255 255 255 255 
0.896219 0.960043 0 0 0 0 255 255 255 255 
0.909337 0.904786 0 0 0 0 255 255 255 255 
0.61331 0.983806 0 0 0 0 255 255 255 255 
0.212816 0.50388 0 0 0 0 255 255 255 255 
0.113645 0.573503 0 0 0 0 255 255 255 255 
0.619402 0.302235 0 0 0 0 255 255 255 255 
0.918684 0.790837 0 0 0 0 255 255 255 255 
0.320444 0.567157 0 0 0 0 255 255 255 255 
0.0794224 0.063737 0 0 0 0 255 255 255 255 
0.308319 0.114839 0 0 0 0 255 255 255 255 
0.498318 0.423117 0 0 0 0 255 255 255 255 
0.492955 0.210418 0 0 0 0 255 255 255 255 
0.954758 0.0473539 0 0 0 0 255 255 255 255 
0.140507 0.254199 0 0 0 0 255 255 255 255 
0.375229 0.596935 0 0 0 0 255 255 255 255 
0.458457 0.000688384 0 0 0 0 255 255 255 255 
0.442474 0.467611 0 0 0 0 255 255 255 255 
0.748134 0.929714 0 0 0 0 255 255 255 255 
0.604319 0.074675 0 0 0 0 255 255 255 255 
0.158344 0.00627146 0 0 0 0 255 255 255 255 
0.707511 0.112855 0 0 0 0 255 255 255 255 
0.00657704 0.283459 0 0 0 0 255 255 255 255 
0.34906 0.303694 0 0 0 0 255 255 255 255 
0.443136 0.414586 0 0 0 0 255 255 255 255 
0.333164 0.799886 0 0 0 0 255 255 255 255 
0.226805 0.771692 0 0 0 0 255 255 255 255 
0.294382 0.467196 0 0 0 0 255 255 255 255 
0.329639 0.212758 0 0 0 0 255 255 255 255 
0.0330165 0.934317 0 0 0 0 255 255 255 255 
0.435983 0.554933 0 0 0 0 255 255 255 255 
0.72582 0.395868 0 0 0 0 255 255 255 255 
0.384307 0.544223 0 0 0 0 255 255 255 255 
0.405174 0.0211722 0 0 0 0 255 255 255 255 
0.671586 0.626976 0 0 0 0 255 255 255 255 
0.273203 0.784349 0 0 0 0 255 255 255 255 
0.315384 0.810061 0 0 0 0 255 255 255 255 
0.834953 0.759131 0 0 0 0 255 255 255 255 
0.864539 0.939199 0 0 0 0 255 255 255 255 
0.66554 0.824764 0 0 0 0 255 255 255 255 
0.495482 0.0426735 0 0 0 0 255 255 255 255 
0.76301 0.309094 0 0 0 0 255 255 255 255 
0.469591 0.110692 0 0 0 0 255 255 255 255 
0.944226 0.645359 0 0 0 0 255 255 255 255 
0.423493 0.231521 0 0 0 0 255 255 255 255 
0.687828 0.396932 0 0 0 0 255 255 255 255 
0.873282 0.808093 0 0 0 0 255 255 255 255 
0.381198 0.682621 0 0 0 0 255 255 255 255 
0.865064 0.908304 0 0 0 0 255 255 255 255 
0.413319 0.968457 0 0 0 0 255 255 255 255 
0.460935 0.284133 0 0 0 0 255 255 255 255 
0.445492 0.0992341 0 0 0 0 255 255 255 255 
0.114949 0.97443 0 0 0 0 255 255 255 255 
0.468884 0.491545 0 0 0 0 255 255 255 255 
0.24109 0.327273 0 0 0 0 255 255 255 255 
0.145772 0.861853 0 0 0 0 255 255 255 255 
0.956011 0.742641 0 0 0 0 255 255 255 255 
0.987248 0.537483 0 0 0 0 255 255 255 255 
0.903943 0.0747414 0 0 0 0 255 255 255 255 
0.235356 0.940477 0 0 0 0 255 255 255 255 
0.650687 0.461306 0 0 0 0 255 255 255 255 
0.63015 0.0218205 0 0 0 0 255 255 255 255 
0.295226 0.736507 0 0 0 0 255 255 255 255 
0.302999 0.521735 0 0 0 0 255 255 255 255 
0.395292 0.106305 0 0 0 0 255 255 255 255 
0.524198 0.437783 0 0 0 0 255 255 255 255 
0.975633 0.839206 0 0 0 0 255 255 255 255 
1.00496 0.860564 0 0 0 0 255 255 255 255 
0.795798 0.104478 0 0 0 0 255 255 255 255 
0.760835 0.325204 0 0 0 0 255 255 255 255 
0.364813 0.564882 0 0 0 0 255 255 255 255 
0.766176 0.948915 0 0 0 0 255 255 255 255 
0.681432 0.290602 0 0 0 0 255 255 255 255 
0.871174 0.392541 0 0 0 0 255 255 255 255 
0.852988 0.674931 0 0 0 0 255 255 255 255 
0.548444 0.515688 0 0 0 0 255 255 255 255 
0.487323 0.56679 0 0 0 0 255 255 255 255 
0.635178 0.717228 0 0 0 0 255 255 255 255 
0.0720228 0.3282 0 0 0 0 255 255 255 255 
0.883964 0.875414 0 0 0 0 255 255 255 255 
0.0553523 0.177392 0 0 0 0 255 255 255 255 
0.539044 0.342863 0 0 0 0 255 255 255 255 
0.340757 0.498461 0 0 0 0 255 255 255 255 
0.121779 0.3608 0 0 0 0 255 255 255 255 
0.873575 0.850933 0 0 0 0 255 255 255 255 
0.00959959 0.860668 0 0 0 0 255 255 255 255 
0.283946 0.852989 0 0 0 0 255 255 255 255 
0.188043 0.809444 0 0 0 0 255 255 255 255 
0.236107 0.53899 0 0 0 0 255 255 255 255 
0.126608 0.288922 0 0 0 0 255 255 255 255 
0.679662 1.0039 0 0 0 0 255 255 255 255 
0.581179 0.0419013 0 0 0 0 255 255 255 255 
0.589356 0.290556 0 0 0 0 255 255 255 255 
0.590865 0.745101 0 0 0 0 255 255 255 255 
0.510452 0.779145 0 0 0 0 255 255 255 255 
0.46209 0.0568362 0 0 0 0 255 255 255 255 
0.035782 0.873764 0 0 0 0 255 255 255 255 
0.294512 0.0750867 0 0 0 0 255 255 255 255 
0.838937 0.334513 0 0 0 0 255 255 255 255 
-0.00119288 0.380068 0 0 0 0 255 255 255 255 
0.423268 -0.00209115 0 0 0 0 255 255 255 255 
0.723124 0.912009 0 0 0 0 255 255 255 255 
0.0157655 0.26709 0 0 0 0 255 255 255 255 
0.427054 0.618569 0 0 0 0 255 255 255 255 
0.43065 0.509353 0 0 0 0 255 255 255 255 
0.228195 0.0177591 0 0 0 0 255 255 255 255 
0.777667 0.160209 0 0 0 0 255 255 255 255 
0.686703 0.518959 0 0 0 0 255 255 255 255 
0.110466 0.867544 0 0 0 0 255 255 255 255 
0.334604 0.530127 0 0 0 0 255 255 255 255 
0.210366 0.870315 0 0 0 0 255 255 255 255 
0.281187 0.760541 0 0 0 0 255 255 255 255 
0.761198 0.813922 0 0 0 0 255 255 255 255 
0.71051 0.230421 0 0 0 0 255 255 255 255 
0.227752 0.245816 0 0 0 0 255 255 255 255 
0.645318 0.245128 0 0 0 0 255 255 255 255 
0.631839 0.157778 0 0 0 0 255 255 255 255 
0.576734 0.945971 0 0 0 0 255 255 255 255 
0.13169 0.194202 0 0 0 0 255 255 255 255 
0.246568 0.156564 0 0 0 0 255 255 255 255 
0.780867 0.341 0 0 0 0 255 255 255 255 
0.506494 0.799792 0 0 0 0 255 255 255 255 
0.285293 0.96414 0 0 0 0 255 255 255 255 
0.526051 0.929197 0 0 0 0 255 255 255 255 
0.373552 0.255469 0 0 0 0 255 255 255 255 
0.637003 0.422981 0 0 0 0 255 255 255 255 
0.198578 0.427428 0 0 0 0 255 255 255 255 
0.345497 0.552078 0 0 0 0 255 255 255 255 
0.0241056 0.396645 0 0 0 0 255 255 255 255 
0.712553 0.186103 0 0 0 0 255 255 255 255 
0.806132 0.405475 0 0 0 0 255 255 255 255 
0.401381 0.64139 0 0 0 0 255 255 255 255 
0.143046 0.507472 0 0 0 0 255 255 255 255 
0.380252 0.734083 0 0 0 0 255 255 255 255 
0.76071 0.192862 0 0 0 0 255 255 255 255 
0.198375 0.555675 0 0 0 0 255 255 255 255 
0.971654 0.780625 0 0 0 0 255 255 255 255 
0.00771963 0.102661 0 0 0 0 255 255 255 255 
0.510964 0.829359 0 0 0 0 255 255 255 255 
0.9292 0.191412 0 0 0 0 255 255 255 255 
0.998425 0.549148 0 0 0 0 255 255 255 255 
0.834396 0.246325 0 0 0 0 255 255 255 255 
0.661895 0.703579 0 0 0 0 255 255 255 255 
0.685524 0.243786 0 0 0 0 255 255 255 255 
0.0188537 0.359582 0 0 0 0 255 255 255 255 
-0.0128081 0.558567 0 0 0 0 255 255 255 255 
0.282912 0.153488 0 0 0 0 255 255 255 255 
0.30079 0.611344 0 0 0 0 255 255 255 255 
0.438761 0.66838 0 0 0 0 255 255 255 255 
0.661442 0.286943 0 0 0 0 255 255 255 255 
0.353634 0.866106 0 0 0 0 255 255 255 255 
0.126469 0.0257905 0 0 0 0 255 255 255 255 
0.174925 0.489764 0 0 0 0 255 255 255 255 
0.176363 0.700637 0 0 0 0 255 255 255 255 
0.237908 0.414993 0 0 0 0 255 255 255 255 
0.775331 0.433188 0 0 0 0 255 255 255 255 
0.681599 0.858134 0 0 0 0 255 255 255 255 
0.78862 0.489741 0 0 0 0 255 255 255 255 
0.576896 0.924917 0 0 0 0 255 255 255 255 
0.222027 0.670158 0 0 0 0 255 255 255 255 
0.908611 0.447962 0 0 0 0 255 255 255 255 
0.98303 0.554834 0 0 0 0 255 255 255 255 
0.0554406 0.389902 0 0 0 0 255 255 255 255 
0.066367 0.930471 0 0 0 0 255 255 255 255 
0.501779 0.749374 0 0 0 0 255 255 255 255 
0.838915 0.889885 0 0 0 0 255 255 255 255 
0.881126 0.77666 0 0 0 0 255 255 255 255 
0.810456 0.838445 0 0 0 0 255 255 255 255 
0.777565 0.127349 0 0 0 0 255 255 255 255 
0.0942137 0.512158 0 0 0 0 255 255 255 255 
0.488694 0.0794382 0 0 0 0 255 255 255 255 
0.0832577 0.0177172 0 0 0 0 255 255 255 255 
0.796895 0.511582 0 0 0 0 255 255 255 255 
0.273293 0.346115 0 0 0 0 255 255 255 255 
0.289152 0.782369 0 0 0 0 255 255 255 255 
0.605478 0.276819 0 0 0 0 255 255 255 255 
0.0902677 0.945515 0 0 0 0 255 255 255 255 
0.194104 0.896438 0 0 0 0 255 255 255 255 
0.358233 0.928196 0 0 0 0 255 255 255 255 
0.479272 0.236561 0 0 0 0 255 255 255 255 
0.673292 0.743059 0 0 0 0 255 255 255 255 
0.964755 0.935606 0 0 0 0 255 255 255 255 
0.927393 0.283618 0 0 0 0 255 255 255 255 
0.166552 1.01031 0 0 0 0 255 255 255 255 
0.352607 0.054211 0 0 0 0 255 255 255 255 
0.481946 0.312629 0 0 0 0 255 255 255 255 
0.562433 0.598322 0 0 0 0 255 255 255 255 
0.90353 0.56308 0 0 0 0 255 255 255 255 
0.726009 0.490554 0 0 0 0 255 255 255 255 
0.52639 0.658311 0 0 0 0 255 255 255 255 
0.499266 0.636721 0 0 0 0 255 255 255 255 
0.20186 0.541288 0 0 0 0 255 255 255 255 
0.979754 0.716151 0 0 0 0 255 255 255 255 
0.594574 0.472499 0 0 0 0 255 255 255 255 
0.936493 0.416911 0 0 0 0 255 255 255 255 
0.519953 0.0295684 0 0 0 0 255 255 255 255 
0.490194 0.745608 0 0 0 0 255 255 255 255 
0.540288 0.770329 0 0 0 0 255 255 255 255 
0.56225 0.537365 0 0 0 0 255 255 255 255 
0.456942 0.957656 0 0 0 0 255 255 255 255 
0.29341 0.271086 0 0 0 0 255 255 255 255 
0.802876 0.652144 0 0 0 0 255 255 255 255 
0.557861 0.927282 0 0 0 0 255 255 255 255 
0.77777 -0.00443107 0 0 0 0 255 255 255 255 
0.514108 0.241318 0 0 0 0 255 255 255 255 
0.166293 0.182533 0 0 0 0 255 255 255 255 
0.545307 0.537917 0 0 0 0 255 255 255 255 
0.601739 0.931378 0 0 0 0 255 255 255 255 
0.509746 0.0974232 0 0 0 0 255 255 255 255 
0.151284 0.0445657 0 0 0 0 255 255 255 255 
0.815524 0.464655 0 0 0 0 255 255 255 255 
0.163885 0.913305 0 0 0 0 255 255 255 255 
0.669028 0.688089 0 0 0 0 255 255 255 255 
0.381099 0.144488 0 0 0 0 255 255 255 255 
0.553289 0.885929 0 0 0 0 255 255 255 255 
0.69812 0.0500379 0 0 0 0 255 255 255 255 
0.524256 0.608077 0 0 0 0 255 255 255 255 
0.585331 0.234464 0 0 0 0 255 255 255 255 
0.854122 0.723135 0 0 0 0 255 255 255 255 
0.270936 0.381067 0 0 0 0 255 255 255 255 
0.653241 -0.00831824 0 0 0 0 255 255 255 255 
0.569278 0.0712332 0 0 0 0 255 255 255 255 
0.397718 0.571097 0 0 0 0 255 255 255 255 
0.468361 0.914959 0 0 0 0 255 255 255 255 
0.923419 0.498102 0 0 0 0 255 255 255 255 
0.695886 0.266135 0 0 0 0 255 255 255 255 
0.941624 0.522037 0 0 0 0 255 255 255 255 
0.206365 0.471594 0 0 0 0 255 255 255 255 
0.725834 0.246601 0 0 0 0 255 255 255 255 
0.586859 0.153953 0 0 0 0 255 255 255 255 
0.147684 0.834211 0 0 0 0 255 255 255 255 
0.326292 0.150624 0 0 0 0 255 255 255 255 
0.130909 0.573807 0 0 0 0 255 255 255 255 
0.638084 0.0837587 0 0 0 0 255 255 255 255 
0.720752 0.341717 0 0 0 0 255 255 255 255 
0.387948 0.890546 0 0 0 0 255 255 255 255 
0.758901 0.754396 0 0 0 0 255 255 255 255 
0.621883 0.795052 0 0 0 0 255 255 255 255 
0.0787231 0.218864 0 0 0 0 255 255 255 255 
0.919495 0.676454 0 0 0 0 255 255 255 255 
0.409701 0.514167 0 0 0 0 255 255 255 255 
0.568261 0.657736 0 0 0 0 255 255 255 255 
0.626007 0.48521 0 0 0 0 255 255 255 255 
0.176753 0.327235 0 0 0 0 255 255 255 255 
0.473716 0.41398 0 0 0 0 255 255 255 255 
0.0696994 0.867526 0 0 0 0 255 255 255 255 
0.421215 0.0980227 0 0 0 0 255 255 255 255 
0.0635641 0.909314 0 0 0 0 255 255 255 255 
-0.0018776 0.400352 0 0 0 0 255 255 255 255 
0.753258 0.847092 0 0 0 0 255 255 255 255 
0.930547 0.890251 0 0 0 0 255 255 255 255 
0.128659 0.0690466 0 0 0 0 255 255 255 255 
0.371824 0.722674 0 0 0 0 255 255 255 255 
0.815596 0.318062 0 0 0 0 255 255 255 255 
0.734681 0.578228 0 0 0 0 255 255 255 255 
0.567322 0.0909589 0 0 0 0 255 255 255 255 
0.718044 0.372943 0 0 0 0 255 255 255 255 
0.465893 0.577303 0 0 0 0 255 255 255 255 
0.370863 0.958008 0 0 0 0 255 255 255 255 
0.907361 0.621142 0 0 0 0 255 255 255 255 
0.610984 0.552285 0 0 0 0 255 255 255 255 
0.474139 0.9335 0 0 0 0 255 255 255 255 
0.959692 0.084723 0 0 0 0 255 255 255 255 
0.374683 0.283689 0 0 0 0 255 255 255 255 
0.394606 0.0767226 0 0 0 0 255 255 255 255 
0.167907 0.300436 0 0 0 0 255 255 255 255 
0.611345 0.310854 0 0 0 0 255 255 255 255 
0.936512 0.48072 0 0 0 0 255 255 255 255 
0.242247 0.54008 0 0 0 0 255 255 255 255 
0.780939 0.32975 0 0 0 0 255 255 255 255 
0.218608 0.189368 0 0 0 0 255 255 255 255 
0.619433 0.731203 0 0 0 0 255 255 255 255 
0.0497549 0.0299424 0 0 0 0 255 255 255 255 
0.585512 0.401399 0 0 0 0 255 255 255 255 
0.114725 0.184993 0 0 0 0 255 255 255 255 
0.324445 0.96679 0 0 0 0 255 255 255 255 
0.142316 0.925196 0 0 0 0 255 255 255 255 
0.19441 0.403832 0 0 0 0 255 255 255 255 
0.273275 0.494688 0 0 0 0 255 255 255 255 
0.611893 0.23529 0 0 0 0 255 255 255 255 
0.608025 0.51197 0 0 0 0 255 255 255 255 
0.47484 0.637528 0 0 0 0 255 255 255 255 
0.613266 0.402694 0 0 0 0 255 255 255 255 
0.978043 0.276197 0 0 0 0 255 255 255 255 
0.209852 0.26373 0 0 0 0 255 255 255 255 
0.881489 0.586649 0 0 0 0 255 255 255 255 
0.483608 0.991121 0 0 0 0 255 255 255 255 
0.264248 0.995707 0 0 0 0 255 255 255 255 
0.116838 0.877065 0 0 0 0 255 255 255 255 
0.156364 0.801696 0 0 0 0 255 255 255 255 
0.222406 0.62697 0 0 0 0 255 255 255 255 
0.333705 0.274398 0 0 0 0 255 255 255 255 
0.792829 0.577286 0 0 0 0 255 255 255 255 
0.0180658 0.14068 0 0 0 0 255 255 255 255 
0.558677 0.41372 0 0 0 0 255 255 255 255 
0.47672 0.909128 0 0 0 0 255 255 255 255 
0.133345 0.892724 0 0 0 0 255 255 255 255 
0.473775 0.0331893 0 0 0 0 255 255 255 255 
0.342326 0.701616 0 0 0 0 255 255 255 255 
0.742205 0.259557 0 0 0 0 255 255 255 255 
0.946263 0.61055 0 0 0 0 255 255 255 255 
0.64408 0.809494 0 0 0 0 255 255 255 255 
0.723177 0.674754 0 0 0 0 255 255 255 255 
0.685727 0.550335 0 0 0 0 255 255 255 255 
0.740962 0.45836 0 0 0 0 255 255 255 255 
0.369761 0.324956 0 0 0 0 255 255 255 255 
0.572289 0.681751 0 0 0 0 255 255 255 255 
0.550514 0.395763 0 0 0 0 255 255 255 255 
-0.00474351 0.487598 0 0 0 0 255 255 255 255 
0.814725 0.992331 0 0 0 0 255 255 255 255 
0.639427 0.731176 0 0 0 0 255 255 255 255 
0.0658305 0.726754 0 0 0 0 255 255 255 255 
0.547942 0.0514799 0 0 0 0 255 255 255 255 
0.194883 0.94239 0 0 0 0 255 255 255 255 
0.893528 1.00722 0 0 0 0 255 255 255 255 
0.0745564 0.441888 0 0 0 0 255 255 255 255 
0.810242 0.391085 0 0 0 0 255 255 255 255 
0.733923 0.956212 0 0 0 0 255 255 255 255 
0.4298 0.940554 0 0 0 0 255 255 255 255 
0.471517 0.332046 0 0 0 0 255 255 255 255 
0.803239 0.460634 0 0 0 0 255 255 255 255 
0.696849 0.705713 0 0 0 0 255 255 255 255 
1.00058 0.750869 0 0 0 0 255 255 255 255 
0.43735 0.51872 0 0 0 0 255 255 255 255 
0.228909 0.126774 0 0 0 0 255 255 255 255 
0.639226 0.848488 0 0 0 0 255 255 255 255 
0.898707 0.129667 0 0 0 0 255 255 255 255 
0.707333 0.293965 0 0 0 0 255 255 255 255 
0.871001 0.832717 0 0 0 0 255 255 255 255 
0.0164341 0.275845 0 0 0 0 255 255 255 255 
0.986824 0.334198 0 0 0 0 255 255 255 255 
0.840677 0.0523181 0 0 0 0 255 255 255 255 
0.426972 0.0462062 0 0 0 0 255 255 255 255 
0.624663 0.618179 0 0 0 0 255 255 255 255 
0.325245 0.174961 0 0 0 0 255 255 255 255 
0.652164 0.326492 0 0 0 0 255 255 255 255 
0.863224 0.516298 0 0 0 0 255 255 255 255 
0.367989 0.978095 0 0 0 0 255 255 255 255 
0.0712383 0.668446 0 0 0 0 255 255 255 255 
0.188701 0.280894 0 0 0 0 255 255 255 255 
0.386922 0.195914 0 0 0 0 255 255 255 255 
0.61743 0.896538 0 0 0 0 255 255 255 255 
0.998988 0.905235 0 0 0 0 255 255 255 255 
0.22612 0.805686 0 0 0 0 255 255 255 255 
0.391838 0.464169 0 0 0 0 255 255 255 255 
0.157429 0.778605 0 0 0 0 255 255 255 255 
0.555846 0.499885 0 0 0 0 255 255 255 255 
0.808345 0.961476 0 0 0 0 255 255 255 255 
0.632141 0.827309 0 0 0 0 255 255 255 255 
0.52442 -0.000425234 0 0 0 0 255 255 255 255 
0.683437 0.815188 0 0 0 0 255 255 255 255 
0.782593 0.886414 0 0 0 0 255 255 255 255 
0.543231 0.480812 0 0 0 0 255 255 255 255 
0.115507 0.470817 0 0 0 0 255 255 255 255 
0.5855 0.571383 0 0 0 0 255 255 255 255 
0.763762 0.921759 0 0 0 0 255 255 255 255 
0.582333 0.639933 0 0 0 0 255 255 255 255 
0.0786801 0.498269 0 0 0 0 255 255 255 255 
0.801755 0.865501 0 0 0 0 255 255 255 255 
0.0160669 0.419732 0 0 0 0 255 255 255 255 
-0.00430573 0.815355 0 0 0 0 255 255 255 255 
0.603201 0.19004 0 0 0 0 255 255 255 255 
0.362467 0.463651 0 0 0 0 255 255 255 255 
0.879344 0.00528378 0 0 0 0 255 255 255 255 
0.297945 0.944297 0 0 0 0 255 255 255 255 
0.0936142 1.01117 0 0 0 0 255 255 255 255 
0.701725 0.576941 0 0 0 0 255 255 255 255 
0.685211 0.613518 0 0 0 0 255 255 255 255 
0.859203 0.217829 0 0 0 0 255 255 255 255 
0.294273 0.717498 0 0 0 0 255 255 255 255 
0.521688 0.143698 0 0 0 0 255 255 255 255 
0.963604 0.67308 0 0 0 0 255 255 255 255 
0.809921 0.00843671 0 0 0 0 255 255 255 255 
0.844505 0.0255615 0 0 0 0 255 255 255 255 
0.577516 0.793889 0 0 0 0 255 255 255 255 
0.151685 0.425608 0 0 0 0 255 255 255 255 
0.245933 0.884053 0 0 0 0 255 255 255 255 
0.588538 0.967046 0 0 0 0 255 255 255 255 
0.106191 0.68895 0 0 0 0 255 255 255 255 
0.0775175 0.25895 0 0 0 0 255 255 255 255 
0.716946 0.926254 0 0 0 0 255 255 255 255 
0.644327 0.912191 0 0 0 0 255 255 255 255 
0.573098 0.404471 0 0 0 0 255 255 255 255 
0.426934 0.298249 0 0 0 0 255 255 255 255 
0.520461 0.27791 0 0 0 0 255 255 255 255 
0.371495 0.432796 0 0 0 0 255 255 255 255 
0.96794 0.147871 0 0 0 0 255 255 255 255 
0.271799 0.45872 0 0 0 0 255 255 255 255 
0.327168 0.836455 0 0 0 0 255 255 255 255 
0.589695 0.0268654 0 0 0 0 255 255 255 255 
0.688554 0.313045 0 0 0 0 255 255 255 255 
0.482915 0.199251 0 0 0 0 255 255 255 255 
0.460353 0.136224 0 0 0 0 255 255 255 255 
0.665045 0.226538 0 0 0 0 255 255 255 255 
0.630223 0.34362 0 0 0 0 255 255 255 255 
1.00587 0.689957 0 0 0 0 255 255 255 255 
0.798629 0.0507848 0 0 0 0 255 255 255 255 
0.828391 0.558497 0 0 0 0 255 255 255 255 
0.919468 0.099312 0 0 0 0 255 255 255 255 
0.347378 0.711965 0 0 0 0 255 255 255 255 
0.0219762 0.237156 0 0 0 0 255 255 255 255 
0.750465 0.489043 0 0 0 0 255 255 255 255 
0.999893 0.177195 0 0 0 0 255 255 255 255 
0.72602 0.615828 0 0 0 0 255 255 255 255 
0.943456 0.127211 0 0 0 0 255 255 255 255 
0.259933 0.925816 0 0 0 0 255 255 255 255 
0.723746 1.00436 0 0 0 0 255 255 255 255 
0.790741 0.535952 0 0 0 0 255 255 255 255 
0.665571 0.855322 0 0 0 0 255 255 255 255 
0.698885 0.479831 0 0 0 0 255 255 255 255 
0.94874 0.879653 0 0 0 0 255 255 255 255 
0.40649 0.0938339 0 0 0 0 255 255 255 255 
0.343832 0.697197 0 0 0 0 255 255 255 255 
0.271798 0.27414 0 0 0 0 255 255 255 255 
0.957801 0.998616 0 0 0 0 255 255 255 255 
0.453145 0.0733305 0 0 0 0 255 255 255 255 
0.564663 0.775577 0 0 0 0 255 255 255 255 
0.886153 0.224615 0 0 0 0 255 255 255 255 
0.164424 0.532911 0 0 0 0 255 255 255 255 
0.510789 0.12145 0 0 0 0 255 255 255 255 
0.677863 0.0889822 0 0 0 0 255 255 255 255 
0.731684 0.907652 0 0 0 0 255 255 255 255 
0.778971 0.905865 0 0 0 0 255 255 255 255 
0.682208 0.431122 0 0 0 0 255 255 255 255 
0.873243 0.48613 0 0 0 0 255 255 255 255 
0.0820139 0.238729 0 0 0 0 255 255 255 255 
0.480292 0.356628 0 0 0 0 255 255 255 255 
0.315349 0.0552375 0 0 0 0 255 255 255 255 
0.774992 0.380675 0 0 0 0 255 255 255 255 
0.983214 0.504333 0 0 0 0 255 255 255 255 
0.505624 0.956013 0 0 0 0 255 255 255 255 
0.173729 0.444758 0 0 0 0 255 255 255 255 
0.567075 0.551064 0 0 0 0 255 255 255 255 
1.0038 0.237156 0 0 0 0 255 255 255 255 
0.442204 0.206607 0 0 0 0 255 255 255 255 
0.95265 0.237497 0 0 0 0 255 255 255 255 
0.287967 0.578554 0 0 0 0 255 255 255 255 
0.653407 0.918461 0 0 0 0 255 255 255 255 
0.391261 0.32818 0 0 0 0 255 255 255 255 
0.317279 0.724199 0 0 0 0 255 255 255 255 
0.807424 0.163873 0 0 0 0 255 255 255 255 
0.672738 0.41424 0 0 0 0 255 255 255 255 
0.0299421 0.911746 0 0 0 0 255 255 255 255 
0.629457 0.944317 0 0 0 0 255 255 255 255 
0.0371237 0.356263 0 0 0 0 255 255 255 255 
0.639987 0.876625 0 0 0 0 255 255 255 255 
0.888359 0.716035 0 0 0 0 255 255 255 255 
0.703933 0.979299 0 0 0 0 255 255 255 255 
0.658273 0.87445 0 0 0 0 255 255 255 255 
0.742717 0.632609 0 0 0 0 255 255 255 255 
0.413276 0.137537 0 0 0 0 255 255 255 255 
0.103075 0.110758 0 0 0 0 255 255 255 255 
0.621033 0.450751 0 0 0 0 255 255 255 255 
0.0108602 0.440587 0 0 0 0 255 255 255 255 
0.207067 0.580981 0 0 0 0 255 255 255 255 
0.0309776 0.544492 0 0 0 0 255 255 255 255 
0.433526 0.128282 0 0 0 0 255 255 255 255 
0.530144 0.52497 0 0 0 0 255 255 255 255 
0.390156 0.589735 0 0 0 0 255 255 255 255 
0.814911 0.0941966 0 0 0 0 255 255 255 255 
0.117501 0.503744 0 0 0 0 255 255 255 255 
0.980729 0.210021 0 0 0 0 255 255 255 255 
0.607916 0.583064 0 0 0 0 255 255 255 255 
0.83241 0.137089 0 0 0 0 255 255 255 255 
-0.00849065 0.927451 0 0 0 0 255 255 255 255 
0.262252 0.843013 0 0 0 0 255 255 255 255 
0.581508 0.36294 0 0 0 0 255 255 255 255 
0.548507 0.184858 0 0 0 0 255 255 255 255 
0.293079 0.903044 0 0 0 0 255 255 255 255 
0.59 0.620826 0 0 0 0 255 255 255 255 
0.0177939 0.903759 0 0 0 0 255 255 255 255 
0.963198 0.448096 0 0 0 0 255 255 255 255 
0.67947 0.473116 0 0 0 0 255 255 255 255 
0.848249 0.946724 0 0 0 0 255 255 255 255 
0.437562 0.898391 0 0 0 0 255 255 255 255 
0.444483 0.862641 0 0 0 0 255 255 255 255 
0.470779 0.281798 0 0 0 0 255 255 255 255 
0.382538 0.755808 0 0 0 0 255 255 255 255 
0.133825 0.758266 0 0 0 0 255 255 255 255 
0.542497 0.0238506 0 0 0 0 255 255 255 255 
0.688445 0.335748 0 0 0 0 255 255 255 255 
0.489579 0.870876 0 0 0 0 255 255 255 255 
0.747848 0.4222 0 0 0 0 255 255 255 255 
1.01103 0.601012 0 0 0 0 255 255 255 255 
0.792219 0.242026 0 0 0 0 255 255 255 255 
0.750099 0.0322723 0 0 0 0 255 255 255 255 
0.0756168 0.838837 0 0 0 0 255 255 255 255 
0.993504 0.467833 0 0 0 0 255 255 255 255 
0.418498 0.178219 0 0 0 0 255 255 255 255 
0.567452 0.928641 0 0 0 0 255 255 255 255 
1.0031 0.137384 0 0 0 0 255 255 255 255 
0.852541 0.647082 0 0 0 0 255 255 255 255 
0.683056 0.928817 0 0 0 0 255 255 255 255 
0.638984 0.522489 0 0 0 0 255 255 255 255 
0.411449 0.25746 0 0 0 0 255 255 255 255 
0.204995 0.154958 0 0 0 0 255 255 255 255 
0.0444024 0.231185 0 0 0 0 255 255 255 255 
0.212671 1.00559 0 0 0 0 255 255 255 255 
0.528903 0.967564 0 0 0 0 255 255 255 255 
0.312973 0.306711 0 0 0 0 255 255 255 255 
0.415953 0.337015 0 0 0 0 255 255 255 255 
0.898334 0.389865 0 0 0 0 255 255 255 255 
0.760118 0.469469 0 0 0 0 255 255 255 255 
0.930167 0.940719 0 0 0 0 255 255 255 255 
0.478043 0.47169 0 0 0 0 255 255 255 255 
0.758819 0.593033 0 0 0 0 255 255 255 255 
0.167418 0.415804 0 0 0 0 255 255 255 255 
0.33742 0.457686 0 0 0 0 255 255 255 255 
0.593923 0.853778 0 0 0 0 255 255 255 255 
0.990606 0.667108 0 0 0 0 255 255 255 255 
0.651812 0.771482 0 0 0 0 255 255 255 255 
0.875409 0.644549 0 0 0 0 255 255 255 255 
0.350399 0.232012 0 0 0 0 255 255 255 255 
0.0899948 0.748314 0 0 0 0 255 255 255 255 
0.867063 0.115198 0 0 0 0 255 255 255 255 
0.655127 0.95327 0 0 0 0 255 255 255 255 
0.463305 0.171774 0 0 0 0 255 255 255 255 
0.243639 0.389756 0 0 0 0 255 255 255 255 
0.117182 0.555205 0 0 0 0 255 255 255 255 
0.4103 0.547542 0 0 0 0 255 255 255 255 
0.322847 0.271883 0 0 0 0 255 255 255 255 
0.601957 0.336458 0 0 0 0 255 255 255 255 
0.50605 0.68843 0 0 0 0 255 255 255 255 
0.783857 0.365647 0 0 0 0 255 255 255 255 
0.334066 0.139925 0 0 0 0 255 255 255 255 
0.663086 0.12926 0 0 0 0 255 255 255 255 
0.843224 0.491941 0 0 0 0 255 255 255 255 
0.623955 0.959077 0 0 0 0 255 255 255 255 
0.854065 0.566154 0 0 0 0 255 255 255 255 
0.103589 0.814422 0 0 0 0 255 255 255 255 
0.275699 0.981739 0 0 0 0 255 255 255 255 
0.83445 0.419882 0 0 0 0 255 255 255 255 
0.652525 0.198479 0 0 0 0 255 255 255 255 
0.0564593 0.616164 0 0 0 0 255 255 255 255 
0.364589 0.520529 0 0 0 0 255 255 255 255 
0.0415277 0.583703 0 0 0 0 255 255 255 255 
0.574553 0.523502 0 0 0 0 255 255 255 255 
0.600354 0.762121 0 0 0 0 255 255 255 255 
0.940873 0.534603 0 0 0 0 255 255 255 255 
0.734668 0.892669 0 0 0 0 255 255 255 255 
0.0341019 0.779357 0 0 0 0 255 255 255 255 
0.547263 0.689683 0 0 0 0 255 255 255 255 
0.0182773 0.199759 0 0 0 0 255 255 255 255 
0.146619 0.608602 0 0 0 0 255 255 255 255 
0.139178 0.145766 0 0 0 0 255 255 255 255 
0.736328 0.527958 0 0 0 0 255 255 255 255 
0.354366 0.0920491 0 0 0 0 255 255 255 255 
0.315041 0.781527 0 0 0 0 255 255 255 255 
0.269316 0.244031 0 0 0 0 255 255 255 255 
0.9472 0.704559 0 0 0 0 255 255 255 255 
0.344984 0.426942 0 0 0 0 255 255 255 255 
0.80156 0.087363 0 0 0 0 255 255 255 255 
0.525413 0.721343 0 0 0 0 255 255 255 255 
0.808113 0.801421 0 0 0 0 255 255 255 255 
0.387451 0.953672 0 0 0 0 255 255 255 255 
0.785264 0.941305 0 0 0 0 255 255 255 255 
0.254422 0.21394 0 0 0 0 255 255 255 255 
0.0925871 0.360351 0 0 0 0 255 255 255 255 
0.136813 0.65313 0 0 0 0 255 255 255 255 
0.893597 0.300916 0 0 0 0 255 255 255 255 
0.00304764 0.224329 0 0 0 0 255 255 255 255 
0.434756 0.354119 0 0 0 0 255 255 255 255 
0.0249174 0.315321 0 0 0 0 255 255 255 255 
0.471382 0.865367 0 0 0 0 255 255 255 255 
0.212129 0.103062 0 0 0 0 255 255 255 255 
0.496463 0.000576153 0 0 0 0 255 255 255 255 
0.760879 0.525298 0 0 0 0 255 255 255 255 
0.593205 0.904426 0 0 0 0 255 255 255 255 
0.533479 0.0408078 0 0 0 0 255 255 255 255 
0.0128998 0.526252 0 0 0 0 255 255 255 255 
0.413618 0.712188 0 0 0 0 255 255 255 255 
0.831512 0.611835 0 0 0 0 255 255 255 255 
0.404825 0.29012 0 0 0 0 255 255 255 255 
0.113735 0.895818 0 0 0 0 255 255 255 255 
0.801829 0.801772 0 0 0 0 255 255 255 255 
0.782179 0.763226 0 0 0 0 255 255 255 255 
0.282423 0.314124 0 0 0 0 255 255 255 255 
0.980715 0.117866 0 0 0 0 255 255 255 255 
0.188143 0.726993 0 0 0 0 255 255 255 255 
0.550645 0.857843 0 0 0 0 255 255 255 255 
0.859606 0.0881502 0 0 0 0 255 255 255 255 
0.517355 0.561476 0 0 0 0 255 255 255 255 
0.551435 0.32067 0 0 0 0 255 255 255 255 
0.163906 0.337957 0 0 0 0 255 255 255 255 
0.371923 0.016828 0 0 0 0 255 255 255 255 
0.200636 0.334665 0 0 0 0 255 255 255 255 
0.883363 0.57959 0 0 0 0 255 255 255 255 
0.839799 0.295574 0 0 0 0 255 255 255 255 
0.45734 0.393891 0 0 0 0 255 255 255 255 
0.928634 0.164646 0 0 0 0 255 255 255 255 
0.993829 0.391943 0 0 0 0 255 255 255 255 
0.813361 0.503837 0 0 0 0 255 255 255 255 
0.901567 0.829541 0 0 0 0 255 255 255 255 
0.541563 0.825252 0 0 0 0 255 255 255 255 
0.39054 0.417405 0 0 0 0 255 255 255 255 
0.641308 0.908766 0 0 0 0 255 255 255 255 
0.135833 0.33998 0 0 0 0 255 255 255 255 
0.185497 0.00119033 0 0 0 0 255 255 255 255 
0.445125 0.766713 0 0 0 0 255 255 255 255 
0.240974 0.0905416 0 0 0 0 255 255 255 255 
0.210273 0.746691 0 0 0 0 255 255 255 255 
0.762912 0.281289 0 0 0 0 255 255 255 255 
0.227598 0.561517 0 0 0 0 255 255 255 255 
0.176662 0.025976 0 0 0 0 255 255 255 255 
0.152944 0.218535 0 0 0 0 255 255 255 255 
0.24988 0.68572 0 0 0 0 255 255 255 255 
0.544746 0.242892 0 0 0 0 255 255 255 255 
0.570289 0.151108 0 0 0 0 255 255 255 255 
0.00146924 0.603639 0 0 0 0 255 255 255 255 
0.0658733 0.584181 0 0 0 0 255 255 255 255 
0.733831 0.86285 0 0 0 0 255 255 255 255 
0.303025 0.170455 0 0 0 0 255 255 255 255 
0.571442 0.961716 0 0 0 0 255 255 255 255 
0.133368 0.42219 0 0 0 0 255 255 255 255 
0.496686 0.7215 0 0 0 0 255 255 255 255 
0.245936 0.604047 0 0 0 0 255 255 255 255 
0.0949192 0.423452 0 0 0 0 255 255 255 255 
0.759073 0.296155 0 0 0 0 255 255 255 255 
0.393717 0.375696 0 0 0 0 255 255 255 255 
0.297942 0.369834 0 0 0 0 255 255 255 255 
0.781329 0.450247 0 0 0 0 255 255 255 255 
0.167652 0.257228 0 0 0 0 255 255 255 255 
0.0619709 0.371839 0 0 0 0 255 255 255 255 
0.421009 0.368995 0 0 0 0 255 255 255 255 
0.0584964 0.5118 0 0 0 0 255 255 255 255 
0.729822 0.672668 0 0 0 0 255 255 255 255 
0.770686 0.0177424 0 0 0 0 255 255 255 255 
0.179203 0.374878 0 0 0 0 255 255 255 255 
0.495827 0.495214 0 0 0 0 255 255 255 255 
0.842896 0.465812 0 0 0 0 255 255 255 255 
0.966709 0.180958 0 0 0 0 255 255 255 255 
0.508054 0.667768 0 0 0 0 255 255 255 255 
0.37048 0.840351 0 0 0 0 255 255 255 255 
0.921955 0.460419 0 0 0 0 255 255 255 255 
0.17606 0.612099 0 0 0 0 255 255 255 255 
0.0595982 0.422152 0 0 0 0 255 255 255 255 
0.733005 0.065113 0 0 0 0 255 255 255 255 
0.453521 0.807968 0 0 0 0 255 255 255 255 
0.223608 0.296874 0 0 0 0 255 255 255 255 
0.980213 -0.00847595 0 0 0 0 255 255 255 255 
0.848226 0.862317 0 0 0 0 255 255 255 255 
0.997654 0.798405 0 0 0 0 255 255 255 255 
0.703129 0.451882 0 0 0 0 255 255 255 255 
0.841027 0.179231 0 0 0 0 255 255 255 255 
0.38763 0.891561 0 0 0 0 255 255 255 255 
0.917765 0.215934 0 0 0 0 255 255 255 255 
0.575126 0.117736 0 0 0 0 255 255 255 255 
0.392661 0.135308 0 0 0 0 255 255 255 255 
0.620374 0.645044 0 0 0 0 255 255 255 255 
0.56555 0.204439 0 0 0 0 255 255 255 255 
0.0306744 0.532536 0 0 0 0 255 255 255 255 
0.719826 0.809754 0 0 0 0 255 255 255 255 
0.548737 0.771266 0 0 0 0 255 255 255 255 
0.161144 0.965716 0 0 0 0 255 255 255 255 
0.214299 0.233981 0 0 0 0 255 255 255 255 
0.558373 0.70542 0 0 0 0 255 255 255 255 
0.671101 0.579124 0 0 0 0 255 255 255 255 
0.761845 0.561668 0 0 0 0 255 255 255 255 
0.996347 0.0758188 0 0 0 0 255 255 255 255 
0.0608896 0.0061187 0 0 0 0 255 255 255 255 
0.56408 0.399208 0 0 0 0 255 255 255 255 
0.973072 0.911064 0 0 0 0 255 255 255 255 
0.595467 0.689047 0 0 0 0 255 255 255 255 
0.758573 0.228595 0 0 0 0 255 255 255 255 
0.0342166 0.67661 0 0 0 0 255 255 255 255 
0.240668 0.676901 0 0 0 0 255 255 255 255 
0.163683 0.608478 0 0 0 0 255 255 255 255 
0.832581 0.215235 0 0 0 0 255 255 255 255 
0.352837 0.609181 0 0 0 0 255 255 255 255 
0.166597 0.652027 0 0 0 0 255 255 255 255 
0.903258 0.866161 0 0 0 0 255 255 255 255 
0.11455 0.269825 0 0 0 0 255 255 255 255 
0.463881 0.693583 0 0 0 0 255 255 255 255 
0.324011 0.771228 0 0 0 0 255 255 255 255 
0.25769 0.78857 0 0 0 0 255 255 255 255 
0.119605 0.227773 0 0 0 0 255 255 255 255 
0.986382 0.98059 0 0 0 0 255 255 255 255 
0.774273 0.64612 0 0 0 0 255 255 255 255 
0.611644 0.372849 0 0 0 0 255 255 255 255 
0.834308 0.846748 0 0 0 0 255 255 255 255 
0.883013 0.273216 0 0 0 0 255 255 255 255 
0.610017 0.774508 0 0 0 0 255 255 255 255 
0.921249 0.727865 0 0 0 0 255 255 255 255 
0.297214 0.682366 0 0 0 0 255 255 255 255 
0.204382 0.0746878 0 0 0 0 255 255 255 255 
0.762562 0.45088 0 0 0 0 255 255 255 255 
0.061917 0.047483 0 0 0 0 255 255 255 255 
0.230018 0.507963 0 0 0 0 255 255 255 255 
0.319341 0.338716 0 0 0 0 255 255 255 255 
0.333799 0.375064 0 0 0 0 255 255 255 255 
0.641775 0.0666685 0 0 0 0 255 255 255 255 
0.725946 0.308061 0 0 0 0 255 255 255 255 
0.413306 0.857198 0 0 0 0 255 255 255 255 
0.127892 0.389229 0 0 0 0 255 255 255 255 
0.856382 0.439139 0 0 0 0 255 255 255 255 
0.774588 0.619173 0 0 0 0 255 255 255 255 
0.157467 0.578965 0 0 0 0 255 255 255 255 
0.62343 0.674916 0 0 0 0 255 255 255 255 
0.211993 0.0576516 0 0 0 0 255 255 255 255 
0.716248 0.155361 0 0 0 0 255 255 255 255 
0.346852 0.352595 0 0 0 0 255 255 255 255 
0.916146 0.764069 0 0 0 0 255 255 255 255 
0.225119 0.374334 0 0 0 0 255 255 255 255 
0.386479 0.0576728 0 0 0 0 255 255 255 255 
0.538659 0.510107 0 0 0 0 255 255 255 255 
0.888166 0.174882 0 0 0 0 255 255 255 255 
0.933741 0.506306 0 0 0 0 255 255 255 255 
0.484696 0.0605418 0 0 0 0 255 255 255 255 
0.133241 0.852045 0 0 0 0 255 255 255 255 
0.958928 0.410592 0 0 0 0 255 255 255 255 
0.732398 0.550831 0 0 0 0 255 255 255 255 
0.633338 0.579844 0 0 0 0 255 255 255 255 
0.814964 0.346138 0 0 0 0 255 255 255 255 
0.248989 0.441974 0 0 0 0 255 255 255 255 
0.420235 0.391395 0 0 0 0 255 255 255 255 
0.120736 0.779097 0 0 0 0 255 255 255 255 
0.00142216 0.88209 0 0 0 0 255 255 255 255 
0.887724 0.521996 0 0 0 0 255 255 255 255 
0.030663 1.00192 0 0 0 0 255 255 255 255 
0.0432562 0.278946 0 0 0 0 255 255 255 255 
0.616449 0.104925 0 0 0 0 255 255 255 255 
0.184427 0.0505193 0 0 0 0 255 255 255 255 
0.114053 0.941074 0 0 0 0 255 255 255 255 
0.0625424 0.195143 0 0 0 0 255 255 255 255 
0.391229 0.813504 0 0 0 0 255 255 255 255 
0.515835 0.0737541 0 0 0 0 255 255 255 255 
0.808179 0.895079 0 0 0 0 255 255 255 255 
0.236932 0.460591 0 0 0 0 255 255 255 255 
0.600888 0.556276 0 0 0 0 255 255 255 255 
0.108956 0.720043 0 0 0 0 255 255 255 255 
0.101362 0.0325607 0 0 0 0 255 255 255 255 
0.939308 0.336484 0 0 0 0 255 255 255 255 
0.265033 0.584964 0 0 0 0 255 255 255 255 
0.123694 0.916649 0 0 0 0 255 255 255 255 
0.420596 0.813909 0 0 0 0 255 255 255 255 
0.137554 0.706252 0 0 0 0 255 255 255 255 
0.464803 0.439746 0 0 0 0 255 255 255 255 
0.509697 0.913924 0 0 0 0 255 255 255 255 
-0.0152499 0.0171788 0 0 0 0 255 255 255 255 
0.751075 0.394366 0 0 0 0 255 255 255 255 
0.357307 0.165837 0 0 0 0 255 255 255 255 
0.0923513 0.623466 0 0 0 0 255 255 255 255 
0.349447 0.798555 0 0 0 0 255 255 255 255 
0.726603 0.465689 0 0 0 0 255 255 255 255 
0.515624 0.524218 0 0 0 0 255 255 255 255 
0.551203 0.970945 0 0 0 0 255 255 255 255 
0.150952 0.598901 0 0 0 0 255 255 255 255 
0.0343946 0.480767 0 0 0 0 255 255 255 255 
0.962607 0.579154 0 0 0 0 255 255 255 255 
0.925602 0.395773 0 0 0 0 255 255 255 255 
0.214346 0.350615 0 0 0 0 255 255 255 255 
0.683556 0.19601 0 0 0 0 255 255 255 255 
0.034563 0.0898543 0 0 0 0 255 255 255 255 
0.450008 0.568976 0 0 0 0 255 255 255 255 
0.00674913 0.630874 0 0 0 0 255 255 255 255 
0.200685 0.442215 0 0 0 0 255 255 255 255 
0.840464 0.535695 0 0 0 0 255 255 255 255 
0.51523 0.52349 0 0 0 0 255 255 255 255 
0.254427 0.566531 0 0 0 0 255 255 255 255 
0.307945 0.45389 0 0 0 0 255 255 255 255 
0.73913 0.112931 0 0 0 0 255 255 255 255 
0.573499 0.819757 0 0 0 0 255 255 255 255 
0.169331 0.438515 0 0 0 0 255 255 255 255 
0.363212 0.650444 0 0 0 0 255 255 255 255 
0.668415 0.664841 0 0 0 0 255 255 255 255 
0.0712696 0.890553 0 0 0 0 255 255 255 255 
0.681279 0.817207 0 0 0 0 255 255 255 255 
0.892177 0.357537 0 0 0 0 255 255 255 255 
0.0477778 0.00596743 0 0 0 0 255 255 255 255 
0.0901849 0.0951295 0 0 0 0 255 255 255 255 
0.380715 0.0764729 0 0 0 0 255 255 255 255 
0.911553 0.832243 0 0 0 0 255 255 255 255 
0.874939 0.751614 0 0 0 0 255 255 255 255 
0.820209 0.539795 0 0 0 0 255 255 255 255 
0.818579 0.0762808 0 0 0 0 255 255 255 255 
0.880036 0.912389 0 0 0 0 255 255 255 255 
0.554047 0.974841 0 0 0 0 255 255 255 255 
0.3554 0.397739 0 0 0 0 255 255 255 255 
0.314803 0.428592 0 0 0 0 255 255 255 255 
0.551346 0.740905 0 0 0 0 255 255 255 255 
0.0750053 0.172117 0 0 0 0 255 255 255 255 
0.322207 0.588304 0 0 0 0 255 255 255 255 
0.540292 0.102284 0 0 0 0 255 255 255 255 
0.00137623 0.749664 0 0 0 0 255 255 255 255 
0.352246 0.722975 0 0 0 0 255 255 255 255 
0.746133 0.448678 0 0 0 0 255 255 255 255 
0.40212 0.784078 0 0 0 0 255 255 255 255 
0.544719 0.574669 0 0 0 0 255 255 255 255 
0.642489 0.639645 0 0 0 0 255 255 255 255 
0.429346 1.00874 0 0 0 0 255 255 255 255 
0.360239 0.767028 0 0 0 0 255 255 255 255 
0.545209 0.635513 0 0 0 0 255 255 255 255 
0.628598 0.257496 0 0 0 0 255 255 255 255 
0.570813 0.494181 0 0 0 0 255 255 255 255 
0.489089 0.27536 0 0 0 0 255 255 255 255 
0.794734 0.674343 0 0 0 0 255 255 255 255 
0.181363 0.211625 0 0 0 0 255 255 255 255 
0.270218 0.792905 0 0 0 0 255 255 255 255 
0.449741 0.0348553 0 0 0 0 255 255 255 255 
0.560371 0.0225783 0 0 0 0 255 255 255 255 
0.739921 0.679045 0 0 0 0 255 255 255 255 
0.966067 0.541796 0 0 0 0 255 255 255 255 
0.44212 0.435493 0 0 0 0 255 255 255 255 
0.887354 0.471217 0 0 0 0 255 255 255 255 
0.848807 0.400892 0 0 0 0 255 255 255 255 
0.0937468 0.888589 0 0 0 0 255 255 255 255 
0.923223 0.780189 0 0 0 0 255 255 255 255 
0.746126 0.144776 0 0 0 0 255 255 255 255 
0.499639 0.716 0 0 0 0 255 255 255 255 
0.242307 0.714661 0 0 0 0 255 255 255 255 
0.674938 0.0652206 0 0 0 0 255 255 255 255 
0.594267 0.799639 0 0 0 0 255 255 255 255 
0.217993 0.826415 0 0 0 0 255 255 255 255 
1.00281 0.438365 0 0 0 0 255 255 255 255 
0.0436709 0.948845 0 0 0 0 255 255 255 255 
0.784934 0.993828 0 0 0 0 255 255 255 255 
0.707438 0.859487 0 0 0 0 255 255 255 255 
0.696289 0.66085 0 0 0 0 255 255 255 255 
0.447094 0.720566 0 0 0 0 255 255 255 255 
0.782869 0.418366 0 0 0 0 255 255 255 255 
0.521131 0.867633 0 0 0 0 255 255 255 255 
0.321399 0.400034 0 0 0 0 255 255 255 255 
0.305688 0.00722415 0 0 0 0 255 255 255 255 
0.511766 0.353887 0 0 0 0 255 255 255 255 
0.378524 0.130856 0 0 0 0 255 255 255 255 
0.453442 0.372565 0 0 0 0 255 255 255 255 
0.16538 0.0905615 0 0 0 0 255 255 255 255 
0.808101 0.269633 0 0 0 0 255 255 255 255 
0.606263 0.133298 0 0 0 0 255 255 255 255 
0.572394 0.983781 0 0 0 0 255 255 255 255 
0.063869 0.981512 0 0 0 0 255 255 255 255 
0.32506 0.865515 0 0 0 0 255 255 255 255 
0.587682 0.747593 0 0 0 0 255 255 255 255 
0.949173 0.954791 0 0 0 0 255 255 255 255 
0.657782 0.391766 0 0 0 0 255 255 255 255 
0.664554 0.0393942 0 0 0 0 255 255 255 255 
0.412438 0.408808 0 0 0 0 255 255 255 255 
0.716744 0.844793 0 0 0 0 255 255 255 255 
0.358527 0.0304337 0 0 0 0 255 255 255 255 
0.858202 0.605101 0 0 0 0 255 255 255 255 
0.184869 0.248482 0 0 0 0 255 255 255 255 
0.82414 0.594763 0 0 0 0 255 255 255 255 
0.037502 0.841107 0 0 0 0 255 255 255 255 
0.143559 0.123657 0 0 0 0 255 255 255 255 
0.700268 0.382974 0 0 0 0 255 255 255 255 
0.0464231 0.967791 0 0 0 0 255 255 255 255 
0.785018 0.482578 0 0 0 0 255 255 255 255 
0.591374 0.11283 0 0 0 0 255 255 255 255 
0.713017 0.0242916 0 0 0 0 255 255 255 255 
0.802638 0.597901 0 0 0 0 255 255 255 255 
0.865331 0.148495 0 0 0 0 255 255 255 255 
0.57861 0.258577 0 0 0 0 255 255 255 255 
0.27316 0.67875 0 0 0 0 255 255 255 255 
0.990258 0.378874 0 0 0 0 255 255 255 255 
0.815753 0.372873 0 0 0 0 255 255 255 255 
0.199238 0.303013 0 0 0 0 255 255 255 255 
0.844272 0.979207 0 0 0 0 255 255 255 255 
0.808455 0.419092 0 0 0 0 255 255 255 255 
0.451286 0.323397 0 0 0 0 255 255 255 255 
0.896992 0.64273 0 0 0 0 255 255 255 255 
0.796298 0.723829 0 0 0 0 255 255 255 255 
0.943852 0.558544 0 0 0 0 255 255 255 255 
0.291902 0.554214 0 0 0 0 255 255 255 255 
0.320412 0.897898 0 0 0 0 255 255 255 255 
0.761276 0.079642 0 0 0 0 255 255 255 255 
0.18808 0.714949 0 0 0 0 255 255 255 255 
0.702608 0.771821 0 0 0 0 255 255 255 255 
0.258535 0.0622028 0 0 0 0 255 255 255 255 
0.0583271 0.458046 0 0 0 0 255 255 255 255 
0.263025 0.636938 0 0 0 0 255 255 255 255 
0.0806759 0.775092 0 0 0 0 255 255 255 255 
0.637795 0.379237 0 0 0 0 255 255 255 255 
0.499046 0.385344 0 0 0 0 255 255 255 255 
0.181693 0.778168 0 0 0 0 255 255 255 255 
0.00484776 0.964373 0 0 0 0 255 255 255 255 
0.0120249 0.712788 0 0 0 0 255 255 255 255 
0.114651 0.333213 0 0 0 0 255 255 255 255 
0.663642 0.495762 0 0 0 0 255 255 255 255 
0.177236 0.62291 0 0 0 0 255 255 255 255 
0.856571 0.0781801 0 0 0 0 255 255 255 255 
0.955133 0.374689 0 0 0 0 255 255 255 255 
0.616174 0.866491 0 0 0 0 255 255 255 255 
0.757375 0.502275 0 0 0 0 255 255 255 255 
0.316754 0.682663 0 0 0 0 255 255 255 255 
0.471605 0.533357 0 0 0 0 255 255 255 255 
0.795898 0.200828 0 0 0 0 255 255 255 255 
0.37708 0.388904 0 0 0 0 255 255 255 255 
0.985494 0.62637 0 0 0 0 255 255 255 255 
0.0842999 0.112326 0 0 0 0 255 255 255 255 
0.0406888 0.51651 0 0 0 0 255 255 255 255 
0.621827 0.128115 0 0 0 0 255 255 255 255 
0.541477 0.721272 0 0 0 0 255 255 255 255 
0.847805 0.699316 0 0 0 0 255 255 255 255 
0.145512 0.657011 0 0 0 0 255 255 255 255 
0.57566 0.721548 0 0 0 0 255 255 255 255 
0.254641 0.732252 0 0 0 0 255 255 255 255 
0.575186 0.340024 0 0 0 0 255 255 255 255 
0.130796 0.444534 0 0 0 0 255 255 255 255 
0.808602 0.550821 0 0 0 0 255 255 255 255 
0.565659 0.297565 0 0 0 0 255 255 255 255 
0.641434 0.55662 0 0 0 0 255 255 255 255 
0.410642 0.917768 0 0 0 0 255 255 255 255 
0.658584 0.273144 0 0 0 0 255 255 255 255 
0.296904 0.244242 0 0 0 0 255 255 255 255 
0.263331 0.103594 0 0 0 0 255 255 255 255 
0.921132 0.591615 0 0 0 0 255 255 255 255 
0.801044 0.301193 0 0 0 0 255 255 255 255 
0.92881 0.554189 0 0 0 0 255 255 255 255 
0.059228 0.812901 0 0 0 0 255 255 255 255 
0.322846 0.750723 0 0 0 0 255 255 255 255 
0.715538 0.210431 0 0 0 0 255 255 255 255 
0.341018 0.594645 0 0 0 0 255 255 255 255 
0.645576 0.18287 0 0 0 0 255 255 255 255 
0.376163 0.493652 0 0 0 0 255 255 255 255 
0.198379 0.674657 0 0 0 0 255 255 255 255 
0.0524479 0.309165 0 0 0 0 255 255 255 255 
0.209309 0.670945 0 0 0 0 255 255 255 255 
0.495961 0.451138 0 0 0 0 255 255 255 255 
0.556025 0.436649 0 0 0 0 255 255 255 255 
0.529107 0.406894 0 0 0 0 255 255 255 255 
0.990447 0.411287 0 0 0 0 255 255 255 255 
0.142247 0.878127 0 0 0 0 255 255 255 255 
0.753883 0.274241 0 0 0 0 255 255 255 255 
0.98921 0.937258 0 0 0 0 255 255 255 255 
0.708547 0.597519 0 0 0 0 255 255 255 255 
0.518077 0.313458 0 0 0 0 255 255 255 255 
0.558499 0.355228 0 0 0 0 255 255 255 255 
0.791524 0.779853 0 0 0 0 255 255 255 255 
